<?xml version="1.0" standalone="no"?>
<!DOCTYPE svg PUBLIC "-//W3C//DTD SVG 1.1//EN" "http://www.w3.org/Graphics/SVG/1.1/DTD/svg11.dtd" >
<svg xmlns="http://www.w3.org/2000/svg">
<metadata></metadata>
<defs>
<font id="edwardian_scr_alt_itc_ttRg" horiz-adv-x="978" >
<font-face units-per-em="2048" ascent="1638" descent="-410" />
<missing-glyph horiz-adv-x="362" />
<glyph horiz-adv-x="2048" />
<glyph horiz-adv-x="2048" />
<glyph unicode="&#xd;" horiz-adv-x="362" />
<glyph unicode=" "  horiz-adv-x="362" />
<glyph unicode="&#x09;" horiz-adv-x="362" />
<glyph unicode="&#xa0;" horiz-adv-x="362" />
<glyph unicode="!" horiz-adv-x="587" d="M162 35q0 41 43 82t86 41q39 0 39 -41q0 -45 -41 -86t-84 -41t-43 45zM319 231q0 2 13 21q102 150 332 676q59 133 98 184t84 51q57 0 57 -59q0 -47 -229 -363q-250 -346 -332 -508q-6 -12 -14 -12t-9 10z" />
<glyph unicode="&#x22;" d="M846 834q31 106 74 315q35 168 98 168q39 0 39 -49q0 -39 -45 -125q-115 -217 -148 -309h-18zM1016 834q14 49 74 315q35 168 96 168q39 0 39 -47q0 -31 -13.5 -61.5t-99.5 -196.5q-57 -113 -80 -178h-16z" />
<glyph unicode="#" horiz-adv-x="1873" d="M0 8q0 6 23 8q137 14 356 295q-4 33 -4 70q0 281 238.5 488.5t562.5 207.5q276 0 468.5 -161t192.5 -392q0 -262 -270 -440q-225 -147 -469 -147q-109 0 -191 36q-72 -16 -129 -16q-156 0 -262 91t-133 247q-229 -295 -371 -295q-12 0 -12 8zM387 389q0 -33 4 -61 q395 506 729 506q137 0 228.5 -90.5t91.5 -225.5q0 -168 -144.5 -321.5t-363.5 -219.5q70 -29 164 -28q268 0 467.5 187t199.5 437q0 221 -162.5 357.5t-429.5 136.5q-309 0 -546.5 -206t-237.5 -472zM393 309q23 -158 127.5 -249t265.5 -91q47 0 105 13q-145 86 -146 223 q0 72 44.5 123t105.5 51q47 0 79 -32t32 -81q0 -33 -15 -33q-8 0 -8 9l4 12l2 25q2 37 -25.5 62.5t-68.5 25.5q-57 0 -96 -47.5t-39 -114.5q0 -150 149 -217q199 53 340.5 221t141.5 348q0 121 -73 192.5t-196 71.5q-168 0 -361.5 -136t-367.5 -376z" />
<glyph unicode="$" d="M279 168q0 90 101 168t216 78q12 0 14 -4q0 -6 -22 -11q-94 -18 -157.5 -87.5t-63.5 -151.5q0 -90 56 -141.5t157 -51.5q135 0 234 72t99 172q0 53 -27.5 87t-153.5 128t-126 192q0 117 122 210.5t276 93.5q23 0 43 -2l153 290q12 23 21 23q10 0 10 -12q0 -4 -8 -25 l-154 -281q164 -32 164 -147q0 -76 -69.5 -127t-172.5 -51q-133 0 -133 96q0 39 40 87t73 48q8 0 8 -6q0 -4 -4 -4q-100 -45 -101 -123q0 -80 91 -80q66 0 133 63.5t67 127.5q0 109 -151 108q-113 0 -207 -72.5t-94 -160.5q0 -39 29.5 -72t158.5 -135q115 -90 115 -193 q0 -131 -130 -225t-306 -94q-23 0 -45 2l-201 -375q-8 -16 -19 -16q-10 0 -10 12q0 8 8 23l201 360q-236 39 -235 207z" />
<glyph unicode="%" horiz-adv-x="3049" d="M430 489q0 262 270 441q223 147 471 147q104 0 189 -35q68 16 129 17q209 0 330 -166q242 184 532 184q276 0 469 -161t193 -392q0 -262 -271 -440q-225 -147 -469 -147q-109 0 -190 36q-72 -16 -129 -16q-211 0 -328 162q-141 -100 -263 -141t-273 -41 q-274 0 -467 160.5t-193 391.5zM504 442q0 -221 162.5 -357t425.5 -136q278 0 528 180q-53 84 -66 207q-203 -156 -399 -156q-143 0 -235.5 89t-92.5 229q0 168 145.5 321.5t364.5 216.5q-70 29 -166 29q-266 0 -466.5 -186.5t-200.5 -436.5zM879 457q0 -119 72.5 -190.5 t193.5 -71.5q203 0 405 196q0 133 68.5 266.5t187.5 227.5q-113 162 -325 162q-43 0 -103 -13q143 -84 144 -225q0 -72 -44 -123t-106 -51q-49 0 -79.5 31.5t-30.5 83.5q0 33 14 32q8 0 8 -8l-2 -12q-4 -12 -4 -25q0 -39 27.5 -64.5t68.5 -25.5q55 0 95 48t40 114 q0 147 -151 219q-205 -61 -342 -225t-137 -346zM1563 403q204 201 315 287q-18 113 -66 184q-113 -94 -179 -221t-70 -250zM1565 346q12 -127 65 -207q111 80 184.5 224.5t67.5 267.5q-29 -23 -88 -76l-133 -127q-47 -45 -96 -82zM1638 129q111 -160 324 -160q47 0 102 13 q-143 86 -143 223q0 72 44 123t106 51q49 0 79.5 -32t30.5 -81q0 -33 -14 -33q-8 0 -8 7l2 14q4 6 4 22q0 39 -27 65t-67 26q-57 0 -96.5 -47.5t-39.5 -114.5q0 -147 150 -217q199 53 339 221t140 350q0 121 -72.5 191.5t-195.5 70.5q-182 0 -402 -180q4 -135 -65.5 -275.5 t-190.5 -236.5zM1825 883q47 -78 65 -187q190 139 396 140q143 0 236 -89.5t93 -228.5q0 -168 -145.5 -321.5t-364.5 -219.5q70 -29 168 -28q266 0 466 187t200 437q0 221 -163 357.5t-429 136.5q-283 0 -522 -184z" />
<glyph unicode="&#x26;" horiz-adv-x="1820" d="M406 606q0 233 209.5 394t512.5 161q170 0 342 -53q76 88 155 147.5t120 59.5q35 0 35 -33q0 -59 -201 -215q213 -96 338 -261t125 -349q0 -176 -112.5 -299t-274.5 -123q-63 0 -152 33q-158 -102 -346 -103q-158 0 -282.5 72t-182.5 192q-133 45 -209.5 145.5 t-76.5 231.5zM465 561q0 -215 215 -305q-23 61 -23 123q0 240 304 412q80 45 409 170q33 57 88 133q-141 45 -282 45q-281 0 -496 -175.5t-215 -402.5zM748 301q0 -29 8 -68q61 -6 82 -6q66 0 145 21q-31 59 -31 114q0 119 90.5 222.5t231.5 150.5q23 78 78 191 q-35 -18 -107 -54q-498 -252 -497 -571zM762 213q39 -100 143.5 -162.5t231.5 -62.5q153 0 311 106q-51 33 -74 58q-78 -35 -149 -35q-143 0 -230 114q-86 -25 -155 -24q-31 0 -78 6zM1001 354q0 -45 19 -94q123 39 223 121q-12 61 -12 108q0 99 37 224 q-119 -53 -193 -152.5t-74 -206.5zM1030 242q59 -106 209 -107q58 0 121 29q-86 94 -113 198q-102 -78 -217 -120zM1282 477q0 -35 2 -61q152 139 234 311q-55 14 -105 14q-47 0 -102 -14q-29 -106 -29 -250zM1286 393q12 -127 94 -219q135 82 138 195q0 29 20 28 q23 0 23 -24q0 -43 -51.5 -108.5t-114.5 -102.5q14 -14 59 -49l10 -7q104 78 167 178.5t63 192.5q0 168 -154 242q-96 -188 -254 -326zM1315 748q57 10 98 10q59 0 111 -17q39 78 49 146q4 29 18 28q12 0 13 -16q0 -45 -56 -166q180 -78 181 -282q0 -217 -207 -371 q53 -20 108 -21q150 0 256.5 129.5t106.5 309.5q0 176 -112 321.5t-318 235.5q-70 -51 -174 -109q-45 -88 -74 -198zM1403 977q53 27 139 86q-33 12 -63 22q-39 -49 -76 -108zM1491 1102l8 -4l21 -6l26 -13l13 -4q78 53 140 116.5t62 90.5q0 16 -16 16q-33 0 -108.5 -59 t-145.5 -137z" />
<glyph unicode="'" horiz-adv-x="657" d="M770 834q31 106 74 315q35 168 98 168q39 0 39 -49q0 -39 -45 -125q-115 -217 -148 -309h-18z" />
<glyph unicode="(" horiz-adv-x="899" d="M563 313q0 279 185.5 557.5t465.5 423.5q102 53 273.5 104.5t247.5 51.5q14 0 14 -8t-37 -15q-408 -66 -737.5 -452.5t-329.5 -800.5q0 -195 123 -315q6 -6 6 -11q-2 -6 -6 -6q-12 0 -63 60q-141 162 -142 411z" />
<glyph unicode=")" horiz-adv-x="899" d="M-199 -166q0 8 25 12q393 74 715.5 466.5t322.5 797.5q0 205 -121 315q-8 6 -8 13q0 6 8 6t39 -31q164 -159 164 -395q0 -215 -50 -370.5t-167 -307.5q-135 -174 -301 -282.5t-408 -180.5q-172 -51 -208 -51q-10 0 -11 8z" />
<glyph unicode="*" horiz-adv-x="1458" d="M324 336q0 184 188 332q96 76 434 225q8 4 96 45q313 438 486 438q53 0 53 -51q0 -82 -126 -181.5t-339 -187.5q-139 -256 -139 -518q0 -209 104 -319q59 41 99 74q-25 80 -25 163q0 197 115.5 380.5t259.5 215.5q4 33 8 111q2 14 8 14t6 -16q0 -35 -6 -96v-11q14 2 33 2 q94 0 153.5 -71.5t59.5 -184.5q0 -213 -146.5 -406.5t-349.5 -246.5q57 -43 134 -43q154 0 251 139q4 10 13 11q6 -2 6 -9q0 -16 -58 -67q-98 -88 -212 -88q-86 0 -154 53q-39 -6 -62 -6q-80 0 -170 45q-152 -90 -325 -90q-164 0 -279.5 100.5t-115.5 243.5zM436 252 q0 -115 76 -180.5t209 -65.5q166 0 309 84q-184 102 -184 330q0 213 184 498q-287 -139 -440.5 -311.5t-153.5 -354.5zM1092 109q68 -55 149 -56h25q-51 49 -82 125q-41 -35 -92 -69zM1126 973q441 227 441 354q0 35 -41 35q-78 0 -195 -113.5t-205 -275.5zM1180 319 q0 -55 12 -114q291 289 338 733q-145 -43 -247.5 -223t-102.5 -396zM1196 188q27 -78 86 -131q180 35 319.5 228.5t139.5 410.5q0 111 -47 178.5t-123 67.5q-16 0 -27 -2q-27 -264 -104.5 -430t-243.5 -322z" />
<glyph unicode="+" horiz-adv-x="204" d="M63 -57q2 6 7 8q88 86 317 373l8 10l2 -4q2 -4 4 -6q0 -2 -4 -7l-10 -18q-61 -88 -181 -224t-136 -136q-6 2 -7 4z" />
<glyph unicode="," horiz-adv-x="456" d="M90 -111q0 6 8 9q41 14 75 41.5t34 48.5q0 6 -10 6q-45 0 -45 43q0 39 40.5 83t75.5 44q41 0 41 -43q0 -68 -73 -148q-29 -31 -75 -60.5t-65 -29.5q-6 0 -6 6z" />
<glyph unicode="-" horiz-adv-x="733" d="M274 213q0 12 78 39t113 27q20 0 86 -15q55 -12 80 -12q47 0 88 20q6 4 10 4t4 -4q0 -12 -82 -37.5t-125 -25.5q-41 0 -84 10q-51 12 -77 12q-41 0 -80 -20q-2 -2 -6 -2t-5 4z" />
<glyph unicode="." horiz-adv-x="456" d="M180 35q0 41 43 82t86 41q39 0 39 -41q0 -45 -41 -86t-84 -41t-43 45z" />
<glyph unicode="/" horiz-adv-x="1083" d="M348 -207l1075 1694h31l-1075 -1694h-31z" />
<glyph unicode="0" d="M274 293q0 268 330 547q285 240 455 239q106 0 169.5 -78.5t63.5 -209.5q0 -227 -229 -488q-279 -315 -516 -315q-119 0 -196 86t-77 219zM367 190q0 -188 178 -188q219 0 442 307q104 143 168 306t64 286q0 164 -158 164q-129 0 -299 -152q-160 -145 -275 -346 q-121 -215 -120 -377z" />
<glyph unicode="1" d="M461 344q0 6 12 12q254 115 737 652l13 14q18 20 22 20t4 -4q0 -10 -227 -360q-182 -281 -252 -415t-104 -269q-35 8 -62 8q-29 0 -108 -12q68 199 415 618q213 256 283 367q-260 -307 -522 -508q-170 -129 -203 -129q-8 0 -8 6z" />
<glyph unicode="2" d="M166 -35q0 47 80 129q70 72 142.5 117t273.5 139q252 119 394 271.5t142 304.5q0 63 -47 100t-125 37q-176 0 -381 -180.5t-205 -335.5q0 -113 135 -113q106 0 239.5 105.5t182.5 228.5q2 10 9 10q6 0 6 -6q0 -43 -86 -145q-76 -88 -173.5 -145.5t-174.5 -57.5 q-76 0 -123 46t-47 122q0 186 247 350q203 133 375 133q117 0 190.5 -62.5t73.5 -162.5q0 -137 -114 -246q-82 -78 -169 -124t-343 -148q-319 -129 -441 -275q90 70 195 70q84 0 221 -43q119 -37 180 -37q84 0 157 68.5t99 175.5q2 12 11 12q4 0 4 -4q0 -57 -68 -152 q-125 -174 -311 -174q-70 0 -205 41q-164 49 -207 49q-104 0 -115 -83q-2 -23 -14 -23q-8 0 -8 8z" />
<glyph unicode="3" d="M205 176q0 90 87 152.5t212 62.5q94 0 94 -12q0 -6 -6 -6h-8q-37 6 -62 6q-109 0 -184.5 -62.5t-75.5 -152.5q0 -74 59.5 -121t153.5 -47q182 0 336 130t154 286q0 129 -158 170q-86 -12 -141 -13q-51 0 -52 13q0 20 74 20q57 0 119 -10q152 51 242 147.5t90 208.5 q0 127 -162 127q-139 0 -279.5 -96t-140.5 -195q0 -90 115 -90q70 0 156.5 55.5t136.5 131.5q4 10 12 10q4 0 4 -4q0 -10 -38 -52t-71 -69q-106 -84 -204 -84q-57 0 -95 35t-38 88q0 102 142 192t302 90q117 0 186.5 -51t69.5 -139q0 -238 -412 -309q242 -55 242 -246 q0 -143 -165 -252.5t-382 -109.5q-137 0 -225 55t-88 141z" />
<glyph unicode="4" d="M98 250q0 35 193 74q137 82 229 161q88 74 295 287q416 426 678 426q37 0 73 -10.5t36 -20.5q0 -8 -9 -8q-2 0 -10 2q-47 16 -90 17q-260 0 -668 -422q-201 -207 -295 -287t-219 -145q117 31 310 30q72 0 118 -4q55 84 238 336q158 217 197 299q6 12 12 12q4 0 4 -4 q0 -2 -2 -6l-10 -20q-12 -25 -141.5 -257.5t-192.5 -365.5q61 -4 114 -4q104 0 170 46t66 118q0 27 -14 57q-2 4 -2 10t6 7q23 0 22 -74q0 -201 -383 -201q-88 -190 -106 -307q-37 12 -74 12q-47 0 -100 -12q53 143 166 307q-23 0 -107 8q-117 12 -174 13q-55 0 -123 -9 q-119 -76 -190 -75q-16 0 -17 10z" />
<glyph unicode="5" d="M213 184q0 102 101.5 172t252.5 70q86 0 86 -12q-2 -4 -6 -4q-12 0 -35.5 2t-36.5 2q-133 0 -219 -69t-86 -177q0 -80 56.5 -126t152.5 -46q182 0 355.5 152.5t173.5 314.5q0 96 -64.5 152.5t-171.5 56.5q-72 0 -158 -33q-106 -135 -145 -135q-12 0 -12 10q0 39 147 125 q176 236 176 405q0 18 -2 24.5t-2 12.5q0 12 12 13q12 0 13 -33q0 -29 -13 -82q57 98 150 98q37 0 192 -53q53 -18 84 -18t54.5 22.5t23.5 52.5q0 8 -4 18.5t-4 14.5q0 12 10 12q13 1 13 -26q0 -63 -57.5 -111.5t-131.5 -48.5q-55 0 -136 28.5t-124 28.5q-57 0 -84 -69 q-57 -154 -147 -277q84 39 168 39q135 0 225 -76.5t90 -191.5q0 -170 -188.5 -305t-425.5 -135q-125 0 -204 56t-79 146z" />
<glyph unicode="6" d="M326 246q0 180 149.5 378.5t417.5 376.5q109 72 232.5 125.5t181.5 53.5q18 -1 18 -11t-20 -10h-19q-178 0 -440 -254t-391 -551q100 162 233 261.5t252 99.5q100 0 162.5 -61.5t62.5 -159.5q0 -176 -194.5 -345t-399.5 -169q-113 0 -179 72.5t-66 193.5zM412 164 q0 -78 38.5 -125t104.5 -47q156 0 340 202.5t184 372.5q0 135 -149 135q-158 0 -338 -186t-180 -352z" />
<glyph unicode="7" d="M389 -4q35 195 179.5 370t469.5 420q174 131 230 248q-72 -106 -217 -106q-74 0 -197 45t-158 45q-31 0 -59 -17l-6 -12q-78 -156 -113 -155q-12 0 -12 12q0 51 117 155q23 45 22 78q0 12 -6 33v4q0 12 12 12t13 -20q0 -37 -23 -92q80 66 162 65q49 0 201 -51 q86 -29 141 -29q139 0 139 99q0 8 -2 18v6q0 16 14 17q15 -1 15 -17q0 -45 -49 -127q-39 -66 -78 -108q-47 -51 -207 -209q-401 -393 -418 -684q-47 10 -92 10q-41 0 -78 -10z" />
<glyph unicode="8" d="M256 207q0 121 119 211t405 186q-100 98 -100 184q0 117 129 213.5t287 96.5q98 0 164.5 -48t66.5 -120q0 -176 -424 -301q94 -88 126 -142.5t32 -121.5q0 -150 -151.5 -267.5t-344.5 -117.5q-137 0 -223 62t-86 165zM334 172q0 -180 229 -180q162 0 278.5 91t116.5 218 q0 84 -55 162q-14 23 -117 133q-453 -166 -452 -424zM776 842q0 -55 41 -113q16 -23 80 -92q166 57 264.5 145.5t98.5 178.5q0 53 -47.5 88.5t-116.5 35.5q-127 0 -223.5 -73.5t-96.5 -169.5z" />
<glyph unicode="9" d="M223 -80q0 14 25 14h14q182 0 450.5 242t399.5 520q-98 -145 -241.5 -241.5t-262.5 -96.5q-96 0 -153.5 58.5t-57.5 156.5q0 178 205 338q98 78 215 127t201 49q104 0 169.5 -74.5t65.5 -193.5q0 -170 -153.5 -366.5t-415.5 -364.5q-117 -74 -247 -126t-197 -52 q-16 0 -17 10zM481 502q0 -129 137 -129q90 0 215 74.5t216 181.5q118 141 118 276q0 170 -147 170q-154 0 -346.5 -204.5t-192.5 -368.5z" />
<glyph unicode=":" horiz-adv-x="456" d="M180 35q0 41 43 82t86 41q39 0 39 -41q0 -45 -41 -86t-84 -41t-43 45zM360 328q0 41 42 82t87 41q39 0 39 -41q0 -45 -41 -86t-84 -41t-43 45z" />
<glyph unicode=";" horiz-adv-x="456" d="M92 -111q0 6 8 9q41 14 75 41.5t34 48.5q0 6 -10 6q-45 0 -45 43q0 39 41 83t75 44q41 0 41 -43q0 -68 -73 -148q-29 -31 -75 -60.5t-65 -29.5q-6 0 -6 6zM340 334q0 43 42 84t87 41q39 0 39 -41q0 -45 -41 -86t-84 -41t-43 43z" />
<glyph unicode="&#x3c;" horiz-adv-x="1071" d="M371 662v43l886 380v-43l-839 -360l839 -358v-43z" />
<glyph unicode="=" horiz-adv-x="221" d="M70 -45q0 4 14 16q78 68 210 231t198 271q2 -6 2 -10q0 -27 -114 -175.5t-216 -256.5q-23 -23 -43 -45q-33 -35 -45 -35q-6 2 -6 4z" />
<glyph unicode="&#x3e;" horiz-adv-x="1071" d="M467 281v43l840 358l-840 360v43l887 -380v-43z" />
<glyph unicode="?" horiz-adv-x="892" d="M309 35q0 41 43 82t86 41q39 0 39 -41q0 -45 -41 -86t-84 -41t-43 45zM371 743q0 164 177 299.5t388 135.5q-51 123 -170 122q-41 0 -78 -14q-8 -4 -10 -4q-6 2 -6 6q0 8 33.5 17.5t60.5 9.5q129 0 184 -137q133 -8 218 -84t85 -185q0 -158 -190 -276q-70 -43 -336 -146 q-274 -104 -274 -217q0 -51 53 -51q90 0 170 117q4 6 8 6q4 -2 4 -6q0 -16 -57 -70q-68 -61 -125 -61q-68 0 -68 63q0 53 64 111q31 27 57 43q37 25 170 98q422 236 422 461q0 164 -197 186q8 -39 9 -75q0 -176 -141.5 -337t-297.5 -161q-66 0 -109.5 43t-43.5 106zM401 717 q0 -109 121 -109q143 0 285.5 162t142.5 322q0 37 -10 75q-201 0 -377 -166q-162 -152 -162 -284z" />
<glyph unicode="@" horiz-adv-x="1665" d="M166 383q0 281 239.5 487.5t561.5 206.5q276 0 468.5 -161t192.5 -392q0 -262 -270 -440q-225 -147 -469 -147q-109 0 -191 36q-72 -16 -129 -16q-180 0 -291.5 119t-111.5 307zM178 383q0 -33 4 -55q395 506 729 506q135 0 227.5 -91.5t92.5 -224.5 q0 -168 -145.5 -321.5t-364.5 -219.5q72 -29 166 -28q268 0 467.5 187t199.5 437q0 221 -162.5 357.5t-428.5 136.5q-311 0 -548 -206t-237 -478zM184 309q23 -158 127.5 -249t266.5 -91q47 0 102 13q-143 84 -143 223q0 72 44 123t105 51q47 0 79 -32t32 -81q0 -33 -15 -33 q-8 0 -8 7l2 14q4 8 4 25q0 37 -27.5 62.5t-68.5 25.5q-55 0 -95 -47.5t-40 -114.5q0 -145 151 -217q199 53 339.5 221t140.5 350q0 119 -73 190.5t-194 71.5q-168 0 -364.5 -138t-364.5 -374z" />
<glyph unicode="A" horiz-adv-x="1859" d="M178 217q0 55 34 94t81 39q65 0 65 -61q0 -35 -22.5 -58.5t-52.5 -23.5q-47 0 -47 45l2 20q2 4 2 11q0 10 -9 10q-10 0 -20 -24.5t-10 -51.5q0 -98 103.5 -165.5t252.5 -67.5q215 0 473 211q59 47 131 124q143 150 228 234l30 31h-194l12 18q96 0 197 -2 q293 326 568 476.5t583 152.5q72 14 133 14q139 0 139 -45q0 -18 -21 -18q-10 0 -67 12q-102 22 -172 22h-6q-162 -49 -285 -190t-281 -457q-242 -485 -620 -573q78 -12 137 -12q184 0 309 118q121 113 201 242q8 14 14 14t7 -4q0 -16 -115 -155q-106 -131 -194.5 -180.5 t-215.5 -49.5q-74 0 -178 21q-63 -20 -147 -21q-57 0 -58 21q0 24 72 24h6q55 0 127 -10q156 37 234.5 122t306.5 460h-385q-244 -258 -379 -367q-313 -254 -590 -254q-158 0 -268.5 74t-110.5 180zM690 838q0 211 204 391t441 180q104 0 164 -52t60 -143q0 -70 -48 -161 q-43 -84 -43 -115q0 -74 88 -74q100 0 207 148q8 12 15 12q8 0 8 -8q0 -10 -37 -53q-102 -117 -193 -117q-59 0 -95 41t-36 106q0 55 66 181q31 57 31 96q0 51 -55.5 86t-135.5 35q-229 0 -424.5 -176.5t-195.5 -380.5q0 -102 65.5 -169t169.5 -67q113 0 227.5 83t161.5 198 q2 10 8 10q8 0 9 -10q0 -20 -35 -73.5t-72 -90.5q-135 -133 -303 -133q-113 0 -182.5 70.5t-69.5 185.5zM1542 600h379q129 223 308.5 399t310.5 211q-260 -14 -483.5 -150t-514.5 -460z" />
<glyph unicode="B" horiz-adv-x="1902" d="M233 172q0 51 31 88t72 37q61 0 61 -68q0 -35 -20.5 -58.5t-50.5 -23.5q-50 0 -50 52q0 22 -4 24q-16 0 -16 -53q0 -84 81 -138.5t206 -54.5q219 0 397 162q78 70 134 146.5t261 388.5q98 150 237.5 303t233.5 219q-158 133 -458 133q-422 0 -734 -305 q-256 -250 -256 -471q0 -113 72 -178.5t195 -65.5q201 0 415.5 193.5t214.5 374.5q0 145 -149 145q-150 0 -320 -166t-170 -311q0 -35 24 -61.5t56 -26.5q16 -2 17 -8q0 -8 -19 -9q-47 0 -80.5 43t-33.5 107q0 156 171 303t351 147q172 0 172 -159q0 -193 -219 -391.5 t-432 -198.5q-139 0 -222.5 84t-83.5 223q0 283 319.5 516.5t706.5 233.5q291 0 494 -131q180 114 351 114h3q133 0 215 -80t82 -211q0 -53 -14 -114.5t-27 -61.5q-10 0 -10 10q0 2 2 9q27 70 27 151q0 125 -75 202t-198 77q-166 0 -340 -109q139 -104 140 -243 q0 -223 -303 -265q249 -88 249 -317q0 -174 -146 -303t-343 -129q-94 0 -149.5 49t-55.5 131q0 127 118 253t236 126q66 0 108 -41t42 -107q0 -39 -23.5 -97t-39.5 -58q-10 0 -11 8q0 4 4 12q51 76 52 137q0 57 -37 92t-97 35q-113 0 -221 -118.5t-108 -243.5q0 -66 45 -110 t112 -44q152 0 280 148.5t128 326.5q0 166 -160 244l-57 -8q-25 -2 -49 -2q-76 0 -76 25q0 18 63 18q45 0 119 -18q104 33 164.5 112.5t60.5 183.5q0 100 -77 181q-219 -168 -412 -570q-119 -248 -216 -356.5t-275 -196.5q-209 -102 -373 -102q-133 0 -222.5 61.5 t-89.5 153.5z" />
<glyph unicode="C" horiz-adv-x="1632" d="M358 1053q0 156 161 261t401 105q336 0 677 -223q59 12 121 12q199 0 199 -98q0 -66 -90 -135q82 -121 82 -223q0 -25 -15 -25q-12 0 -12 33q0 100 -70 203q-145 -106 -395 -185.5t-442 -79.5q-27 0 -47 2q-160 -223 -160 -430q0 -141 87 -223t239 -82q285 0 508 273 q135 166 135 313q0 78 -47.5 124t-124.5 46q-125 0 -268.5 -131t-143.5 -246q0 -10 6 -10q4 0 8 4q27 25 50 24q51 0 51 -55q0 -74 -72 -74q-66 0 -66 80q0 143 144.5 283.5t294.5 140.5q193 0 192 -211q0 -219 -209 -398t-462 -179q-176 0 -297 119.5t-121 293.5 q0 170 119 349q-432 80 -433 342zM393 1034q0 -240 406 -309q252 350 770 467q-303 176 -647 176q-211 0 -370 -100.5t-159 -233.5zM940 715q209 0 461.5 76.5t402.5 185.5q-78 111 -207 197q-188 -51 -366 -175.5t-291 -283.5zM1622 1178q119 -82 197 -191q82 70 82 123 q0 82 -160 82q-49 0 -119 -14z" />
<glyph unicode="D" horiz-adv-x="1734" d="M129 6q0 27 64.5 46.5t150.5 19.5q104 0 414 -68q209 55 327.5 172t360.5 502q147 233 321 399q-147 246 -473 246q-338 0 -620 -266q-141 -133 -226.5 -295t-85.5 -299q0 -109 69 -173.5t181 -64.5q190 0 396 206t206 396q0 72 -39.5 116t-105.5 44q-74 0 -74 -24 q0 -6 11 -7q6 0 10 2h14q49 0 49 -45q0 -33 -24.5 -57.5t-59.5 -24.5q-61 0 -61 66q0 45 40 77t97 32q74 0 119 -48.5t45 -126.5q0 -203 -211 -413.5t-412 -210.5q-139 0 -229 93t-90 237q0 311 307 557.5t694 246.5q330 0 496 -243q244 225 496 225q127 0 204.5 -82 t77.5 -213q0 -51 -12 -107.5t-23 -56.5q-6 0 -6 6t2 13q23 61 23 143q0 127 -76 203t-203 76q-244 0 -469 -230q86 -160 86 -338q0 -328 -252 -556t-614 -228q-113 0 -307 31q-170 -31 -324 -31q-264 0 -264 53zM150 6q0 -35 262 -35q151 1 270 19q-276 39 -412 39 q-121 0 -120 -23zM791 -4q127 -27 270 -27q383 0 620 371q154 240 154 471q0 127 -53 240q-135 -154 -242 -387q-141 -307 -294.5 -445.5t-454.5 -222.5z" />
<glyph unicode="E" horiz-adv-x="1722" d="M317 752q0 178 154 325q182 176 514 176q184 0 490 -75q137 67 316 67h5q135 0 231.5 -37t96.5 -88q0 -67 -119 -67h-4q-96 0 -461 90q-170 -96 -170 -244q0 -70 49 -98q72 6 107 6q104 0 104 -25q0 -16 -55 -16q-70 0 -152 20q-113 -16 -258 -86q-374 -180 -374 -462 q0 -190 204 -242q-37 61 -37 141q0 197 201 363t440 166q109 0 174.5 -54.5t65.5 -144.5q0 -195 -214 -351.5t-482 -156.5q-53 0 -101 6q96 -129 285 -129q117 0 191 35l12 2q6 -2 6 -8q0 -14 -73.5 -29.5t-135.5 -15.5q-209 0 -319 151q-152 35 -239 116t-87 189 q0 143 120 270.5t320 192.5q121 39 277 58q-111 47 -111 149q0 131 162 219q-231 55 -383 56q-297 0 -505 -147.5t-208 -358.5q0 -94 54.5 -161t132.5 -67q53 0 53 17q0 10 -19 6q-53 0 -53 49q0 29 23.5 48.5t56.5 19.5q63 0 64 -62q0 -41 -36 -69.5t-89 -28.5 q-92 0 -158 83t-66 202zM995 98q0 -53 33 -110q57 -10 107 -11q236 0 461 164t225 334q0 72 -56.5 119t-144.5 47q-215 0 -420 -178t-205 -365zM1563 1157q266 -86 446 -86q94 0 94 51q0 39 -83 69t-189 30q-147 0 -268 -64z" />
<glyph unicode="F" horiz-adv-x="1351" d="M119 184q0 49 29.5 85t70.5 36q66 0 66 -67q0 -31 -20.5 -53.5t-49.5 -22.5q-49 0 -49 47q4 25 -6 24q-18 0 -19 -53q0 -84 87 -143.5t212 -59.5q195 0 350.5 117t342.5 402q16 25 47 71h-19q-113 0 -155 -86q-4 -14 -11 -14q-8 0 -8 8q0 39 56.5 75t119.5 36h29 q262 397 549 524q-123 33 -367 88q-109 20 -209 21q-31 0 -57 -2q43 -82 43 -187q0 -219 -171 -411.5t-364 -192.5q-82 0 -133 51t-51 135q0 188 196.5 382t438.5 245q-76 113 -233 113q-256 0 -465 -250q-16 -16 -19 -17q-6 0 -8 7q0 18 84 96q195 180 401 180 q184 0 267 -125q106 27 247 27q88 0 164 -13.5t361 -82.5q223 86 418 86q115 0 185.5 -26t70.5 -67q0 -49 -98.5 -83.5t-235.5 -34.5q-180 0 -441 55q-127 -59 -233.5 -182t-231.5 -353q61 -10 103 -16q55 129 160 129q71 0 71 -54q0 -44 -48 -72t-124 -28h-20 q-2 -4 -25 -53q-27 -57 -73 -98t-87 -41q-14 0 -14 6t10 8q70 20 140 185q-29 4 -84 12l-19 4q-14 -25 -41 -74q-86 -154 -140 -220.5t-144 -129.5q-242 -170 -500 -170q-152 0 -249 63.5t-97 163.5zM449 614q0 -72 45 -120t110 -48q174 0 342 209t168 422q0 66 -33 135 q-229 -29 -430.5 -219t-201.5 -379zM1448 547h25q63 0 103 21.5t40 56.5q0 43 -49 43q-66 0 -111 -103zM1898 1165l134 -30q168 -39 309 -39q72 0 126 20t54 49q0 31 -65.5 53.5t-157.5 22.5q-217 0 -400 -76z" />
<glyph unicode="G" horiz-adv-x="1503" d="M109 -12q0 156 96 295t262 225t309 86q12 0 21 -2q0 25 14 88q-18 -2 -43 -2q-162 0 -257 70.5t-95 189.5q0 205 231.5 362.5t530.5 157.5q238 0 389 -119q106 39 155 39q96 0 97 -80q0 -74 -113 -184q8 -55 8 -92q0 -109 -63 -231q-18 -37 -27 -37q-6 0 -6 6q0 4 4 10 q74 121 74 256q0 41 -4 76q-168 -147 -373 -257t-391 -151q-31 -53 -49 -108q264 -45 264 -287v-20q199 55 489 395q66 102 133.5 180t92.5 78q6 0 8 -6q0 -25 -78 -116t-156 -159q-72 -115 -104.5 -189.5t-81.5 -234.5q-61 -197 -150.5 -311.5t-251.5 -204.5 q-231 -129 -475 -129q-207 0 -333.5 112.5t-126.5 293.5zM166 -72q0 -145 107.5 -235t281.5 -90q236 0 429.5 167t447.5 592q77 131 165 248q-270 -299 -458 -350q-20 -137 -128 -249.5t-220 -112.5q-57 0 -97.5 35.5t-40.5 89.5q0 55 37 99t84 44q70 0 70 -64 q0 -29 -22.5 -52t-51.5 -23q-53 0 -53 47q0 8 4 22q2 8 2 15q0 6 -6 6q-14 0 -29.5 -32t-15.5 -62q0 -47 33.5 -78t85.5 -31q102 0 209.5 110.5t121.5 231.5q-23 -4 -51 -4q-127 0 -201.5 86t-74.5 235q-252 -16 -440.5 -209.5t-188.5 -435.5zM434 940q0 -115 92 -179.5 t256 -64.5h35q117 383 731 637q-133 104 -366 105q-281 0 -514.5 -156t-233.5 -342zM862 467q0 -88 57.5 -142.5t151.5 -54.5q28 0 55 4q1 10 1 20q0 105 -61 176q-65 77 -189 99q-14 -51 -15 -102zM938 713q178 41 382 151.5t368 255.5q-27 119 -119 197 q-178 -90 -355.5 -259t-275.5 -345zM1585 1323q86 -74 117 -190q98 93 98 163q0 66 -76 66q-59 0 -139 -39z" />
<glyph unicode="H" horiz-adv-x="1767" d="M178 164q0 49 30 85t71 36q65 0 65 -64q0 -35 -20.5 -57.5t-49.5 -22.5q-47 0 -47 47q4 25 -6 25q-18 0 -18 -53q0 -82 76.5 -134.5t197.5 -52.5q211 0 370 125t359 451h-307l8 20h312q12 18 41 64q211 340 395 475q39 29 103.5 62.5t80.5 33.5q6 -2 6 -8t-20 -14 q-123 -49 -220.5 -171t-265.5 -442h390q188 334 407 519.5t428 185.5q102 0 167 -55.5t65 -143.5q0 -160 -193 -268q-84 -47 -115 -47q-8 0 -8 8q0 6 29 16q113 43 183.5 125t70.5 168q0 80 -55.5 130t-143.5 50q-287 0 -512 -329q-39 -57 -237 -439q-215 -412 -506 -505 q88 -10 137 -11q182 0 309 119q111 102 199 238q12 14 16 14t4 -4q0 -10 -94 -131q-111 -143 -204 -196.5t-226 -53.5q-82 0 -180 14q-74 -20 -135 -20q-51 0 -52 22q0 25 82 25q45 0 115 -12q131 57 202.5 146t219.5 382l16 33h-389q-94 -174 -162.5 -258t-185.5 -164 q-254 -174 -492 -174q-139 0 -225 58.5t-86 152.5zM424 838q0 217 200.5 399t438.5 182q209 0 209 -184q0 -63 -43 -151.5t-43 -116.5q0 -76 82 -76q109 0 217 164q2 4 6 4q8 0 8 -8q0 -20 -59 -84q-88 -94 -168 -95q-57 0 -95 40t-38 100q0 55 41 137q51 102 51 141 q0 51 -48 82t-126 31q-223 0 -419 -179.5t-196 -383.5q0 -104 64.5 -171t165.5 -67q197 0 332 182q2 6 6 7q8 0 8 -9q0 -20 -64 -77q-133 -119 -286 -119q-109 0 -176.5 69.5t-67.5 182.5z" />
<glyph unicode="I" horiz-adv-x="1306" d="M141 174q0 51 30 88t71 37q65 0 65 -66q0 -35 -21.5 -58t-52.5 -23q-47 0 -47 45v20q0 8 -6 10q-18 0 -18 -51q0 -86 84 -144.5t209 -58.5q301 0 542 301q72 88 191 275q-170 74 -170 239q0 199 225 297q115 49 359 91l110 18l94 20q53 41 140.5 80t119.5 39q17 0 17 -10 q0 -16 -82 -53t-189 -66q-250 -178 -493 -635l-16 -30q12 -2 28 -2q121 0 224.5 74.5t125.5 181.5q4 16 11 16q6 0 6 -8q0 -61 -66 -139q-119 -141 -305 -142q-18 0 -35 2l-28 -55q-72 -139 -126.5 -205.5t-144.5 -130.5q-252 -178 -514 -178q-147 0 -242.5 62.5 t-95.5 158.5zM1073 739q0 -125 123 -178q264 424 586 635h2q-59 -14 -178 -43q-244 -57 -388.5 -170t-144.5 -244z" />
<glyph unicode="J" horiz-adv-x="1153" d="M-135 -147q0 51 28.5 85.5t69.5 34.5q66 0 66 -67q0 -80 -72 -80q-53 0 -55 65q0 2 -2 7q-16 0 -17 -48q0 -80 80 -133t199 -53q256 0 442 209q72 82 139 197q111 195 220 387l16 28q-100 31 -160.5 109t-60.5 180q0 180 149 301q88 72 177.5 99.5t322.5 56.5 q102 12 244 47q186 119 258 119q14 -1 14 -11q0 -16 -82 -53t-180 -63q-172 -143 -291 -312.5t-262 -478.5h25q170 0 284 125q57 61 80 164q4 16 12 16t9 -10q0 -113 -123 -212t-260 -99q-20 0 -35 2q-6 -12 -60 -123q-125 -254 -211 -364.5t-221 -196.5 q-217 -137 -444 -137q-131 0 -215 59t-84 150zM811 717q0 -158 176 -217q301 543 645 762q-68 -16 -184 -43q-188 -41 -285.5 -82t-179.5 -111q-172 -147 -172 -309z" />
<glyph unicode="K" horiz-adv-x="1804" d="M178 160q0 53 30 88t75 35q65 0 65 -64q0 -35 -21.5 -57.5t-50.5 -22.5q-49 0 -49 54q0 20 -8 20q-16 0 -16 -55q0 -84 78.5 -135.5t203.5 -51.5q219 0 400 160q92 82 151.5 161t223.5 341q211 338 397 475q37 27 102.5 61.5t79.5 34.5q8 0 8 -8q0 -6 -20 -14 q-129 -53 -225.5 -179t-284.5 -481q-88 -166 -171 -257t-222 -175q-229 -139 -432 -139q-139 0 -226.5 58.5t-87.5 150.5zM424 838q0 217 200.5 399t440.5 182q209 0 209 -184q0 -63 -66 -195q-23 -45 -22 -73q0 -76 82 -76q61 0 127 55q53 45 90 107q4 6 8 6q8 0 8 -8 q0 -23 -59 -84q-90 -94 -170 -95q-57 0 -95 40t-38 100q0 53 43 137q51 100 51 141q0 51 -49 82t-127 31q-221 0 -418 -179.5t-197 -383.5q0 -104 64.5 -171t165.5 -67q90 0 184 51.5t150 132.5q4 4 6 5q8 0 8 -9q0 -20 -64 -77q-133 -119 -286 -119q-109 0 -177.5 69.5 t-68.5 182.5zM1413 676q0 14 41 14t90 -18q102 18 184 75.5t240 215.5q182 184 326.5 264t290.5 80q100 0 165.5 -56.5t65.5 -142.5q0 -176 -229 -287q-61 -30 -83 -30h-1q-8 0 -9 6q0 8 9 10q121 35 201.5 120t80.5 179q0 80 -56 130t-149 50q-119 0 -228 -67.5 t-267 -237.5q-272 -295 -518 -319q92 -51 92 -185q0 -61 -49 -250q-23 -86 -23 -125q0 -72 45 -117.5t115 -45.5q61 0 111 38q12 10 16 11q6 0 6 -6q0 -18 -49 -40t-90 -22q-98 0 -169 83t-71 198q0 74 58 239q29 82 28 129q0 55 -39 93q-37 -4 -61 -5q-74 0 -74 19z" />
<glyph unicode="L" horiz-adv-x="1554" d="M178 96q0 90 240 90q186 0 555 -96q111 43 195.5 127t215.5 281q-299 -260 -557 -260q-176 0 -280.5 104t-104.5 281q0 272 256 514.5t543 242.5q131 0 210 -68.5t79 -183.5q0 -205 -191.5 -424t-371.5 -219q-76 0 -128.5 48.5t-52.5 117.5q0 53 34 93t79 40q61 0 62 -61 q0 -33 -24 -58.5t-54 -25.5q-47 0 -47 42q0 32 -7 32q-22 0 -22 -57v-5q0 -63 47 -105t119 -42q164 0 351 215t187 407q0 102 -70.5 169t-180.5 67q-264 0 -507 -265.5t-243 -551.5q0 -135 86 -212t238 -77q131 0 259 64.5t316 222.5q158 264 226.5 363.5t164.5 199.5 q183 194 282 194h1q41 1 41 -36q0 -72 -174 -274t-340 -322q-125 -272 -258 -398.5t-359 -185.5q397 -106 476 -123.5t151 -17.5q104 0 188 75q8 4 11 5q6 -2 6 -5q0 -16 -53 -53q-97 -67 -280 -67h-5q-137 0 -264 26.5t-387 108.5q-166 -33 -344 -33q-313 0 -314 96z M195 96q0 -78 307 -78q166 0 301 25q-350 111 -477 111q-131 0 -131 -58zM1624 698q170 139 326.5 322t156.5 244q0 22 -22 22h-2q-74 0 -203 -151q-115 -135 -256 -437z" />
<glyph unicode="M" horiz-adv-x="2002" d="M178 166q0 53 30 88t75 35q65 0 65 -62q0 -35 -21.5 -58.5t-50.5 -23.5q-49 0 -49 54q0 20 -8 20q-16 0 -16 -55q0 -82 82 -134.5t209 -52.5q262 0 512 271q100 109 170.5 213t279.5 450q88 147 198.5 267t157.5 120q6 0 7 -6q0 -4 -4 -8q-92 -102 -168 -385 q-111 -416 -209.5 -602t-253.5 -281q-4 0 -4 -4q2 0 4 -2q23 0 112 64q106 76 197.5 182t331.5 434q170 231 269 339t220 190q188 127 381 127q168 0 276.5 -98.5t108.5 -248.5q0 -39 -8 -75.5t-18 -36.5q-6 0 -7 6q0 6 8.5 43t8.5 59q0 133 -105.5 225.5t-259.5 92.5 q-248 0 -506 -242q-102 -96 -174.5 -183t-279.5 -362q-305 -406 -502 -506q-88 -45 -113 -45q-6 0 -6 7q0 2 21 16q98 74 155 197q55 113 195 534q119 360 272 516q6 6 6 10l-2 2q-12 0 -57 -45q-131 -131 -264 -368q-217 -393 -221 -398q-137 -219 -305 -337 q-211 -152 -426 -152q-137 0 -225.5 58.5t-88.5 150.5zM426 838q0 217 200.5 399t438.5 182q98 0 153.5 -49t55.5 -135q0 -61 -43 -150.5t-43 -117.5q0 -76 82 -76q94 0 211 168q2 4 6 4q8 0 8 -8q0 -23 -57 -86q-86 -96 -166 -97q-55 0 -93 40t-38 100q0 57 41 137 q51 100 51 141q0 51 -48 82t-126 31q-223 0 -419 -180.5t-196 -382.5q0 -104 64.5 -171t165.5 -67q90 0 182 51.5t150 132.5q4 4 6 5q8 0 8 -9q0 -20 -64 -77q-133 -119 -286 -119q-109 0 -176.5 69.5t-67.5 182.5zM1321 -25q0 25 74 25q41 0 108 -10h13q106 39 179.5 121 t176.5 278q209 397 332 561q117 160 282 271q82 55 107 55q6 0 6 -6q0 -4 -27 -19q-117 -61 -206 -178t-203 -360q-166 -352 -296 -506t-323 -221q88 -12 137 -13q154 0 246 65.5t262 293.5q10 14 17 14q4 -2 4 -6q0 -10 -94 -129q-115 -145 -205 -198.5t-223 -53.5 q-82 0 -177 18q-65 -22 -131 -22h-6q-53 0 -53 20z" />
<glyph unicode="N" horiz-adv-x="1783" d="M178 166q0 53 30 88t75 35q65 0 65 -62q0 -35 -21.5 -58.5t-50.5 -23.5q-49 0 -49 54q0 20 -8 20q-16 0 -16 -55q0 -82 78.5 -134.5t199.5 -52.5q231 0 430 174.5t455 606.5q209 350 334 461q85 75 109 75h1q4 0 5 -4q0 -2 -13 -18q-63 -84 -79.5 -180.5t-22.5 -407.5 q-8 -381 -94 -545q-2 0 -2 -4l2 -2q18 0 303 502q209 367 401.5 530.5t417.5 163.5q160 0 264.5 -97t104.5 -247q0 -84 -19 -84q-8 0 -8 6q0 10 4 35t4 37q0 137 -98 226t-250 89q-301 0 -606 -391q-96 -123 -373 -588q-80 -135 -165 -240.5t-111 -105.5q-14 0 -15 15 q0 20 45 41q88 41 88 204q0 31 -4 103q-10 178 -10 307q0 215 42 353t138 245l4 8l-2 2q-31 0 -135 -129q-57 -70 -101 -143.5t-231 -411.5q-160 -289 -372.5 -446.5t-444.5 -157.5q-131 0 -215 58.5t-84 148.5zM426 838q0 217 200.5 399t438.5 182q98 0 153.5 -49 t55.5 -135q0 -61 -43 -150.5t-43 -117.5q0 -76 82 -76q94 0 211 168q2 4 6 4q8 0 8 -8q0 -23 -57 -86q-86 -96 -166 -97q-55 0 -93 40t-38 100q0 57 41 137q51 100 51 141q0 51 -48 82t-126 31q-223 0 -419 -180.5t-196 -382.5q0 -104 64.5 -171t165.5 -67q90 0 182 51.5 t150 132.5q4 4 6 5q8 0 8 -9q0 -20 -64 -77q-133 -119 -286 -119q-109 0 -176.5 69.5t-67.5 182.5z" />
<glyph unicode="O" horiz-adv-x="1624" d="M500 383q0 184 114.5 374.5t307.5 329.5q139 100 311 162t311 62t221 -66.5t82 -179.5q0 -45 -16 -109q27 -79 27 -157q0 -152 -86 -310.5t-234.5 -284.5t-316.5 -199t-308 -73q-184 0 -298.5 125t-114.5 326zM675 46.5q87 -93.5 226 -93.5q279 0 562.5 287.5 t314.5 603.5q-35 -59 -122 -141t-118 -82q-8 0 -8 8q0 6 16 14q162 90 234 238q0 125 -73 198.5t-198 73.5q-231 0 -476 -248t-245 -483q0 -94 44.5 -152.5t115.5 -58.5q35 0 70 19.5t35 39.5q-2 6 -4 6l-9 -4q-12 -12 -39 -12q-47 0 -47 55q0 33 22.5 56.5t55.5 23.5 q63 0 64 -71q0 -53 -45 -92t-107 -39q-86 0 -143.5 70.5t-57.5 176.5q0 244 254 486.5t510 242.5q109 0 195 -51t117 -135q12 41 12 80q0 102 -70.5 163.5t-187.5 61.5q-229 0 -465 -153q-225 -147 -369 -377q-151 -236 -151 -468q0 -150 87 -243.5z" />
<glyph unicode="P" horiz-adv-x="1574" d="M233 172q0 51 31 88t72 37q61 0 61 -68q0 -35 -20.5 -58.5t-50.5 -23.5q-50 0 -50 52q0 22 -4 24q-16 0 -16 -53q0 -84 81 -138.5t206 -54.5q219 0 397 162q78 70 133 144q59 82 262 389q100 154 237.5 306t233.5 218q-156 133 -458 133q-422 0 -734 -305 q-256 -250 -256 -471q0 -113 72 -178.5t195 -65.5q201 0 415.5 193.5t214.5 374.5q0 145 -149 145q-150 0 -320 -167t-170 -312q0 -35 24 -61.5t56 -26.5q16 0 17 -9q0 -8 -19 -8q-47 0 -80.5 43t-33.5 107q0 156 171 304t351 148q172 0 172 -159q0 -193 -219 -391.5 t-432 -198.5q-139 0 -222.5 84t-83.5 223q0 283 319.5 516.5t706.5 233.5q293 0 494 -131q180 114 351 114h3q133 0 215 -80t82 -211q0 -53 -14 -114.5t-27 -61.5q-10 0 -10 10q0 2 2 9q27 70 27 151q0 125 -75 202t-198 77q-166 0 -342 -109q150 -121 150 -272 q0 -127 -103.5 -222.5t-240.5 -95.5q-53 0 -115.5 21.5t-62.5 40.5q2 6 8 6t16 -6q61 -35 125 -35q113 0 195 98.5t82 233.5q0 117 -84 209q-217 -162 -412 -570q-119 -248 -216 -356.5t-275 -196.5q-209 -102 -373 -102q-133 0 -222.5 61.5t-89.5 153.5z" />
<glyph unicode="Q" horiz-adv-x="1437" d="M377 158q190 0 487 -92q322 102 537 371.5t215 563.5q0 154 -80 240t-223 86q-293 0 -572.5 -275.5t-279.5 -566.5q0 -123 70.5 -193.5t195.5 -70.5q256 0 457 246q168 207 168 399q0 80 -42 132.5t-106 52.5q-33 0 -69.5 -19.5t-36.5 -36.5q2 -4 6 -4q2 0 14 7.5t29 7.5 q49 0 49 -54q0 -33 -22.5 -56.5t-53.5 -23.5q-63 0 -63 68q0 53 43 91t102 38q86 0 141.5 -72.5t55.5 -187.5q0 -229 -207 -417.5t-461 -188.5q-160 0 -253 94t-93 256q0 336 346 586q291 209 584 209q176 0 285.5 -118t109.5 -308q0 -164 -93 -333t-257 -298 q-188 -150 -471 -234q328 -98 418 -120.5t151 -22.5q92 0 166 68l8 4q6 -2 6 -9q0 -16 -49 -47q-86 -55 -248 -55q-152 0 -247 19q-129 27 -340 114l-25 10q-127 -30 -277 -30h-10q-286 0 -286 91q0 79 221 79zM174 80q0 -74 270 -74q156 0 256 23q-303 98 -409 98 q-117 0 -117 -47z" />
<glyph unicode="R" horiz-adv-x="1894" d="M233 172q0 51 31 88t72 37q61 0 61 -68q0 -35 -20.5 -58.5t-50.5 -23.5q-50 0 -50 52q0 22 -4 24q-16 0 -16 -53q0 -84 81 -138.5t206 -54.5q219 0 397 162q78 70 133 144q59 82 262 389q100 154 237.5 306t233.5 218q-156 133 -458 133q-422 0 -734 -305 q-256 -250 -256 -471q0 -113 72 -178.5t195 -65.5q201 0 415.5 193.5t214.5 374.5q0 145 -149 145q-150 0 -320 -167t-170 -312q0 -35 24 -61.5t56 -26.5q16 0 17 -9q0 -8 -19 -8q-47 0 -80.5 43t-33.5 107q0 156 171 304t351 148q172 0 172 -159q0 -193 -219 -391.5 t-432 -198.5q-139 0 -222.5 84t-83.5 223q0 283 319.5 516.5t706.5 233.5q293 0 494 -131q180 114 351 114h3q133 0 215 -80t82 -211q0 -53 -14 -114.5t-27 -61.5q-10 0 -10 10q0 2 2 9q27 70 27 151q0 125 -75 202t-198 77q-168 0 -342 -109q147 -119 148 -256 q0 -117 -93.5 -199.5t-246.5 -101.5q104 -59 104 -174q0 -76 -53 -231q-35 -100 -35 -160q0 -59 43 -101t105 -42q66 0 121 43q14 8 18 8q8 0 8 -8q0 -16 -56 -39t-97 -23q-96 0 -161 77t-65 189q0 82 72 289q18 53 18 90q0 47 -39 80q-63 -6 -73 -6q-98 0 -99 25 q0 16 50 16q59 0 118 -23q119 18 195 109.5t76 216.5q0 98 -76 188l-10 13q-219 -164 -414 -572q-119 -248 -216 -356.5t-275 -196.5q-209 -102 -373 -102q-133 0 -222.5 61.5t-89.5 153.5z" />
<glyph unicode="S" horiz-adv-x="1447" d="M270 377q0 170 100.5 337t280.5 300q231 170 457 170q123 0 195.5 -68.5t72.5 -187.5q0 -63 -18 -131q147 98 260 166q72 158 181.5 270.5t189.5 112.5q47 0 47 -39q0 -47 -96.5 -138.5t-235.5 -173.5q-18 -57 -53 -207q-55 -236 -102.5 -334t-155.5 -200 q-311 -295 -699 -295q-111 0 -196 37q-47 -92 -47 -160q0 -86 57 -158q6 -6 6 -14t-10 -8q-23 0 -49.5 62.5t-26.5 115.5q0 78 51 172q-209 109 -209 371zM344 305q0 -197 145 -280q68 113 195 245q-66 55 -66 136q0 59 38 102t92 43q67 0 67 -60q0 -35 -24.5 -58t-59.5 -23 q-49 0 -49 47q0 16 10 32q4 12 4 15q0 6 -6 6q-16 0 -34.5 -36t-18.5 -71q0 -66 61 -118q201 213 635 495q25 89 25 152q0 104 -66.5 168.5t-175.5 64.5q-268 0 -520 -280.5t-252 -579.5zM508 14q82 -37 186 -37q186 0 362.5 106.5t303.5 295.5q59 88 93 163.5t110 284.5 q18 52 43 109q-117 -74 -256 -168q-66 -211 -232 -371.5t-317 -160.5q-45 0 -101 24q-113 -117 -192 -246zM713 274q41 -22 86 -22h4q139 0 292.5 147.5t227.5 352.5l-66 -45q-377 -260 -544 -433zM1712 1020q131 82 218 163t87 122q0 24 -26 24h-2q-66 0 -149 -92 t-128 -217z" />
<glyph unicode="T" horiz-adv-x="1202" d="M156 174q0 49 28.5 84t69.5 35q65 0 65 -66q0 -35 -20 -57.5t-49 -22.5q-47 0 -47 46q0 25 -8 24q-16 0 -17 -49q0 -82 84 -137.5t205 -55.5q268 0 481 242q100 113 258 373q258 422 539 555q-121 27 -367 74q-92 14 -184 14q-14 0 -84 -4q47 -88 47 -201 q0 -219 -167 -412.5t-357 -193.5q-78 0 -128 53t-50 135q0 115 86 253t224 241.5t302 144.5q-80 106 -225 107q-123 0 -249 -72t-220 -194q-14 -18 -19 -19q-6 0 -8 6q0 16 82 99q196 196 410 196h2q168 0 254 -117q123 35 278 35q80 0 149.5 -11t346.5 -67q231 100 444 101 q219 0 219 -86q0 -53 -108.5 -91t-263.5 -38q-156 0 -390 43q-123 -63 -225 -189.5t-219 -355.5t-171 -306t-150 -149q-250 -186 -521 -186q-145 0 -236 61.5t-91 157.5zM471 612q0 -72 44 -121t110 -49q170 0 331.5 209t161.5 426q0 80 -37 148q-223 -37 -416.5 -230.5 t-193.5 -382.5zM1901 1204q25 -4 133 -24q160 -31 284 -31q82 0 139.5 22.5t57.5 53.5q0 29 -56.5 49t-142.5 20q-213 0 -415 -90z" />
<glyph unicode="U" horiz-adv-x="1845" d="M299 547q0 328 344 598q133 104 290 167.5t281 63.5q152 0 236 -82t84 -227q0 -125 -61.5 -235.5t-303.5 -432.5q-106 -141 -139 -201.5t-33 -113.5q0 -49 30 -81t77 -32q152 0 416 302t688 958q53 -4 59 -4q39 0 96 10q-694 -952 -694 -1229q0 -68 44 -111.5t114 -43.5 q119 0 233 127q8 10 15 10q6 0 6 -8q0 -10 -35 -41q-119 -104 -219 -105q-96 0 -158.5 74t-62.5 186q0 193 198 506q-12 -14 -32 -43l-48 -65q-182 -252 -348 -395.5t-276 -143.5q-72 0 -116 52t-44 138q0 90 48 180.5t218 311.5q176 231 224.5 321.5t48.5 192.5 q0 96 -71 151.5t-191 55.5q-305 0 -588 -278.5t-283 -579.5q0 -113 63.5 -181.5t168.5 -68.5q199 0 383 227q192 237 192 432q0 168 -141 168q-35 0 -66 -16.5t-31 -34.5q0 -8 9 -8q4 0 14 4t18 4q51 0 52 -49q0 -33 -23.5 -56.5t-56.5 -23.5q-61 0 -62 66q0 53 44 93 t106 40q72 0 113.5 -50.5t41.5 -134.5q0 -197 -189 -438.5t-404 -241.5q-127 0 -203 86t-76 230z" />
<glyph unicode="V" horiz-adv-x="1533" d="M307 508q0 279 278.5 550t563.5 271q170 0 274.5 -117.5t104.5 -308.5q0 -205 -115 -430t-371 -522q-10 -12 -10 -14l2 -3q16 0 125 93q84 72 172 168q80 86 422 475q203 229 356.5 362t344.5 242q311 178 548 178q82 0 82 -29q0 -25 -28 -24h-17q-55 6 -90 6 q-258 0 -608 -225q-168 -109 -282.5 -219.5t-426.5 -464.5q-367 -418 -553 -553q-98 -72 -108 -72q-6 0 -6 6l22 31q176 229 303 542.5t127 524.5q0 338 -274 338q-109 0 -249 -74t-257 -192q-127 -129 -202 -288t-75 -296q0 -125 67 -196.5t181 -71.5q221 0 432 284 q150 203 150 363q0 72 -36 114.5t-95 42.5q-33 0 -67 -15t-34 -32q0 -6 7 -6h8q29 4 31 4q45 0 45 -49q0 -31 -24 -53.5t-56 -22.5q-61 0 -62 64q0 53 45 91t107 38q68 0 108.5 -47t40.5 -125q0 -197 -196.5 -432.5t-405.5 -235.5q-133 0 -216 92t-83 238z" />
<glyph unicode="W" horiz-adv-x="1892" d="M307 520q0 137 74 287.5t201 273.5q287 279 551 279q156 0 261 -122t105 -300q0 -190 -157.5 -463.5t-383.5 -468.5q-23 -20 -22 -22q0 -4 4 -4q31 0 199 174q238 248 643 780q117 154 228.5 274.5t137.5 120.5q6 0 6 -6q0 -2 -6 -10q-63 -84 -102 -170 q-43 -100 -133 -373q-98 -299 -180 -456.5t-209 -288.5q-2 -4 -4 -7q0 -4 4 -4q16 0 143 131q88 90 492 580q209 252 373.5 399.5t371.5 261.5q281 158 490 158h5q66 0 66 -28q0 -25 -31 -25h-14q-31 4 -78 4q-229 0 -555 -207q-186 -119 -312 -243.5t-433 -497.5 q-371 -449 -578 -602q-70 -51 -80 -51q-6 0 -6 4l29 30q127 129 262 502q121 334 191.5 486.5t150.5 254.5q18 25 19 27l-2 2q-4 0 -13 -10l-10 -10l-25 -31q-66 -82 -305 -397q-379 -512 -665 -738q-154 -121 -179 -120q-6 2 -6 6t13 14q197 178 376 537.5t179 572.5 q0 145 -71 231t-194 86q-260 0 -515 -289.5t-255 -582.5q0 -121 67 -196.5t173 -75.5q227 0 428 309q131 201 131 358q0 74 -37 119t-96 45q-35 0 -69.5 -17.5t-34.5 -35.5q0 -6 6 -6q4 0 10 2q25 4 33 4q45 0 45 -51q0 -31 -23.5 -53.5t-56.5 -22.5q-61 0 -62 67 q0 51 46.5 91.5t105.5 40.5q70 0 111 -49.5t41 -133.5q0 -188 -172 -424q-190 -260 -408 -260q-125 0 -207 96.5t-82 243.5z" />
<glyph unicode="X" horiz-adv-x="2056" d="M197 152q0 51 26.5 84.5t67.5 33.5q67 0 67 -63q0 -33 -20.5 -56.5t-46.5 -23.5q-43 0 -47 47q-2 23 -11 23q-14 0 -14 -43q0 -80 67.5 -132.5t172.5 -52.5q301 0 852 543q27 27 96 94l102 250q59 160 60 264q0 100 -58.5 158.5t-160.5 58.5q-266 0 -543 -237 q-287 -248 -287 -508q0 -100 69.5 -162.5t184.5 -62.5q242 0 465 251q160 180 160 332q0 61 -41 100.5t-105 39.5q-143 0 -308 -167t-165 -313q0 -40 26 -70q24 -28 56 -28h4q12 0 13 -4q0 -8 -15 -8q-55 0 -89 41t-34 110q0 158 167 306.5t343 148.5q74 0 120 -43t46 -113 q0 -197 -225 -407q-209 -195 -414 -195q-135 0 -216 78t-81 209q0 285 326 514q287 203 539 203q137 0 221 -81t84 -212q0 -121 -74 -307q10 8 223 221q176 174 349 274.5t300 100.5q90 0 149.5 -47t59.5 -121q0 -35 -19.5 -74t-35.5 -39q-10 0 -10 10q0 4 16 21 q31 31 31 80q0 59 -47 98t-119 39q-225 0 -584 -299q-147 -123 -313 -289l-14 -14l-9 -19l-10 -28q-139 -389 -139 -482q0 -207 190 -207q176 0 378 208t202 370q0 74 -45 118t-121 44q-82 0 -185.5 -60.5t-183.5 -156.5q-16 -18 -22 -19q-6 2 -6 6q0 12 49 60 q193 188 354 188q80 0 135.5 -58.5t55.5 -141.5q0 -190 -209 -383t-416 -193q-117 0 -194.5 82t-77.5 203q0 139 84 323q-20 -18 -82 -82q-262 -283 -461 -410.5t-375 -127.5q-121 0 -199.5 57t-78.5 148z" />
<glyph unicode="Y" horiz-adv-x="1906" d="M301 596q0 299 313 549q156 125 335 197.5t329 72.5q158 0 249 -88t91 -244q0 -123 -56.5 -239.5t-220.5 -329.5q-143 -184 -181 -249.5t-38 -129.5q0 -125 119 -125q111 0 265.5 136.5t408.5 457.5q262 332 526 508l13 8q8 4 10 4q10 0 10 -12q0 -2 -8 -8 q-174 -121 -316.5 -327t-318.5 -578q-150 -319 -407 -511t-529 -192q-135 0 -222 62.5t-87 160.5q0 57 35.5 99.5t87.5 42.5q65 0 65 -60q0 -35 -22.5 -59.5t-53.5 -24.5q-53 0 -53 50q0 8 3 18t3 16t-4 6q-14 0 -27.5 -28.5t-13.5 -59.5q0 -90 80 -148t203 -58 q166 0 316.5 91t244.5 212t285 465q66 121 157 264q-221 -266 -329 -367q-203 -188 -330 -188q-78 0 -126 57t-48 150q0 94 54 192t226 318q221 281 222 458q0 233 -283 234q-315 0 -631 -287q-131 -119 -218 -280.5t-87 -286.5q0 -119 69.5 -190.5t186.5 -71.5 q207 0 397 196q227 236 228 436q0 72 -40 115t-106 43q-145 0 -307 -180t-162 -344q0 -104 101 -105h4q10 0 10 -6q0 -8 -25 -8q-55 0 -90 46t-35 120q0 170 164 332t338 162q76 0 121 -47.5t45 -127.5q0 -180 -184 -397q-215 -254 -457 -254q-135 0 -217 91t-82 241z" />
<glyph unicode="Z" horiz-adv-x="1337" d="M203 -457q0 51 28.5 86t71.5 35q63 0 64 -65q0 -33 -21.5 -57.5t-50.5 -24.5q-23 0 -40 15t-15 34l2 14v4q0 4 -4 4q-16 0 -17 -49q0 -80 78 -133t195 -53q215 0 442 203.5t227 416.5q0 238 -282 260q-108 -38 -183 -38h-4q-31 0 -30 14q0 16 54 27.5t124 11.5h32 q145 66 262 167t287 314q98 125 158 191q-133 2 -194.5 66.5t-65.5 203.5q-6 172 -180 172q-250 0 -507 -263t-257 -519q0 -115 66.5 -183.5t177.5 -68.5q195 0 391 208.5t196 415.5q0 72 -37.5 116t-101.5 44q-131 0 -281.5 -180t-150.5 -336q0 -96 92 -109q12 0 12 -8 t-12 -8q-57 0 -98 50t-41 120q0 162 157.5 325.5t313.5 163.5q78 0 122 -48t44 -132q0 -217 -203 -430t-408 -213q-129 0 -207.5 88t-78.5 232q0 256 268 497q285 256 557 256q172 0 246 -114q25 -39 31 -64.5t22 -136.5q18 -131 133 -131h4q301 348 412 348q35 0 35 -33 q0 -53 -148 -184q-119 -106 -248 -143q-10 -16 -77 -144q-119 -229 -271.5 -352t-390.5 -180q168 -10 268.5 -88t100.5 -203q0 -238 -279 -436q-262 -186 -491 -187q-129 0 -214 60.5t-85 150.5zM1655 946q154 47 299 205q61 67 61 92q0 18 -20 19q-45 0 -142.5 -90.5 t-197.5 -225.5z" />
<glyph unicode="[" horiz-adv-x="1269" d="M-623 -481q0 8 11 8q8 0 12 -2q33 -8 68 -8q135 0 272 121q84 74 147 176q53 80 246 434l154 280h-107l8 15h107q127 217 283.5 375.5t240.5 158.5q45 0 45 -47q0 -88 -126 -223t-330 -264h120q109 0 109 -103q0 -63 -59 -161q180 264 268 264q41 0 68.5 -34t27.5 -85 q0 -57 -53 -145q190 264 285 264q45 0 73.5 -36t28.5 -91q0 -59 -49 -144q-45 -66 -88 -129q-47 -70 -47 -110q0 -41 41 -41q66 0 258 252l32 43l17 22q4 10 10 10t6 -6t-10 -16l-43 -59q-188 -260 -279 -261q-47 0 -76.5 35t-29.5 88q0 47 18.5 85t91.5 145q84 121 84 157 q0 41 -41 41q-131 0 -452 -542q-20 4 -55 4q-41 0 -70 -4l141 225q139 221 139 272q0 45 -36 45q-55 0 -180.5 -158.5t-247.5 -383.5q-23 4 -60 4q-39 0 -67 -4l143 225q147 231 147 283q0 35 -63 34h-113l-82 -159q-147 -289 -256.5 -442.5t-248.5 -268.5 q-193 -160 -359 -160q-74 0 -74 21zM414 563q166 113 302 259.5t136 209.5q0 33 -33 33q-76 0 -207 -174q-72 -96 -198 -328z" />
<glyph unicode="\" horiz-adv-x="727" d="M-623 -481q0 8 11 8q8 0 12 -2q33 -8 68 -8q135 0 272 121q84 74 147 174q51 82 246 436l154 280h-107l8 15h109q127 215 282.5 374.5t239.5 159.5q45 0 45 -47q0 -88 -128 -224t-328 -263h114q113 0 113 -101q0 -80 -76 -206q49 57 98 98q39 88 94.5 148.5t100.5 60.5 q31 0 31 -29q0 -45 -203 -176l-12 -10q-16 -41 -17 -76q0 -84 66 -84q76 0 168 129q20 23 24 22q6 -2 6 -6q0 -10 -59 -73q-80 -84 -141 -84q-76 0 -76 88q0 35 12 71q-66 -57 -101.5 -105t-139.5 -224q-53 4 -60 4q-6 0 -63 -4l164 266q121 197 120 246q0 31 -43 30h-131 l-82 -159q-147 -287 -257.5 -441.5t-247.5 -269.5q-193 -160 -359 -160q-74 0 -74 21zM414 563q162 109 300 257.5t138 211.5q0 33 -33 33q-78 0 -207 -174q-78 -104 -198 -328z" />
<glyph unicode="]" horiz-adv-x="956" d="M-623 -481q0 8 11 8q8 0 12 -2q33 -8 68 -8q137 0 272 121q84 74 149 176q51 84 244 434l154 280h-107l8 15h107q129 219 283.5 376.5t238.5 157.5q45 0 45 -47q0 -88 -127 -224t-329 -263h131q100 0 100 -107q0 -61 -76 -176q121 164 183.5 223.5t117.5 59.5 q43 0 73 -36t30 -89q0 -47 -19.5 -85t-118.5 -188q-49 -74 -49 -112q0 -41 41 -41q90 0 307 317q4 10 11 10q6 0 6 -6q0 -20 -146 -194q-119 -141 -186 -142q-45 0 -75.5 35t-30.5 86q0 47 18 84t98 155t80 150q0 41 -43 41q-68 0 -188.5 -145t-261.5 -397q-49 4 -60 4 q-35 0 -65 -4l155 247q137 219 137 256q0 39 -61 39h-117l-82 -159q-150 -291 -258 -443.5t-247 -267.5q-193 -160 -359 -160q-74 0 -74 21zM414 563q166 113 302 259.5t136 209.5q0 33 -33 33q-76 0 -207 -174q-72 -96 -198 -328z" />
<glyph unicode="^" horiz-adv-x="1024" d="M512 805l393 561h53l396 -561h-56l-368 530l-367 -530h-51z" />
<glyph unicode="_" horiz-adv-x="1024" d="M94 -170h1024v-43h-1024v43z" />
<glyph unicode="`" horiz-adv-x="1024" d="M762 866l86 60q-16 -49 -17 -97q0 -104 56 -178q8 -8 8 -12q-2 -4 -6 -4q-25 0 -65 73.5t-62 157.5z" />
<glyph unicode="a" horiz-adv-x="704" d="M104 137q0 193 271 340q119 66 192 66q61 0 62 -60q0 -18 -8 -45l51 97q31 -6 53 -7q27 0 70 7l-177 -293q-92 -154 -92 -203q0 -47 39 -47t127 91t180 226q4 10 11 10q6 0 6 -6q0 -20 -146 -194q-119 -141 -186 -142q-45 0 -74.5 34t-29.5 87t32 117 q-100 -139 -153 -188.5t-103 -49.5q-53 0 -89 45.5t-36 114.5zM178 57q0 -65 56 -65h2q70 0 239 229q139 188 139 258q0 49 -45 49q-92 0 -241.5 -180t-149.5 -291z" />
<glyph unicode="b" horiz-adv-x="538" d="M94 119q0 76 96 229l414 664q27 -8 58 -8q24 0 61 6l-449 -709q104 143 156.5 192.5t99.5 49.5q55 0 91 -45t36 -115q0 -152 -192 -297q-143 -109 -254 -109q-51 0 -84 39t-33 103zM147 45q0 -53 52 -53q90 0 237.5 180t147.5 289q0 67 -54 67h-2q-74 0 -249 -241 q-131 -180 -132 -242z" />
<glyph unicode="c" horiz-adv-x="495" d="M109 158q0 84 68.5 174t182.5 155q96 55 158 56q74 0 74 -88q0 -70 -46 -138.5t-93 -68.5q-45 0 -45 45q0 53 92 98q71 35 71 90q0 47 -49 47q-82 0 -203.5 -164.5t-121.5 -277.5q0 -94 88 -94q66 0 170 86t204 225q12 16 19 16q4 -2 4 -6q0 -14 -141 -168 q-154 -168 -262 -168q-70 0 -120 53.5t-50 127.5z" />
<glyph unicode="d" horiz-adv-x="704" d="M104 137q0 166 205 299q162 106 256 107q61 0 62 -60q0 -29 -17 -63l357 598q33 -10 65 -10q9 0 62 4q-375 -596 -473.5 -763t-98.5 -212t41 -45q90 0 309 317q4 10 11 10q6 0 6 -6q0 -4 -10 -16l-43 -59q-188 -260 -279 -261q-45 0 -74.5 35t-29.5 88t36 125 q-174 -248 -260 -248q-53 0 -89 45.5t-36 114.5zM178 59q0 -67 53 -67h2q80 0 275 278q104 150 104 205q0 53 -49 53q-90 0 -237.5 -180t-147.5 -289z" />
<glyph unicode="e" horiz-adv-x="503" d="M109 154q0 180 251 317q131 72 215 72q35 0 61 -21.5t26 -52.5q0 -72 -93.5 -122t-314.5 -95q-68 -102 -68 -172q0 -86 93 -86q158 0 387 309q12 16 20 16q4 -2 4 -6t-18 -26l-43 -54q-207 -256 -355 -256q-72 0 -118.5 50.5t-46.5 126.5zM262 266q143 37 243.5 105 t100.5 127q0 32 -33 32h-2q-53 0 -139 -73.5t-170 -190.5z" />
<glyph unicode="f" horiz-adv-x="272" d="M-623 -481q0 10 11 10q8 0 12 -2q35 -10 68 -10q135 0 272 121q84 74 147 174q51 80 246 436l154 280h-107l8 15h109q127 217 282.5 375.5t239.5 158.5q45 0 45 -47q0 -88 -126 -223t-330 -264h172l-9 -15h-174l-82 -159q-152 -295 -258 -444.5t-247 -266.5 q-193 -160 -359 -160q-74 0 -74 21zM416 563q164 113 300 259.5t136 209.5q0 33 -33 33q-76 0 -207 -174q-66 -88 -196 -328z" />
<glyph unicode="g" horiz-adv-x="686" d="M-285 -582q0 205 463 416q100 45 129 62l170 313q-111 -147 -157 -189.5t-93 -42.5q-53 0 -89 46.5t-36 111.5q0 172 226 314q152 94 237 94q59 0 60 -66q0 -18 -9 -43l56 101q29 -6 47 -7q27 0 76 7q-6 -8 -88 -150l-248 -428q131 74 210 143.5t177 198.5q16 20 20 20 q4 -2 4 -6q0 -16 -108 -137q-121 -133 -313 -239l-50 -91q-137 -252 -302 -385t-283 -133q-43 0 -71 25.5t-28 64.5zM-248.5 -636q23.5 -21 58.5 -21q111 0 215 112.5t260 403.5l12 20q-18 -10 -113 -57q-456 -225 -456 -405q0 -32 23.5 -53zM178 59q0 -67 56 -67h2 q59 0 200 178q178 225 178 307q0 51 -49 51q-90 0 -238.5 -180t-148.5 -289z" />
<glyph unicode="h" horiz-adv-x="641" d="M-12 -18l147 266q31 57 92 168q33 53 203 344l152 258q31 -6 51 -6q39 0 76 10q-102 -168 -310 -500q-6 -10 -155 -258q188 279 297 279q43 0 73.5 -37t30.5 -90q0 -68 -88 -199q-98 -145 -98 -182q0 -43 43 -43q78 0 258 252l31 43l18 22q4 10 12 10q4 0 4 -4 q0 -8 -10 -18l-43 -59q-188 -260 -280 -261q-47 0 -78 34t-31 87q0 70 76 183q119 176 119 208q0 39 -41 39q-59 0 -162 -115.5t-277 -430.5q-31 6 -51 6q-23 0 -59 -6z" />
<glyph unicode="i" horiz-adv-x="344" d="M78 94q0 57 69 176l156 265q31 -6 49 -7q27 0 76 7l-227 -373q-49 -80 -49 -125t47 -45q90 0 313 317q4 10 10 10t6 -6q0 -4 -10 -16l-43 -59q-188 -260 -287 -261q-47 0 -78.5 33t-31.5 84zM375 676q0 33 30.5 63.5t65.5 30.5q43 0 43 -43q0 -35 -29.5 -65.5 t-64.5 -30.5q-45 0 -45 45z" />
<glyph unicode="j" horiz-adv-x="309" d="M-659 -578q0 115 155 236q84 66 144 100q92 51 280 133l14 7l175 311q74 127 188 326q29 -6 47 -7q29 0 74 7q-80 -129 -242 -410l-92 -168q129 72 210 143.5t177 198.5q12 20 21 20q4 0 4 -4q0 -14 -113 -141t-309 -237l-51 -89q-154 -266 -306 -389 q-160 -131 -274 -131q-102 0 -102 94zM-645 -582q0 -33 24.5 -54t59.5 -21q104 0 209 116q86 98 266 400l12 20q-285 -145 -362 -198q-209 -143 -209 -263zM389 676q0 33 30 62.5t62 29.5q43 0 43 -43q0 -35 -29.5 -63.5t-64.5 -28.5q-41 0 -41 43z" />
<glyph unicode="k" horiz-adv-x="616" d="M-20 -18q23 39 51 88l116 202q25 45 78 136l367 614q41 -8 61 -8q21 0 64 8q-59 -98 -180 -295l-172 -278q-86 -139 -146 -252q-68 -125 -108 -195l-13 -20q-27 6 -53 6q-23 0 -65 -6zM301 319q0 16 33 17q33 0 59 -10q49 23 160 149q59 68 121 68q76 0 76 -72 q0 -47 -38 -95t-77 -48q-43 0 -43 39q0 37 65 77q27 16 27 48q0 25 -31 24q-43 0 -108 -76q-82 -96 -135 -118q104 -47 104 -111q0 -35 -49 -135q-20 -41 -21 -58q0 -27 33 -26q94 0 307 317q6 10 13 10q6 0 6 -6q0 -4 -10 -16l-43 -59q-188 -260 -285 -261q-43 0 -76 29 t-33 66q0 33 56 143q20 41 20 59q0 23 -33 41q-39 -16 -63 -16q-35 0 -35 20z" />
<glyph unicode="l" horiz-adv-x="327" d="M84 92q0 55 25.5 106.5t173.5 297.5q182 301 305 522q31 -8 53 -8q37 0 70 12q-420 -698 -489.5 -821t-69.5 -164q0 -45 38 -45q84 0 308 317q4 10 12 10q4 -2 4 -6q0 -6 -10 -16l-43 -59q-188 -260 -279 -261q-43 0 -70.5 32t-27.5 83z" />
<glyph unicode="m" horiz-adv-x="1114" d="M125 -14l143 225q147 231 148 287q0 31 -23 30q-49 0 -203 -215q-10 -14 -16 -14q-4 2 -4 6q0 10 91 124t140 114q33 0 55.5 -31t22.5 -72q0 -57 -59 -161q180 264 268 264q41 0 68.5 -34t27.5 -85q0 -57 -53 -145q190 264 285 264q43 0 72.5 -37t29.5 -90 q0 -47 -22.5 -93.5t-112.5 -179.5q-49 -74 -49 -110q0 -41 41 -41q78 0 258 252l31 43l18 22q4 10 10 10t6 -6q0 -4 -10 -16l-43 -59q-188 -260 -278 -261q-47 0 -77 35t-30 90q0 45 18.5 83t92.5 145q84 121 84 157q0 41 -41 41q-131 0 -453 -542q-20 4 -55 4q-41 0 -70 -4 l142 225q139 221 139 272q0 45 -37 45q-55 0 -180 -158.5t-248 -383.5q-23 4 -59 4q-39 0 -68 -4z" />
<glyph unicode="n" horiz-adv-x="800" d="M127 -14l156 247q133 211 133 265q0 31 -25 30q-51 0 -201 -215q-10 -12 -14 -14q-6 0 -6 6q0 4 4 8l19 25q154 205 206 205q33 0 57.5 -31t24.5 -74q0 -63 -75 -178q119 162 182 222.5t117 60.5q45 0 74.5 -36t29.5 -89q0 -66 -93 -206t-93 -179q0 -41 41 -41 q90 0 307 317q4 10 10 10t6 -6q0 -20 -145 -194q-119 -141 -187 -142q-45 0 -75.5 35t-30.5 86q0 45 18.5 83t98 156t79.5 150q0 41 -43 41q-145 0 -450 -542q-49 4 -59 4q-35 0 -66 -4z" />
<glyph unicode="o" horiz-adv-x="593" d="M109 145q0 154 202 297q141 100 234 101q86 0 86 -92q0 -115 -121 -277q20 -12 45 -12q45 0 104.5 42t98.5 101q12 14 16 14t4 -4q0 -16 -59 -75q-88 -88 -162 -88q-31 0 -55 12q-131 -186 -248 -187q-59 0 -102 49.5t-43 118.5zM190 63q0 -69 64 -69h2q109 0 236 178 q-29 31 -29 66q0 49 39 101t76 52q16 0 22 -20q16 35 16 78q0 81 -71 81h-2q-90 0 -221.5 -174t-131.5 -293z" />
<glyph unicode="p" horiz-adv-x="542" d="M-358 -557l821 1350q27 -8 53 -9q27 0 66 9l-297 -480q106 141 155 185.5t97 44.5q53 0 89 -46t36 -114q0 -164 -203 -297q-164 -109 -258 -109q-63 0 -64 60q0 18 10 49l-383 -639q-35 8 -57 8q-33 0 -65 -12zM152 43q0 -51 47 -51q92 0 240.5 179t148.5 292 q0 65 -56 65h-2q-74 0 -245 -235q-133 -182 -133 -250z" />
<glyph unicode="q" horiz-adv-x="591" d="M10 -545l469 752q-4 -6 -39 -51q-133 -178 -215 -179q-51 0 -87 46.5t-36 113.5q0 160 205 297q164 109 258 109q61 0 62 -60q0 -20 -15 -57l60 109q18 -4 47 -5q23 1 72 7q-94 -160 -322 -531q-121 -203 -281 -469q-16 -27 -51 -82q-33 8 -63 8q-33 0 -64 -8zM178 57 q0 -65 56 -65h2q70 0 237 225q139 188 139 262q0 49 -45 49q-90 0 -239.5 -180t-149.5 -291z" />
<glyph unicode="r" horiz-adv-x="569" d="M127 -14l164 266q123 201 123 248q0 29 -23 28q-55 0 -203 -215q-10 -14 -16 -14q-4 2 -4 6t4 8l18 25q154 205 209 205q80 0 80 -103q0 -78 -82 -204q51 59 99 98q39 88 95 148.5t101 60.5q31 0 31 -27q0 -47 -139 -137q-20 -14 -66 -41l-12 -10q-14 -45 -14 -76 q0 -84 63 -84q78 0 170 129q20 23 25 22q6 0 6 -6q0 -8 -60 -73q-76 -84 -143 -84q-76 0 -76 88q0 29 12 71q-63 -55 -102 -109t-137 -220q-53 4 -62 4q-4 0 -61 -4z" />
<glyph unicode="s" horiz-adv-x="399" d="M29 119q0 76 53 146.5t111 70.5q10 0 18 -4l80 98q37 43 96 119q16 70 52 120t69 50q16 -1 16 -17q0 -41 -125 -159q-6 -31 -6 -54q0 -59 53 -184q27 -63 27 -106q0 -90 -88 -156t-207 -66q-68 0 -108.5 39t-40.5 103zM49 94q0 -41 28.5 -67.5t72.5 -26.5q84 0 159.5 97 t75.5 210q0 29 -2 58.5t-2 85.5q0 45 4 75q-55 -72 -162 -200q18 -16 19 -39q0 -59 -97 -80q-39 -8 -67.5 -42t-28.5 -71z" />
<glyph unicode="t" horiz-adv-x="337" d="M78 96q0 59 53 150l168 282h-102l10 15h100l117 194q31 -8 57 -8q27 0 58 8l-115 -194h131l-8 -15h-131l-223 -381q-41 -70 -41 -110q0 -45 47 -45q92 0 307 317q6 10 12 10t6 -6q0 -4 -10 -16l-43 -59q-188 -260 -283 -261q-47 0 -78.5 34t-31.5 85z" />
<glyph unicode="u" horiz-adv-x="641" d="M78 96q0 57 45 133l182 306q35 -6 53 -7q18 0 68 7l-238 -392q-36 -59 -36 -104q0 -47 38 -47q100 0 324 377l98 166q31 -6 52 -7q27 0 71 7l-160 -261q-114 -184 -114 -238q0 -44 41 -44q80 0 260 252l31 43l18 22q4 10 10 10t6 -6q0 -23 -145 -194q-121 -141 -190 -142 q-43 0 -74 35t-31 86q0 39 39 109l-20 -27q-92 -119 -134 -157q-49 -45 -90 -46q-45 0 -74.5 34t-29.5 85z" />
<glyph unicode="v" horiz-adv-x="559" d="M78 98q0 59 67 172l158 265q49 -4 66 -5q37 0 59 5l-209 -338q-70 -115 -69 -158q0 -47 53 -47q49 0 100 45t148 170q-8 31 -9 53q0 90 55.5 186.5t108.5 96.5q25 0 25 -29q0 -74 -166 -309q20 -45 65 -45q76 0 185 135q20 25 26 24q4 0 4 -4q0 -12 -63 -77 q-86 -90 -152 -91q-45 0 -73 48q-88 -123 -144.5 -170.5t-113.5 -47.5q-51 0 -86 35t-35 86z" />
<glyph unicode="w" horiz-adv-x="868" d="M78 96q0 57 59 158l166 281q41 -6 59 -7q16 0 66 7l-227 -371q-53 -86 -54 -127q0 -45 41 -45q45 0 134.5 100.5t177.5 249.5l112 193q53 -4 68 -5q35 0 57 5l-209 -338q-70 -113 -69 -156q0 -49 51 -49q102 0 248 215q-6 37 -6 55q0 90 56 185.5t107 95.5q23 0 23 -31 q0 -84 -164 -307q25 -45 66 -45q76 0 184 135q20 25 27 24q4 0 4 -4q0 -12 -64 -77q-86 -90 -151 -91q-43 0 -74 48q-88 -123 -144.5 -170.5t-113.5 -47.5q-51 0 -85 34t-34 85q0 41 27 101q-150 -219 -236 -220q-43 0 -72.5 35t-29.5 84z" />
<glyph unicode="x" horiz-adv-x="712" d="M94 61q0 51 37 95.5t80 44.5q53 0 53 -51q0 -57 -82 -80q-45 -12 -45 -45q0 -31 37 -31q74 0 170 135q152 213 152 338q0 61 -56 61q-94 0 -243 -206q-16 -23 -23 -23q-4 2 -4 6q0 18 99.5 128t176.5 110q59 0 98.5 -41t39.5 -103q0 -31 -15 -67q137 211 238 211 q76 0 76 -82q0 -49 -33 -91t-72 -42q-49 0 -49 51q0 49 72 70q45 14 45 47t-41 32q-84 0 -206 -171t-122 -289q0 -76 72 -76q104 0 321 305q16 23 21 22q6 0 6 -6l-4 -8l-12 -16q-131 -174 -204 -243t-134 -69q-59 0 -104.5 46.5t-45.5 107.5q0 27 15 76 q-135 -229 -238 -230q-33 0 -54.5 25t-21.5 59z" />
<glyph unicode="y" horiz-adv-x="630" d="M-344 -582q0 201 463 416q39 18 114 53l15 9l176 313q-104 -143 -151.5 -187.5t-94.5 -44.5q-41 0 -71.5 35t-30.5 82q0 57 71 178l154 260q23 -4 53 -4q27 0 72 7l-197 -320q-84 -137 -84 -178q0 -45 41 -45q109 0 332 383l92 157q23 -4 56 -4q29 0 67 7 q-125 -197 -336 -578q121 63 205 137t189 207q14 18 18 18q6 0 6 -6q0 -16 -110 -137q-121 -133 -318 -242l-49 -88q-145 -260 -303 -387q-164 -131 -283 -131q-41 0 -68.5 25.5t-27.5 64.5zM-330 -584q0 -75 82 -75h2q106 0 211 115.5t260 402.5q1 0 13 20q-16 -8 -113 -57 q-455 -225 -455 -406z" />
<glyph unicode="z" horiz-adv-x="571" d="M-369 -567q0 111 160 231q84 63 430 215q68 31 127 64q16 45 17 84q0 75 -78 75h-2q-23 0 -35 -2l-14 -12l-37 -35q-94 -88 -121 -88q-25 0 -25 23q0 63 185 121q279 211 426 329l-21 -14q-55 -39 -102 -39q-33 0 -82 41t-80 41q-61 0 -186 -156q-12 -12 -17 -12 q-4 2 -4 6q0 16 92 115q111 119 189 119q31 0 133 -66q34 -22 61 -22h2q14 0 31 8l12 16l33 41q23 29 45 29q16 -1 16 -13q0 -33 -92 -86q-102 -86 -346 -270q-31 -23 -84 -63l29 2h9q41 0 76 -32q38 -36 48 -93q57 33 158.5 134t150.5 177q12 18 19 18q4 0 4 -4 q0 -20 -110.5 -143t-219.5 -199v-26q0 -111 -79 -237t-195 -204q-254 -168 -406 -168q-117 0 -117 95zM-356 -571q0 -78 102 -78q143 0 329.5 180t266.5 395q-25 -14 -285 -135q-193 -88 -303 -185.5t-110 -176.5z" />
<glyph unicode="{" horiz-adv-x="899" d="M344 -49q0 57 38 141t155 283q82 139 81 178q0 57 -83 57q-14 0 -15 8q0 10 37 17q129 18 190.5 90t149.5 301q63 166 130 248t169 128t217 46q39 0 39 -10q0 -12 -37 -15q-164 -12 -242.5 -102t-168.5 -365q-94 -289 -439 -333q4 0 21 -2q139 -10 139 -89 q0 -76 -133 -305q-127 -219 -127 -280q0 -76 133 -74q59 0 59 -6q0 -18 -51 -19q-133 0 -162 7q-100 18 -100 96z" />
<glyph unicode="|" horiz-adv-x="1024" d="M819 -342v1708h39v-1708h-39z" />
<glyph unicode="}" horiz-adv-x="899" d="M-53 -139q0 12 63 12q135 -2 210 67.5t173 284.5q113 248 189.5 317.5t242.5 80.5q-180 29 -180 139q0 61 90 194q137 203 169 261.5t32 103.5q0 104 -131 102q-25 0 -25 9q0 16 51 16q211 0 211 -139q0 -49 -29.5 -107.5t-181.5 -300.5q-86 -137 -86 -184 q0 -35 31 -59.5t72 -22.5q23 0 22 -10q0 -10 -26 -15q-100 -14 -143.5 -55t-104.5 -178q-102 -227 -141 -293q-104 -174 -232 -215q-66 -20 -243 -21q-33 0 -33 13z" />
<glyph unicode="~" horiz-adv-x="1366" d="M664 1257q113 190 254 191q80 0 243 -90q150 -82 219 -82q119 0 224 174l32 -20q-111 -190 -254 -191q-76 0 -282 111q-115 61 -187 61q-115 0 -215 -176z" />
<glyph unicode="&#xa1;" horiz-adv-x="587" d="M178 47q0 31 37 89.5t193 273.5q248 340 331 508q6 12 15 12q8 0 8 -8q0 -4 -12 -23q-94 -137 -330 -676q-57 -133 -97 -184t-85 -51q-59 0 -60 59zM758 1030q0 45 41 86t84 41t43 -45q0 -41 -43 -82t-86 -41q-39 0 -39 41z" />
<glyph unicode="&#xa2;" d="M434 -84q0 8 10 21l174 290q-111 47 -110 160q0 125 135 246t289 135l133 227q10 18 18 19q11 0 11 -8t-7 -19l-135 -221q86 -16 86 -92q0 -70 -62.5 -124t-141.5 -54q-78 0 -78 71q0 33 14 33q4 -2 4 -6l-2 -6l-2 -19q0 -53 51 -53q53 0 114.5 66.5t61.5 124.5 q0 47 -53 47q-94 0 -225 -160t-131 -275q0 -86 84 -86q131 0 264 201q6 10 10 12q8 0 8 -8q0 -10 -36.5 -58t-69.5 -79q-88 -82 -180 -82q-16 0 -33 4l-176 -305q-8 -12 -15 -12q-10 0 -10 10z" />
<glyph unicode="&#xa3;" horiz-adv-x="1265" d="M365 391q0 227 268 389q111 68 330 138q43 14 133 45q86 135 202.5 238.5t182.5 103.5q37 0 37 -33q0 -47 -117 -141.5t-285 -182.5q-51 -106 -80 -192q47 8 84 8q137 0 226.5 -87t89.5 -222q0 -147 -96.5 -266t-260.5 -179q102 -125 252 -125q47 0 91 15.5t44 31.5 q-2 4 -6 5l-10 -3q-12 -6 -27 -6q-47 0 -47 52q0 33 23.5 56t56.5 23q64 1 64 -65q0 -55 -51.5 -90t-133.5 -35q-168 0 -278 133q-104 -27 -189 -27q-207 0 -355 123t-148 293zM451 315q0 -131 116.5 -224t278.5 -93q92 0 186 39q-23 33 -49 94q-49 -4 -51 -4 q-115 0 -196 70.5t-81 171.5q0 127 94.5 230t249.5 149q37 100 84 186q-2 0 -237 -125q-137 -72 -221 -152q-174 -166 -174 -342zM705 360q0 -94 64.5 -154.5t164.5 -60.5q23 0 43 5q-43 123 -43 245q0 144 57 330q-123 -47 -204.5 -150.5t-81.5 -214.5zM969 373 q0 -113 35 -217q86 23 150.5 86t64.5 123q0 29 22 28q20 0 21 -22q0 -57 -81 -132t-171 -102q25 -59 45 -90q147 68 245.5 190.5t98.5 241.5q0 117 -79 193t-200 76q-43 0 -90 -13q-61 -186 -61 -362zM1130 979q125 57 247 154.5t122 138.5q0 16 -16 16q-55 0 -171 -101.5 t-182 -207.5z" />
<glyph unicode="&#xa4;" horiz-adv-x="1040" d="M391 154l189 188q-92 88 -93 221q0 129 93 221l-189 189l19 18l188 -186q94 82 223 82q115 0 219 -82l187 186l20 -18l-188 -189q90 -90 90 -223t-90 -219l188 -188l-20 -21l-187 189q-102 -82 -219 -82q-121 0 -223 82l-188 -189zM526 563q0 -121 86 -205t211 -84 t206 82t81 207q0 127 -82 209t-209 82q-121 0 -207 -85t-86 -206z" />
<glyph unicode="&#xa5;" d="M418 -41l272 481h-235l10 19h235q25 47 64 112h-272l10 19h272q162 297 162 375q0 84 -129 84t-231.5 -80t-102.5 -181q0 -88 105 -88q47 0 101 31t87 76q2 6 8 6q4 -2 4 -6q0 -6 -37 -43q-78 -76 -168 -76q-57 0 -94 32t-37 83q0 96 112 177t247 81q174 0 174 -148 q0 -129 -109 -364l-12 -27q367 547 604 547q17 0 17 -10q0 -12 -45 -15q-197 -8 -506 -454h264l-12 -19h-265q-31 -45 -75 -112h315l-12 -19h-316q-96 -152 -268 -481q-39 12 -68 12q-33 0 -69 -12z" />
<glyph unicode="&#xa6;" horiz-adv-x="1024" d="M819 313h39v-655h-39v655zM819 711v655h39v-655h-39z" />
<glyph unicode="&#xa7;" d="M238 -14q0 10 10 10q8 0 59 -37q90 -63 193 -63q106 0 190 79.5t84 182.5q0 59 -22 147q-78 301 -78 443q0 244 128 405.5t322 161.5q70 0 162 -37t92 -66q0 -8 -8 -8t-33 19q-86 63 -176 63q-106 0 -179 -68.5t-73 -170.5q0 -57 66 -308q39 -150 39 -295 q0 -238 -142.5 -406.5t-343.5 -168.5q-84 0 -187 42t-103 75zM653 -80q274 104 275 445q0 104 -42 302.5t-42 299.5q-1 217 198 313q-283 -98 -282 -432q0 -125 49 -367q33 -162 33 -248q0 -190 -189 -313z" />
<glyph unicode="&#xa8;" horiz-adv-x="1024" d="M717 688q0 35 29.5 62.5t64.5 27.5q43 0 43 -41q0 -37 -27.5 -66.5t-60.5 -29.5q-49 0 -49 47zM887 686q0 35 29.5 63.5t64.5 28.5q43 0 43 -41q0 -37 -27.5 -66.5t-60.5 -29.5q-49 0 -49 45z" />
<glyph unicode="&#xa9;" horiz-adv-x="1572" d="M410 578q0 309 228 534t540 225q264 0 446 -184.5t182 -450.5q0 -307 -226 -533t-531 -226q-270 0 -454.5 183t-184.5 452zM436 582q0 -260 177.5 -437.5t437.5 -177.5q293 0 511 218t218 513q0 264 -177.5 439.5t-445.5 175.5q-287 0 -504 -220.5t-217 -510.5zM686 502 q0 117 85 235.5t226 196.5q199 111 363 110q74 0 119 -39.5t45 -107.5q0 -100 -84 -181t-191 -81q-45 0 -77.5 21.5t-32.5 52.5q0 10 6 10q4 -2 4 -6q6 -51 63 -51q94 0 184.5 90t90.5 182t-103 92q-152 0 -364 -168q-119 -92 -186.5 -206.5t-67.5 -219.5q0 -186 205 -186 q203 0 393 276q20 29 27 29q6 0 6 -6q0 -33 -109 -148q-160 -170 -319 -170q-117 0 -200 81t-83 194z" />
<glyph unicode="&#xaa;" horiz-adv-x="595" d="M-623 -481q0 10 11 10q8 0 12 -2q35 -10 68 -10q135 0 272 121q84 74 147 174q51 80 246 436l154 280h-107l8 15h109q127 217 282.5 375.5t239.5 158.5q45 0 45 -47q0 -88 -126 -223t-330 -264h213q119 207 278.5 370.5t243.5 163.5q45 0 45 -47q0 -88 -127 -223 t-330 -264h172l-6 -15h-174l-84 -159q-156 -297 -261.5 -446.5t-242.5 -264.5q-190 -160 -360 -160q-74 0 -74 21q0 10 10 10q8 0 13 -2q39 -10 67 -10q135 0 272 121q86 76 148 172q47 78 246 438l153 280h-213l-82 -159q-152 -295 -258 -444.5t-247 -266.5 q-193 -160 -359 -160q-74 0 -74 21zM416 563q164 113 300 259.5t136 209.5q0 33 -33 33q-76 0 -207 -174q-66 -88 -196 -328zM739 563q160 109 298.5 257.5t138.5 211.5q0 33 -33 33q-76 0 -207 -174q-82 -109 -197 -328z" />
<glyph unicode="&#xab;" horiz-adv-x="917" d="M29 119q0 76 53 146.5t111 70.5q10 0 18 -4q27 33 80 98q70 82 96 119q14 70 50 120t71 50q16 0 16 -17q0 -37 -125 -159q-6 -31 -6 -54q0 -59 53 -184q27 -61 27 -104q0 -135 -162 -197q25 -12 45 -12q76 0 195 145q16 84 62 140.5t102 56.5q8 0 16 -2q96 113 176 217 q41 170 119 170q16 -1 16 -17q0 -33 -122 -161q-6 -16 -7 -41q0 -47 8.5 -75t55.5 -140q18 -45 18 -92q0 -84 -88 -150t-202 -66q-66 0 -110 35t-44 86v21q-113 -141 -193 -142q-39 0 -65 21q-72 -20 -111 -21q-154 0 -153 142zM49 94q0 -39 28.5 -65.5t72.5 -26.5 q86 0 160.5 97t74.5 208q0 25 -2 72t-2 72q0 18 4 75q-92 -117 -162 -200q18 -12 19 -37q0 -61 -97 -82q-39 -8 -67.5 -41t-28.5 -72zM569 94q0 -37 30 -64.5t71 -27.5q86 0 161.5 96t75.5 207q0 12 -4 73.5t-4 72.5q0 25 6 73q-37 -43 -82 -100q-51 -66 -80 -98 q18 -14 19 -39q0 -55 -90 -80q-102 -27 -103 -113z" />
<glyph unicode="&#xac;" horiz-adv-x="1071" d="M371 510v37h886v-547h-38v510h-848z" />
<glyph unicode="&#xad;" horiz-adv-x="733" d="M274 213q0 12 78 39t113 27q20 0 86 -15q55 -12 80 -12q47 0 88 20q6 4 10 4t4 -4q0 -12 -82 -37.5t-125 -25.5q-41 0 -84 10q-51 12 -77 12q-41 0 -80 -20q-2 -2 -6 -2t-5 4z" />
<glyph unicode="&#xae;" horiz-adv-x="1572" d="M410 578q0 309 228 534t540 225q264 0 446 -184.5t182 -450.5q0 -307 -226 -533t-531 -226q-270 0 -454.5 183t-184.5 452zM436 582q0 -260 177.5 -437.5t437.5 -177.5q293 0 511 218t218 513q0 264 -177.5 439.5t-445.5 175.5q-287 0 -504 -220.5t-217 -510.5zM571 377 q0 39 23.5 65.5t56.5 26.5q51 0 51 -55q0 -57 -51 -58q-47 0 -47 41q0 10 8 33q2 2 2 6t-4 4q-8 0 -18 -21.5t-10 -41.5q0 -53 50 -93t120 -40q84 0 155 86q41 51 152 295q100 221 332 370q-88 68 -207 68q-174 0 -321.5 -118t-147.5 -255q0 -117 135 -117q23 0 62.5 11.5 t45.5 11.5t7 -4q0 -8 -41 -18.5t-78 -10.5q-70 0 -114 39t-44 103q0 152 141.5 263t331.5 111q133 0 256 -65q119 59 162 59q14 0 14 -6q0 -4 -28 -8q-51 -6 -135 -53q106 -68 106 -172q0 -143 -207 -172q86 -45 86 -132q0 -31 -20 -114q-23 -92 -23 -119q0 -78 74 -78 q53 0 90 47q8 8 10 8q4 0 4 -6q-2 -16 -41 -37.5t-67 -21.5q-55 0 -95 50t-40 118q0 43 28 131q20 63 21 96q0 33 -37 53q-49 -4 -66 -4q-47 0 -47 13q0 10 35 10q41 0 78 -12q147 45 147 196q0 78 -63 125q-160 -119 -242 -350q-88 -248 -213 -336q-96 -68 -194 -68 q-76 0 -129.5 43t-53.5 103z" />
<glyph unicode="&#xaf;" horiz-adv-x="1024" d="M584 694l6 19h452l-6 -19h-452z" />
<glyph unicode="&#xb0;" d="M823 1096q0 74 53.5 125t129.5 51q74 0 126 -52t52 -124t-53.5 -124t-126.5 -52q-74 0 -127.5 52t-53.5 124zM856 1096q0 -61 43 -104.5t105 -43.5q59 0 103 44.5t44 103.5q0 61 -43 104t-107 43q-59 0 -102 -44t-43 -103z" />
<glyph unicode="&#xb1;" horiz-adv-x="1599" d="M455 680q0 289 200.5 487.5t491.5 198.5q276 0 475 -201.5t199 -482.5q0 -285 -200 -483.5t-484 -198.5q-283 0 -482.5 198.5t-199.5 481.5z" />
<glyph unicode="&#xb2;" horiz-adv-x="651" d="M371 520q0 27 49 78q66 68 256 154q150 68 237.5 158.5t87.5 179.5q0 80 -102 79q-109 0 -232.5 -106.5t-123.5 -198.5q0 -63 80 -63q66 0 144.5 60.5t111.5 135.5q2 8 8 9q6 0 6 -7q0 -29 -53 -88q-111 -123 -215 -123q-106 0 -107 103q0 106 122 198.5t261 92.5 q74 0 121 -38t47 -97q0 -109 -131 -195q-66 -43 -256 -117q-164 -63 -254 -145q43 33 102 33q43 0 101 -17l98 -28q20 -6 43 -7q117 0 156 142q2 10 8 10t6 -6q0 -33 -43 -92q-78 -106 -190 -107q-43 0 -183 45q-37 12 -67 12q-63 0 -70 -47q0 -16 -10 -16q-8 0 -8 8z" />
<glyph unicode="&#xb3;" horiz-adv-x="651" d="M385 645q0 55 55.5 93t134.5 38q59 0 60 -10q0 -6 -8 -6l-17 2h-20q-70 0 -116 -35t-46 -88q0 -45 36 -71.5t93 -26.5q109 0 202 76.5t93 166.5q0 74 -92 101q-39 -8 -86 -8h-12q-23 0 -23 10q0 14 47 14q35 0 74 -6q199 70 198 209q0 74 -94 74q-84 0 -169 -56.5 t-85 -113.5q0 -51 68 -52q92 0 176 111q4 6 10 6q4 0 4 -4q0 -25 -67.5 -76t-126.5 -51q-84 0 -84 78q0 66 83 118t189 52q74 0 119 -32t45 -83q0 -141 -244 -186q141 -33 142 -146q0 -86 -102.5 -151.5t-239.5 -65.5q-84 0 -140.5 34t-56.5 85z" />
<glyph unicode="&#xb4;" horiz-adv-x="1024" d="M774 657q0 2 12 9q233 113 334 241l41 -63q-96 -76 -248 -139q-117 -49 -133 -50q-4 0 -6 2z" />
<glyph unicode="&#xb6;" horiz-adv-x="1693" d="M233 254q0 57 34 148.5t57 91.5q6 -2 6 -9q0 -4 -8 -16q-70 -113 -70 -215q0 -127 87 -203t232 -76q186 0 336 113t316 379q188 303 309 455.5t264 269.5q-115 53 -217 53q-190 0 -321.5 -132t-131.5 -325q0 -190 99 -190q25 0 45 14q0 2 2 2q4 0 4 -4q0 -12 -40 -24.5 t-79 -12.5q-133 0 -229.5 89.5t-96.5 209.5q0 170 191.5 288t468.5 118q174 0 321 -74q186 131 359 131q129 0 211 -80.5t82 -207.5q0 -57 -10.5 -107.5t-20.5 -50.5q-6 2 -6 8q0 18 9 67.5t9 77.5q0 123 -75.5 199t-200.5 76q-199 0 -387 -166q-106 -94 -183 -216 t-223.5 -428t-433.5 -448q-203 -100 -367 -100q-158 0 -250 80t-92 215z" />
<glyph unicode="&#xb7;" horiz-adv-x="473" d="M301 186q0 45 42 88t87 43q49 0 49 -47q0 -49 -40 -90t-89 -41t-49 47z" />
<glyph unicode="&#xb8;" horiz-adv-x="1024" d="M281 -84q0 6 6 6t16 -8q57 -39 111 -39q29 0 50 18.5t21 40.5q0 31 -41 78l17 -4q84 -59 84 -108q0 -74 -86 -74q-39 0 -108.5 35t-69.5 55z" />
<glyph unicode="&#xb9;" horiz-adv-x="651" d="M539 743q0 6 26 19q152 76 447 393q6 8 10 8q4 -2 4 -6q0 -6 -137 -215q-182 -279 -217 -410q-27 6 -45 7q-27 0 -70 -9q43 119 258 373q90 106 146 182q-139 -145 -259 -246.5t-155 -101.5q-6 0 -8 6z" />
<glyph unicode="&#xba;" horiz-adv-x="638" d="M-623 -481q0 8 11 8q8 0 12 -2q33 -8 68 -8q135 0 272 121q84 74 147 174q51 82 246 436l154 280h-107l8 15h109q127 217 282.5 375.5t239.5 158.5q45 0 45 -47q0 -88 -126 -223t-330 -264h200l117 194q31 -8 57 -8q27 0 58 8l-115 -194h131l-8 -15h-131l-223 -381 q-41 -70 -41 -110q0 -45 47 -45q80 0 260 252l31 43l18 22q4 10 10 10t6 -6q0 -4 -10 -16l-43 -59q-188 -260 -280 -261q-49 0 -81 34t-32 85q0 59 53 150l168 282h-203l-82 -159q-147 -289 -256.5 -441.5t-248.5 -269.5q-193 -160 -359 -160q-74 0 -74 21zM416 563 q164 113 300 259.5t136 209.5q0 33 -33 33q-76 0 -207 -174q-66 -88 -196 -328z" />
<glyph unicode="&#xbb;" horiz-adv-x="1062" d="M78 102q0 66 53 154l231 379q-166 -4 -221 -21h-6q-6 0 -6 4q0 31 242 31l127 207q29 -6 47 -6q39 0 73 12l-131 -219l45 -2q80 -4 162 -14q166 254 287 368q219 207 426 207q121 0 194.5 -61.5t73.5 -163.5q0 -162 -196.5 -273.5t-481.5 -111.5q-121 0 -211 12 q-27 -55 -196 -330q193 279 297 279q45 0 74.5 -36t29.5 -89q0 -66 -88 -199q-98 -147 -98 -184q0 -41 39 -41q47 0 135 98q102 115 172 222q10 14 14 14q6 0 6 -6t-106 -146q-150 -197 -229 -196q-45 0 -76 33.5t-31 87.5q0 70 76 180q119 174 119 207q0 41 -39 41 q-141 0 -453 -547q-31 8 -59 8q-23 0 -58 -8l197 332q-229 -334 -330 -334q-41 0 -72.5 33.5t-31.5 78.5zM150 49q0 -45 40 -45q117 0 496 612q-20 4 -207 15l-286 -471q-43 -70 -43 -111zM795 616q133 -10 196 -10q340 0 533 166q125 108 125 229q0 84 -65.5 135.5 t-174.5 51.5q-145 0 -260 -92t-252 -316q-23 -37 -102 -164z" />
<glyph unicode="&#xbc;" horiz-adv-x="1333" d="M346 -74q193 229 563 637q334 365 504 576l8 10q2 6 9 6q2 0 2 -4q0 -8 -132 -150q-139 -152 -428.5 -523.5t-414.5 -559.5q-27 12 -60 12q-29 0 -51 -4zM551 530q57 121 301 373q88 92 170 182q-154 -143 -289 -245.5t-170 -102.5q-6 2 -6 6t31 19q160 72 491 391 q8 8 13 8q4 0 4 -4q0 -2 -2 -6l-7 -8q-78 -104 -155 -203q-217 -274 -266 -408q-20 4 -45 5q-20 0 -70 -7zM670 150q0 23 125 49q135 70 352 264q285 256 446 256q66 -1 66 -21q0 -8 -8 -8q-2 0 -21.5 5t-38.5 5q-158 0 -436 -249q-209 -188 -324 -248q68 16 164 16 q35 0 74 -6q43 57 168 201q90 104 143 178q2 8 11 8q4 0 4 -4q0 -2 -2 -6l-29 -43q-86 -129 -221 -338h51q74 0 119 28.5t45 73.5q0 6 -4 27q-2 2 -2 6q2 6 6 6q12 0 12 -35q0 -135 -246 -135q-70 -121 -86 -182q-33 6 -51 6q-12 0 -65 -6q45 88 122 182q-135 12 -165 13 q-27 0 -76 -5q-74 -47 -123 -47q-10 0 -10 9z" />
<glyph unicode="&#xbd;" horiz-adv-x="1333" d="M299 -74q193 229 563 637q334 365 504 576l8 10q2 6 8 6q2 0 2 -4q0 -8 -131 -150q-139 -152 -428.5 -523.5t-414.5 -559.5q-27 12 -60 12q-29 0 -51 -4zM520 743q0 6 27 19q145 70 444 391q6 8 10 8q5 -2 5 -6q0 -6 -138 -215q-178 -270 -215 -408q-20 4 -45 5 q-20 0 -69 -7q41 117 258 373q88 104 145 182q-135 -143 -258 -245.5t-158 -102.5q-6 2 -6 6zM766 -16q0 29 49 77q70 70 254 154q150 68 237 159t87 179q0 80 -101 80q-106 0 -230 -106.5t-124 -198.5q0 -63 80 -64q66 0 144.5 60.5t111.5 136.5q2 8 8 8t6 -6 q0 -27 -53 -88q-109 -123 -215 -123t-107 104q0 104 122 196.5t261 92.5q72 0 119 -38t47 -97q0 -106 -131 -195q-61 -41 -256 -116q-166 -63 -252 -146q45 31 101 31q59 0 137 -27q72 -25 106 -24q117 0 156 143q2 10 8 10t6 -6q0 -33 -43 -94q-76 -106 -190 -106 q-47 0 -131 29.5t-121 29.5q-61 0 -68 -47q0 -16 -10 -17q-8 0 -8 9z" />
<glyph unicode="&#xbe;" horiz-adv-x="1333" d="M393 645q0 53 55.5 91t133.5 38q61 0 61 -10q0 -6 -6 -6h-6q-20 4 -37 4q-66 0 -112 -36t-46 -89q0 -98 129 -98q109 0 202 76.5t93 166.5q0 76 -92 101q-49 -8 -88 -9q-33 0 -33 11q0 14 47 14q37 0 74 -4q199 66 199 209q0 74 -97 74q-84 0 -168 -57.5t-84 -114.5 q0 -51 66 -52q94 0 178 111q2 8 10 8q4 0 5 -4q0 -23 -66 -75t-129 -52q-84 0 -84 78q0 66 83 118t189 52q164 0 164 -117q0 -141 -243 -184q141 -33 141 -146q0 -88 -102.5 -153.5t-239.5 -65.5q-86 0 -141.5 34t-55.5 87zM416 -74q627 756 1022 1168l53 55q2 6 8 6 q2 0 2 -4q0 -6 -131 -150q-141 -154 -421.5 -513t-424.5 -570q-25 12 -59 12q-27 0 -49 -4zM733 150q0 20 119 49q129 74 319 264q256 256 414 256q70 -1 70 -21q0 -8 -8 -8l-23 5q-22 5 -37 5q-162 0 -407 -249q-188 -190 -293 -248q70 14 168 14q41 0 69 -4q20 33 144 201 q96 131 121 178q2 8 8 8t6 -6l-2 -4l-6 -12l-17 -31l-28 -49q-14 -25 -41 -76q-66 -117 -115 -213h57q150 0 150 94q0 14 -8 33q-2 2 -2 6q0 6 6 6q16 0 16 -45q0 -123 -233 -123q-55 -119 -64 -182q-31 6 -47 6q-18 0 -65 -6q27 74 98 182q-16 2 -60 6q-68 6 -106 7 q-27 0 -74 -5q-74 -47 -117 -47q-12 0 -12 9z" />
<glyph unicode="&#xbf;" horiz-adv-x="892" d="M160 258q0 158 190 279q68 43 336 145q276 106 277 217q0 51 -56 51q-88 0 -170 -119q-2 -6 -8 -6q-4 0 -4 4q0 18 57 72q68 63 129 64q66 0 66 -64q0 -53 -66 -113q-35 -33 -227 -139q-422 -233 -422 -463q0 -168 199 -184q-10 37 -10 74q0 176 142 336.5t298 160.5 q66 0 108.5 -42t42.5 -105q0 -164 -175 -299t-390 -137q51 -123 170 -123q39 0 78 14q8 4 10 4q6 -2 6 -6q0 -8 -33.5 -17t-60.5 -9q-129 0 -184 137q-133 8 -218 84t-85 184zM463 74q0 -35 10 -74q203 0 377 166q162 154 162 285q0 109 -121 108q-143 0 -285.5 -161.5 t-142.5 -323.5zM942 1044q0 45 41 86t84 41t43 -45q0 -41 -43 -81.5t-84 -40.5t-41 40z" />
<glyph unicode="&#xc0;" horiz-adv-x="1859" d="M178 217q0 55 34 94t81 39q66 0 65 -63q0 -33 -22.5 -56.5t-52.5 -23.5q-47 0 -47 45l2 20q2 4 2 11q0 10 -9 10q-10 0 -20 -24.5t-10 -51.5q0 -98 103.5 -165.5t252.5 -67.5q215 0 473 211q59 47 131 124q143 150 228 234l30 31h-194l12 18q96 0 197 -2 q293 326 568 476.5t583 152.5q72 14 133 14q139 0 139 -45q0 -18 -21 -18q-10 0 -67 12q-106 23 -178 22q-162 -49 -285 -190t-281 -457q-242 -485 -620 -573q78 -12 137 -12q184 0 309 118q121 113 201 242q8 14 14 14t7 -4q0 -16 -115 -155q-106 -131 -194.5 -180.5 t-215.5 -49.5q-74 0 -178 21q-63 -20 -147 -21q-57 0 -58 21q0 25 78 24q55 0 127 -10q156 37 234.5 122t306.5 460h-385q-244 -258 -379 -367q-313 -254 -590 -254q-158 0 -268.5 74t-110.5 180zM690 838q0 211 204 391t441 180q104 0 164 -52t60 -143q0 -70 -48 -161 q-43 -84 -43 -115q0 -74 88 -74q100 0 207 148q8 12 15 12q8 0 8 -8q0 -10 -37 -53q-102 -117 -193 -117q-59 0 -95 41t-36 106q0 55 66 181q31 57 31 96q0 51 -55.5 86t-135.5 35q-229 0 -424.5 -176.5t-195.5 -380.5q0 -102 65.5 -169t169.5 -67q113 0 227.5 83t161.5 198 q2 10 8 10q8 0 9 -10q0 -20 -35 -73.5t-72 -90.5q-135 -133 -303 -133q-113 0 -182.5 70.5t-69.5 185.5zM1542 600h379q129 223 308.5 399t310.5 211q-260 -14 -483.5 -150t-514.5 -460zM2421 1675l90 62q-18 -49 -19 -101q0 -109 58 -182l2 -4q6 -6 6 -10q-2 -4 -6 -4 q-27 0 -69 75.5t-62 163.5z" />
<glyph unicode="&#xc1;" horiz-adv-x="1859" d="M178 217q0 55 34 94t81 39q66 0 65 -63q0 -33 -22.5 -56.5t-52.5 -23.5q-47 0 -47 45l2 20q2 4 2 11q0 10 -9 10q-10 0 -20 -24.5t-10 -51.5q0 -98 103.5 -165.5t252.5 -67.5q215 0 473 211q59 47 131 124q143 150 228 234l30 31h-194l12 18q96 0 197 -2 q293 326 568 476.5t583 152.5q72 14 133 14q139 0 139 -45q0 -18 -21 -18q-10 0 -67 12q-106 23 -178 22q-162 -49 -285 -190t-281 -457q-242 -485 -620 -573q78 -12 137 -12q184 0 309 118q121 113 201 242q8 14 14 14t7 -4q0 -16 -115 -155q-106 -131 -194.5 -180.5 t-215.5 -49.5q-74 0 -178 21q-63 -20 -147 -21q-57 0 -58 21q0 25 78 24q55 0 127 -10q156 37 234.5 122t306.5 460h-385q-244 -258 -379 -367q-313 -254 -590 -254q-158 0 -268.5 74t-110.5 180zM690 838q0 211 204 391t441 180q104 0 164 -52t60 -143q0 -70 -48 -161 q-43 -84 -43 -115q0 -74 88 -74q100 0 207 148q8 12 15 12q8 0 8 -8q0 -10 -37 -53q-102 -117 -193 -117q-59 0 -95 41t-36 106q0 55 66 181q31 57 31 96q0 51 -55.5 86t-135.5 35q-229 0 -424.5 -176.5t-195.5 -380.5q0 -102 65.5 -169t169.5 -67q113 0 227.5 83t161.5 198 q2 10 8 10q8 0 9 -10q0 -20 -35 -73.5t-72 -90.5q-135 -133 -303 -133q-113 0 -182.5 70.5t-69.5 185.5zM1542 600h379q129 223 308.5 399t310.5 211q-260 -14 -483.5 -150t-514.5 -460zM2497 1473q0 2 12 8q98 47 200.5 119.5t143.5 128.5l43 -68q-96 -72 -256 -141 q-117 -51 -137 -52q-6 0 -6 5z" />
<glyph unicode="&#xc2;" horiz-adv-x="1859" d="M178 217q0 55 34 94t81 39q66 0 65 -63q0 -33 -22.5 -56.5t-52.5 -23.5q-47 0 -47 45l2 20q2 4 2 11q0 10 -9 10q-10 0 -20 -24.5t-10 -51.5q0 -98 103.5 -165.5t252.5 -67.5q215 0 473 211q59 47 131 124q143 150 228 234l30 31h-194l12 18q96 0 197 -2 q293 326 568 476.5t583 152.5q72 14 133 14q139 0 139 -45q0 -18 -21 -18q-10 0 -67 12q-106 23 -178 22q-162 -49 -285 -190t-281 -457q-242 -485 -620 -573q78 -12 137 -12q184 0 309 118q121 113 201 242q8 14 14 14t7 -4q0 -16 -115 -155q-106 -131 -194.5 -180.5 t-215.5 -49.5q-74 0 -178 21q-63 -20 -147 -21q-57 0 -58 21q0 25 78 24q55 0 127 -10q156 37 234.5 122t306.5 460h-385q-244 -258 -379 -367q-313 -254 -590 -254q-158 0 -268.5 74t-110.5 180zM690 838q0 211 204 391t441 180q104 0 164 -52t60 -143q0 -70 -48 -161 q-43 -84 -43 -115q0 -74 88 -74q100 0 207 148q8 12 15 12q8 0 8 -8q0 -10 -37 -53q-102 -117 -193 -117q-59 0 -95 41t-36 106q0 55 66 181q31 57 31 96q0 51 -55.5 86t-135.5 35q-229 0 -424.5 -176.5t-195.5 -380.5q0 -102 65.5 -169t169.5 -67q113 0 227.5 83t161.5 198 q2 10 8 10q8 0 9 -10q0 -20 -35 -73.5t-72 -90.5q-135 -133 -303 -133q-113 0 -182.5 70.5t-69.5 185.5zM1542 600h379q129 223 308.5 399t310.5 211q-260 -14 -483.5 -150t-514.5 -460zM2281 1473q2 2 15 8q111 47 226.5 121t162.5 127q-6 -74 -19 -250q0 -8 -4 -9 q-4 2 -4 9q-6 102 -24 141q-59 -41 -186.5 -96.5t-159.5 -55.5q-6 0 -7 5z" />
<glyph unicode="&#xc3;" horiz-adv-x="1859" d="M178 217q0 55 34 94t81 39q66 0 65 -63q0 -33 -22.5 -56.5t-52.5 -23.5q-47 0 -47 45l2 20q2 4 2 11q0 10 -9 10q-10 0 -20 -24.5t-10 -51.5q0 -98 103.5 -165.5t252.5 -67.5q215 0 473 211q59 47 131 124q143 150 228 234l30 31h-194l12 18q96 0 197 -2 q293 326 568 476.5t583 152.5q72 14 133 14q139 0 139 -45q0 -18 -21 -18q-10 0 -67 12q-106 23 -178 22q-162 -49 -285 -190t-281 -457q-242 -485 -620 -573q78 -12 137 -12q184 0 309 118q121 113 201 242q8 14 14 14t7 -4q0 -16 -115 -155q-106 -131 -194.5 -180.5 t-215.5 -49.5q-74 0 -178 21q-63 -20 -147 -21q-57 0 -58 21q0 25 78 24q55 0 127 -10q156 37 234.5 122t306.5 460h-385q-244 -258 -379 -367q-313 -254 -590 -254q-158 0 -268.5 74t-110.5 180zM690 838q0 211 204 391t441 180q104 0 164 -52t60 -143q0 -70 -48 -161 q-43 -84 -43 -115q0 -74 88 -74q100 0 207 148q8 12 15 12q8 0 8 -8q0 -10 -37 -53q-102 -117 -193 -117q-59 0 -95 41t-36 106q0 55 66 181q31 57 31 96q0 51 -55.5 86t-135.5 35q-229 0 -424.5 -176.5t-195.5 -380.5q0 -102 65.5 -169t169.5 -67q113 0 227.5 83t161.5 198 q2 10 8 10q8 0 9 -10q0 -20 -35 -73.5t-72 -90.5q-135 -133 -303 -133q-113 0 -182.5 70.5t-69.5 185.5zM1542 600h379q129 223 308.5 399t310.5 211q-260 -14 -483.5 -150t-514.5 -460zM2335 1511q0 6 50 37t95 31q25 0 123 -23q88 -20 115 -20q35 0 59 16q8 4 10 4 q6 -2 6 -4q0 -14 -57 -40.5t-86 -26.5q-31 0 -90 14l-20 4q-98 25 -127 25q-27 0 -58 -15q-8 -6 -14 -6t-6 4z" />
<glyph unicode="&#xc4;" horiz-adv-x="1859" d="M178 217q0 55 34 94t81 39q66 0 65 -63q0 -33 -22.5 -56.5t-52.5 -23.5q-47 0 -47 45l2 20q2 4 2 11q0 10 -9 10q-10 0 -20 -24.5t-10 -51.5q0 -98 103.5 -165.5t252.5 -67.5q215 0 473 211q59 47 131 124q143 150 228 234l30 31h-194l12 18q96 0 197 -2 q293 326 568 476.5t583 152.5q72 14 133 14q139 0 139 -45q0 -18 -21 -18q-10 0 -67 12q-106 23 -178 22q-162 -49 -285 -190t-281 -457q-242 -485 -620 -573q78 -12 137 -12q184 0 309 118q121 113 201 242q8 14 14 14t7 -4q0 -16 -115 -155q-106 -131 -194.5 -180.5 t-215.5 -49.5q-74 0 -178 21q-63 -20 -147 -21q-57 0 -58 21q0 25 78 24q55 0 127 -10q156 37 234.5 122t306.5 460h-385q-244 -258 -379 -367q-313 -254 -590 -254q-158 0 -268.5 74t-110.5 180zM690 838q0 211 204 391t441 180q104 0 164 -52t60 -143q0 -70 -48 -161 q-43 -84 -43 -115q0 -74 88 -74q100 0 207 148q8 12 15 12q8 0 8 -8q0 -10 -37 -53q-102 -117 -193 -117q-59 0 -95 41t-36 106q0 55 66 181q31 57 31 96q0 51 -55.5 86t-135.5 35q-229 0 -424.5 -176.5t-195.5 -380.5q0 -102 65.5 -169t169.5 -67q113 0 227.5 83t161.5 198 q2 10 8 10q8 0 9 -10q0 -20 -35 -73.5t-72 -90.5q-135 -133 -303 -133q-113 0 -182.5 70.5t-69.5 185.5zM1542 600h379q129 223 308.5 399t310.5 211q-260 -14 -483.5 -150t-514.5 -460zM2396 1511q0 35 31 65t65 30q45 0 45 -43q0 -39 -28.5 -69t-63.5 -30q-49 0 -49 47z M2570 1511q0 35 31 65t65 30q46 0 46 -43q0 -39 -29 -69t-64 -30q-49 0 -49 47z" />
<glyph unicode="&#xc5;" horiz-adv-x="1859" d="M178 217q0 55 34 94t81 39q66 0 65 -63q0 -33 -22.5 -56.5t-52.5 -23.5q-47 0 -47 45l2 20q2 4 2 11q0 10 -9 10q-10 0 -20 -24.5t-10 -51.5q0 -98 103.5 -165.5t252.5 -67.5q215 0 473 211q59 47 131 124q143 150 228 234l30 31h-194l12 18q96 0 197 -2 q293 326 568 476.5t583 152.5q72 14 133 14q139 0 139 -45q0 -18 -21 -18q-10 0 -67 12q-106 23 -178 22q-162 -49 -285 -190t-281 -457q-242 -485 -620 -573q78 -12 137 -12q184 0 309 118q121 113 201 242q8 14 14 14t7 -4q0 -16 -115 -155q-106 -131 -194.5 -180.5 t-215.5 -49.5q-74 0 -178 21q-63 -20 -147 -21q-57 0 -58 21q0 25 78 24q55 0 127 -10q156 37 234.5 122t306.5 460h-385q-244 -258 -379 -367q-313 -254 -590 -254q-158 0 -268.5 74t-110.5 180zM690 838q0 211 204 391t441 180q104 0 164 -52t60 -143q0 -70 -48 -161 q-43 -84 -43 -115q0 -74 88 -74q100 0 207 148q8 12 15 12q8 0 8 -8q0 -10 -37 -53q-102 -117 -193 -117q-59 0 -95 41t-36 106q0 55 66 181q31 57 31 96q0 51 -55.5 86t-135.5 35q-229 0 -424.5 -176.5t-195.5 -380.5q0 -102 65.5 -169t169.5 -67q113 0 227.5 83t161.5 198 q2 10 8 10q8 0 9 -10q0 -20 -35 -73.5t-72 -90.5q-135 -133 -303 -133q-113 0 -182.5 70.5t-69.5 185.5zM1542 600h379q129 223 308.5 399t310.5 211q-260 -14 -483.5 -150t-514.5 -460zM2535 1516q0 63 55.5 120.5t116.5 57.5q56 -1 56 -60q0 -63 -53.5 -120.5 t-112.5 -57.5q-61 0 -62 60zM2562 1511q0 -33 31 -32q41 0 93 57t52 102q0 33 -31 33q-43 0 -94 -56t-51 -104z" />
<glyph unicode="&#xc6;" horiz-adv-x="2643" d="M178 219q0 55 34 94t81 39q66 0 65 -63q0 -33 -22.5 -55.5t-52.5 -22.5q-47 0 -47 45q0 14 2 19.5t2 11.5q0 10 -9 10q-10 0 -20 -24.5t-10 -51.5q0 -100 101 -168.5t249 -68.5q252 0 528 254q100 92 338 346q-117 0 -194 -2l14 20q94 0 197 -2q293 336 479 468t364 132 q47 0 129 -18q139 63 312 63q135 0 231 -37t96 -88q0 -68 -123 -67q-90 0 -286 47q-18 4 -131 33q-31 8 -41 12q-170 -98 -170 -244q0 -72 49 -100q66 6 100 6q111 0 111 -25q0 -16 -47 -16q-86 0 -160 22q-94 -14 -217 -68t-209 -120h174l-10 -16h-184q-188 -158 -189 -344 q0 -190 207 -244q-37 59 -37 139q0 201 201 366t442 165q109 0 173.5 -54.5t64.5 -142.5q0 -197 -214 -353.5t-483 -156.5q-53 0 -100 6q88 -129 287 -129q111 0 188 35l13 2q6 -2 6 -8q0 -14 -74 -29.5t-135 -15.5q-215 0 -320 151q-150 29 -237.5 114t-87.5 198 q0 156 157 301h-237q-303 -328 -529.5 -473.5t-435.5 -145.5q-162 0 -272.5 74t-110.5 180zM657 836q0 213 203 393t445 180q104 0 163.5 -52t59.5 -143q0 -74 -46 -160.5t-46 -115.5q0 -74 88 -74q98 0 207 148q6 12 14 12t8 -8q0 -10 -37 -53q-100 -117 -192 -117 q-59 0 -95 41t-36 106q0 59 67 181q31 55 31 96q0 51 -55.5 86t-135.5 35q-229 0 -425.5 -175.5t-196.5 -381.5q0 -104 66.5 -170t168.5 -66q115 0 229.5 82t162.5 199q2 10 8 10q8 0 8 -10q0 -20 -35 -73.5t-72 -90.5q-137 -133 -305 -133q-113 0 -182.5 70.5t-69.5 183.5z M1542 600h242q193 154 538 199q-111 45 -110 147q0 133 172 225q-74 12 -105 13q-145 0 -284.5 -109.5t-452.5 -474.5zM1919 96q0 -55 33 -108q51 -10 102 -11q240 0 465 163t225 337q0 72 -57 119t-145 47q-215 0 -419 -179t-204 -368zM2486 1157q268 -86 443 -86 q96 0 96 51q0 39 -83 69t-189 30q-141 0 -267 -64z" />
<glyph unicode="&#xc7;" horiz-adv-x="1632" d="M358 1053q0 156 161 261t401 105q336 0 677 -223q59 12 121 12q199 0 199 -98q0 -66 -90 -135q82 -121 82 -223q0 -25 -15 -25q-12 0 -12 33q0 100 -70 203q-145 -106 -395 -185.5t-442 -79.5q-27 0 -47 2q-160 -223 -160 -430q0 -141 87 -223t239 -82q285 0 508 273 q135 166 135 313q0 78 -47.5 124t-124.5 46q-125 0 -268.5 -131t-143.5 -246q0 -10 6 -10q4 0 8 4q27 25 50 24q51 0 51 -55q0 -74 -72 -74q-66 0 -66 80q0 143 144.5 283.5t294.5 140.5q193 0 192 -211q0 -219 -209 -398t-462 -179q-92 0 -187 41q82 -55 82 -111 q0 -88 -98 -88q-47 0 -127 41t-80 66q2 6 6 6q6 0 21 -10q61 -45 127 -46q33 0 57 21.5t24 50.5q0 53 -67 103q-176 129 -176 339q0 166 119 349q-432 80 -433 342zM393 1034q0 -240 406 -309q252 350 770 467q-303 176 -647 176q-211 0 -370 -100.5t-159 -233.5zM940 715 q209 0 461.5 76.5t402.5 185.5q-78 111 -207 197q-188 -51 -366 -175.5t-291 -283.5zM1622 1178q119 -82 197 -191q82 70 82 123q0 82 -160 82q-49 0 -119 -14z" />
<glyph unicode="&#xc8;" horiz-adv-x="1722" d="M317 752q0 178 154 325q182 176 514 176q184 0 490 -75q139 68 321 67q135 0 231.5 -37t96.5 -88q0 -68 -123 -67q-96 0 -461 90q-170 -96 -170 -244q0 -70 49 -98q72 6 107 6q104 0 104 -25q0 -16 -55 -16q-70 0 -152 20q-113 -16 -258 -86q-375 -180 -374 -464 q0 -188 204 -240q-37 61 -37 141q0 197 201 363t440 166q109 0 174.5 -54.5t65.5 -144.5q0 -195 -214 -351.5t-482 -156.5q-53 0 -101 6q96 -129 285 -129q117 0 191 35l12 2q6 -2 6 -8q0 -14 -73.5 -29.5t-135.5 -15.5q-209 0 -319 151q-152 35 -239 116t-87 189 q0 143 120 270.5t320 192.5q121 39 277 58q-111 47 -111 149q0 131 162 219q-231 55 -383 56q-297 0 -505 -147.5t-208 -358.5q0 -94 54.5 -161t132.5 -67q53 0 53 17q0 10 -19 6q-53 0 -53 49q0 29 23.5 48.5t56.5 19.5q63 0 64 -62q0 -41 -36 -69.5t-89 -28.5 q-92 0 -158 83t-66 202zM995 98q0 -53 33 -110q57 -10 107 -11q236 0 461 164t225 334q0 72 -56.5 119t-144.5 47q-215 0 -420 -178t-205 -365zM1563 1157q266 -86 446 -86q94 0 94 51q0 39 -83 69t-189 30q-147 0 -268 -64zM1767 1675l91 62q-18 -49 -19 -101 q0 -109 57 -182l2 -4q7 -6 7 -10q-2 -4 -7 -4q-27 0 -68.5 75.5t-62.5 163.5z" />
<glyph unicode="&#xc9;" horiz-adv-x="1722" d="M317 752q0 178 154 325q182 176 514 176q184 0 490 -75q139 68 321 67q135 0 231.5 -37t96.5 -88q0 -68 -123 -67q-96 0 -461 90q-170 -96 -170 -244q0 -70 49 -98q72 6 107 6q104 0 104 -25q0 -16 -55 -16q-70 0 -152 20q-113 -16 -258 -86q-375 -180 -374 -464 q0 -188 204 -240q-37 61 -37 141q0 197 201 363t440 166q109 0 174.5 -54.5t65.5 -144.5q0 -195 -214 -351.5t-482 -156.5q-53 0 -101 6q96 -129 285 -129q117 0 191 35l12 2q6 -2 6 -8q0 -14 -73.5 -29.5t-135.5 -15.5q-209 0 -319 151q-152 35 -239 116t-87 189 q0 143 120 270.5t320 192.5q121 39 277 58q-111 47 -111 149q0 131 162 219q-231 55 -383 56q-297 0 -505 -147.5t-208 -358.5q0 -94 54.5 -161t132.5 -67q53 0 53 17q0 10 -19 6q-53 0 -53 49q0 29 23.5 48.5t56.5 19.5q63 0 64 -62q0 -41 -36 -69.5t-89 -28.5 q-92 0 -158 83t-66 202zM995 98q0 -53 33 -110q57 -10 107 -11q236 0 461 164t225 334q0 72 -56.5 119t-144.5 47q-215 0 -420 -178t-205 -365zM1563 1157q266 -86 446 -86q94 0 94 51q0 39 -83 69t-189 30q-147 0 -268 -64zM1890 1473q0 2 13 8q98 47 200.5 119.5 t143.5 128.5l43 -68q-96 -72 -256 -141q-117 -51 -138 -52q-6 0 -6 5z" />
<glyph unicode="&#xca;" horiz-adv-x="1722" d="M317 752q0 178 154 325q182 176 514 176q184 0 490 -75q139 68 321 67q135 0 231.5 -37t96.5 -88q0 -68 -123 -67q-96 0 -461 90q-170 -96 -170 -244q0 -70 49 -98q72 6 107 6q104 0 104 -25q0 -16 -55 -16q-70 0 -152 20q-113 -16 -258 -86q-375 -180 -374 -464 q0 -188 204 -240q-37 61 -37 141q0 197 201 363t440 166q109 0 174.5 -54.5t65.5 -144.5q0 -195 -214 -351.5t-482 -156.5q-53 0 -101 6q96 -129 285 -129q117 0 191 35l12 2q6 -2 6 -8q0 -14 -73.5 -29.5t-135.5 -15.5q-209 0 -319 151q-152 35 -239 116t-87 189 q0 143 120 270.5t320 192.5q121 39 277 58q-111 47 -111 149q0 131 162 219q-231 55 -383 56q-297 0 -505 -147.5t-208 -358.5q0 -94 54.5 -161t132.5 -67q53 0 53 17q0 10 -19 6q-53 0 -53 49q0 29 23.5 48.5t56.5 19.5q63 0 64 -62q0 -41 -36 -69.5t-89 -28.5 q-92 0 -158 83t-66 202zM995 98q0 -53 33 -110q57 -10 107 -11q236 0 461 164t225 334q0 72 -56.5 119t-144.5 47q-215 0 -420 -178t-205 -365zM1563 1157q266 -86 446 -86q94 0 94 51q0 39 -83 69t-189 30q-147 0 -268 -64zM1722 1473q2 2 15 8q111 47 226.5 121t162.5 127 q-6 -74 -19 -250q0 -8 -4 -9q-4 2 -4 9q-6 102 -24 141q-59 -41 -186.5 -96.5t-159.5 -55.5q-6 0 -7 5z" />
<glyph unicode="&#xcb;" horiz-adv-x="1722" d="M317 752q0 178 154 325q182 176 514 176q184 0 490 -75q139 68 321 67q135 0 231.5 -37t96.5 -88q0 -68 -123 -67q-96 0 -461 90q-170 -96 -170 -244q0 -70 49 -98q72 6 107 6q104 0 104 -25q0 -16 -55 -16q-70 0 -152 20q-113 -16 -258 -86q-375 -180 -374 -464 q0 -188 204 -240q-37 61 -37 141q0 197 201 363t440 166q109 0 174.5 -54.5t65.5 -144.5q0 -195 -214 -351.5t-482 -156.5q-53 0 -101 6q96 -129 285 -129q117 0 191 35l12 2q6 -2 6 -8q0 -14 -73.5 -29.5t-135.5 -15.5q-209 0 -319 151q-152 35 -239 116t-87 189 q0 143 120 270.5t320 192.5q121 39 277 58q-111 47 -111 149q0 131 162 219q-231 55 -383 56q-297 0 -505 -147.5t-208 -358.5q0 -94 54.5 -161t132.5 -67q53 0 53 17q0 10 -19 6q-53 0 -53 49q0 29 23.5 48.5t56.5 19.5q63 0 64 -62q0 -41 -36 -69.5t-89 -28.5 q-92 0 -158 83t-66 202zM995 98q0 -53 33 -110q57 -10 107 -11q236 0 461 164t225 334q0 72 -56.5 119t-144.5 47q-215 0 -420 -178t-205 -365zM1563 1157q266 -86 446 -86q94 0 94 51q0 39 -83 69t-189 30q-147 0 -268 -64zM1745 1511q0 35 30.5 65t65.5 30q45 0 45 -43 q0 -39 -28.5 -69t-63.5 -30q-49 0 -49 47zM1919 1511q0 35 30.5 65t65.5 30q45 0 45 -43q0 -39 -28.5 -69t-63.5 -30q-49 0 -49 47z" />
<glyph unicode="&#xcc;" horiz-adv-x="1306" d="M141 174q0 51 30 88t71 37q66 0 65 -68q0 -33 -21.5 -56t-52.5 -23q-47 0 -47 45v20q0 8 -6 10q-18 0 -18 -51q0 -86 84 -144.5t209 -58.5q301 0 542 301q72 88 191 275q-170 74 -170 239q0 199 225 297q115 49 359 91l110 18l94 20q53 41 140.5 80t119.5 39q17 0 17 -10 q0 -16 -82 -53t-189 -66q-250 -178 -493 -635l-16 -30q12 -2 28 -2q121 0 224.5 74.5t125.5 181.5q4 16 11 16q6 0 6 -8q0 -61 -66 -139q-119 -141 -305 -142q-18 0 -35 2l-28 -55q-72 -139 -126.5 -205.5t-144.5 -130.5q-252 -178 -514 -178q-147 0 -242.5 62.5 t-95.5 158.5zM1073 739q0 -125 123 -178q264 424 586 635h2q-59 -14 -178 -43q-244 -57 -388.5 -170t-144.5 -244zM1679 1675l90 62q-18 -49 -18 -101q0 -109 57 -182l2 -4q7 -6 7 -10q-2 -4 -7 -4q-27 0 -68.5 75.5t-62.5 163.5z" />
<glyph unicode="&#xcd;" horiz-adv-x="1306" d="M141 174q0 51 30 88t71 37q66 0 65 -68q0 -33 -21.5 -56t-52.5 -23q-47 0 -47 45v20q0 8 -6 10q-18 0 -18 -51q0 -86 84 -144.5t209 -58.5q301 0 542 301q72 88 191 275q-170 74 -170 239q0 199 225 297q115 49 359 91l110 18l94 20q53 41 140.5 80t119.5 39q17 0 17 -10 q0 -16 -82 -53t-189 -66q-250 -178 -493 -635l-16 -30q12 -2 28 -2q121 0 224.5 74.5t125.5 181.5q4 16 11 16q6 0 6 -8q0 -61 -66 -139q-119 -141 -305 -142q-18 0 -35 2l-28 -55q-72 -139 -126.5 -205.5t-144.5 -130.5q-252 -178 -514 -178q-147 0 -242.5 62.5 t-95.5 158.5zM1073 739q0 -125 123 -178q264 424 586 635h2q-59 -14 -178 -43q-244 -57 -388.5 -170t-144.5 -244zM1825 1473q0 2 12 8q98 47 200.5 119.5t143.5 128.5l43 -68q-96 -72 -256 -141q-117 -51 -137 -52q-6 0 -6 5z" />
<glyph unicode="&#xce;" horiz-adv-x="1306" d="M141 174q0 51 30 88t71 37q66 0 65 -68q0 -33 -21.5 -56t-52.5 -23q-47 0 -47 45v20q0 8 -6 10q-18 0 -18 -51q0 -86 84 -144.5t209 -58.5q301 0 542 301q72 88 191 275q-170 74 -170 239q0 199 225 297q115 49 359 91l110 18l94 20q53 41 140.5 80t119.5 39q17 0 17 -10 q0 -16 -82 -53t-189 -66q-250 -178 -493 -635l-16 -30q12 -2 28 -2q121 0 224.5 74.5t125.5 181.5q4 16 11 16q6 0 6 -8q0 -61 -66 -139q-119 -141 -305 -142q-18 0 -35 2l-28 -55q-72 -139 -126.5 -205.5t-144.5 -130.5q-252 -178 -514 -178q-147 0 -242.5 62.5 t-95.5 158.5zM1073 739q0 -125 123 -178q264 424 586 635h2q-59 -14 -178 -43q-244 -57 -388.5 -170t-144.5 -244zM1518 1473q2 2 14 8q111 47 226.5 121t162.5 127q-6 -74 -18 -250q0 -8 -5 -9q-4 2 -4 9q-6 102 -24 141q-59 -41 -186.5 -96.5t-159.5 -55.5q-6 0 -6 5z" />
<glyph unicode="&#xcf;" horiz-adv-x="1306" d="M141 174q0 51 30 88t71 37q66 0 65 -68q0 -33 -21.5 -56t-52.5 -23q-47 0 -47 45v20q0 8 -6 10q-18 0 -18 -51q0 -86 84 -144.5t209 -58.5q301 0 542 301q72 88 191 275q-170 74 -170 239q0 199 225 297q115 49 359 91l110 18l94 20q53 41 140.5 80t119.5 39q17 0 17 -10 q0 -16 -82 -53t-189 -66q-250 -178 -493 -635l-16 -30q12 -2 28 -2q121 0 224.5 74.5t125.5 181.5q4 16 11 16q6 0 6 -8q0 -61 -66 -139q-119 -141 -305 -142q-18 0 -35 2l-28 -55q-72 -139 -126.5 -205.5t-144.5 -130.5q-252 -178 -514 -178q-147 0 -242.5 62.5 t-95.5 158.5zM1073 739q0 -125 123 -178q264 424 586 635h2q-59 -14 -178 -43q-244 -57 -388.5 -170t-144.5 -244zM1655 1511q0 35 30.5 65t65.5 30q45 0 45 -43q0 -39 -28.5 -69t-63.5 -30q-49 0 -49 47zM1829 1511q0 35 30.5 65t65.5 30q45 0 45 -43q0 -39 -28.5 -69 t-63.5 -30q-49 0 -49 47z" />
<glyph unicode="&#xd0;" horiz-adv-x="1734" d="M129 6q0 27 64.5 46.5t150.5 19.5q104 0 414 -68q197 51 312.5 155.5t299.5 399.5h-164l6 19h170q199 322 385 499q-145 246 -473 246q-338 0 -620 -266q-141 -133 -226.5 -295t-85.5 -299q0 -109 69 -173.5t181 -64.5q190 0 396 205t206 397q0 72 -40.5 116t-104.5 44 q-74 0 -74 -26q0 -6 11 -7h10q4 2 14 2q49 0 49 -45q0 -33 -24.5 -57.5t-59.5 -24.5q-61 0 -61 66q0 45 40 78t97 33q74 0 119 -48.5t45 -126.5q0 -203 -211 -413.5t-412 -210.5q-139 0 -229 93t-90 237q0 311 307 557.5t694 246.5q330 0 496 -243q248 225 496 225 q127 0 204.5 -81t77.5 -214q0 -51 -12 -107.5t-23 -56.5q-6 0 -6 6t2 13q23 61 23 143q0 127 -76 203t-203 76q-248 0 -469 -232q86 -160 86 -336q0 -328 -252 -556t-614 -228q-113 0 -307 31q-170 -31 -324 -31q-264 0 -264 53zM150 6q0 -35 262 -35q151 1 270 19 q-276 39 -412 39q-121 0 -120 -23zM791 -4q127 -27 270 -27q383 0 620 369q154 237 154 473q0 125 -53 240q-121 -135 -283 -473h193l-6 -19h-197q-106 -231 -266 -360t-432 -203z" />
<glyph unicode="&#xd1;" horiz-adv-x="1783" d="M178 166q0 53 30 88t75 35q66 0 65 -64q0 -33 -21.5 -56.5t-50.5 -23.5q-49 0 -49 54q0 20 -8 20q-16 0 -16 -55q0 -82 78.5 -134.5t199.5 -52.5q231 0 430 174.5t455 606.5q209 350 334 461q86 76 110 75q4 0 5 -4q0 -2 -13 -18q-63 -84 -79.5 -180.5t-22.5 -407.5 q-8 -381 -94 -545q-2 0 -2 -4l2 -2q18 0 303 502q209 367 401.5 530.5t417.5 163.5q160 0 264.5 -97t104.5 -247q0 -84 -19 -84q-8 0 -8 6q0 10 4 35t4 37q0 137 -98 226t-250 89q-301 0 -606 -391q-96 -123 -373 -588q-80 -135 -165 -240.5t-111 -105.5q-14 0 -15 15 q0 20 45 41q88 41 88 204q0 31 -4 103q-10 178 -10 307q0 215 42 353t138 245l4 8l-2 2q-31 0 -135 -129q-57 -70 -101 -143.5t-231 -411.5q-160 -289 -372.5 -446.5t-444.5 -157.5q-131 0 -215 58.5t-84 148.5zM426 838q0 217 200.5 399t438.5 182q98 0 153.5 -49 t55.5 -135q0 -61 -43 -150.5t-43 -117.5q0 -76 82 -76q94 0 211 168q2 4 6 4q8 0 8 -8q0 -23 -57 -86q-86 -96 -166 -97q-55 0 -93 40t-38 100q0 57 41 137q51 100 51 141q0 51 -48 82t-126 31q-223 0 -419 -180.5t-196 -382.5q0 -104 64.5 -171t165.5 -67q90 0 182 51.5 t150 132.5q4 4 6 5q8 0 8 -9q0 -20 -64 -77q-133 -119 -286 -119q-109 0 -176.5 69.5t-67.5 182.5zM1993 1511q0 6 50 37t95 31q25 0 123 -23q88 -20 115 -20q35 0 59 16q8 4 10 4q6 -2 6 -4q0 -14 -57 -40.5t-86 -26.5q-31 0 -90 14l-20 4q-98 25 -127 25q-27 0 -58 -15 q-8 -6 -14 -6t-6 4z" />
<glyph unicode="&#xd2;" horiz-adv-x="1624" d="M500 383q0 184 114.5 374.5t307.5 329.5q139 100 311 162t311 62t221 -66.5t82 -179.5q0 -45 -16 -109q27 -79 27 -157q0 -152 -86 -310.5t-234.5 -284.5t-316.5 -199t-308 -73q-184 0 -298.5 125t-114.5 326zM588 287q0 -147 87 -240.5t226 -93.5q279 0 562.5 287.5 t314.5 603.5q-35 -59 -122 -141t-118 -82q-8 0 -8 8q0 6 16 14q162 90 234 238q0 125 -73 198.5t-198 73.5q-231 0 -476 -248t-245 -483q0 -94 44.5 -152.5t115.5 -58.5q35 0 70 19.5t35 39.5q-2 6 -4 6l-9 -4q-12 -12 -39 -12q-47 0 -47 55q0 33 22.5 56.5t55.5 23.5 q63 0 64 -71q0 -53 -45 -92t-107 -39q-86 0 -143.5 70.5t-57.5 176.5q0 244 254 486.5t510 242.5q109 0 195 -51t117 -135q12 41 12 80q0 102 -70.5 163.5t-187.5 61.5q-229 0 -465 -153q-225 -147 -369 -377q-152 -238 -151 -471zM1604 1675l90 62q-18 -49 -19 -101 q0 -109 58 -182l2 -4q6 -6 6 -10q-2 -4 -6 -4q-27 0 -69 75.5t-62 163.5z" />
<glyph unicode="&#xd3;" horiz-adv-x="1624" d="M500 383q0 184 114.5 374.5t307.5 329.5q139 100 311 162t311 62t221 -66.5t82 -179.5q0 -45 -16 -109q27 -79 27 -157q0 -152 -86 -310.5t-234.5 -284.5t-316.5 -199t-308 -73q-184 0 -298.5 125t-114.5 326zM588 287q0 -147 87 -240.5t226 -93.5q279 0 562.5 287.5 t314.5 603.5q-35 -59 -122 -141t-118 -82q-8 0 -8 8q0 6 16 14q162 90 234 238q0 125 -73 198.5t-198 73.5q-231 0 -476 -248t-245 -483q0 -94 44.5 -152.5t115.5 -58.5q35 0 70 19.5t35 39.5q-2 6 -4 6l-9 -4q-12 -12 -39 -12q-47 0 -47 55q0 33 22.5 56.5t55.5 23.5 q63 0 64 -71q0 -53 -45 -92t-107 -39q-86 0 -143.5 70.5t-57.5 176.5q0 244 254 486.5t510 242.5q109 0 195 -51t117 -135q12 41 12 80q0 102 -70.5 163.5t-187.5 61.5q-229 0 -465 -153q-225 -147 -369 -377q-152 -238 -151 -471zM1561 1473q0 2 12 8q98 47 200.5 119.5 t143.5 128.5l43 -68q-96 -72 -256 -141q-117 -51 -137 -52q-6 0 -6 5z" />
<glyph unicode="&#xd4;" horiz-adv-x="1624" d="M500 383q0 184 114.5 374.5t307.5 329.5q139 100 311 162t311 62t221 -66.5t82 -179.5q0 -45 -16 -109q27 -79 27 -157q0 -152 -86 -310.5t-234.5 -284.5t-316.5 -199t-308 -73q-184 0 -298.5 125t-114.5 326zM588 287q0 -147 87 -240.5t226 -93.5q279 0 562.5 287.5 t314.5 603.5q-35 -59 -122 -141t-118 -82q-8 0 -8 8q0 6 16 14q162 90 234 238q0 125 -73 198.5t-198 73.5q-231 0 -476 -248t-245 -483q0 -94 44.5 -152.5t115.5 -58.5q35 0 70 19.5t35 39.5q-2 6 -4 6l-9 -4q-12 -12 -39 -12q-47 0 -47 55q0 33 22.5 56.5t55.5 23.5 q63 0 64 -71q0 -53 -45 -92t-107 -39q-86 0 -143.5 70.5t-57.5 176.5q0 244 254 486.5t510 242.5q109 0 195 -51t117 -135q12 41 12 80q0 102 -70.5 163.5t-187.5 61.5q-229 0 -465 -153q-225 -147 -369 -377q-152 -238 -151 -471zM1440 1473q2 2 14 8q111 47 226.5 121 t162.5 127q-6 -74 -18 -250q0 -8 -4 -9q-4 2 -4 9q-6 102 -25 141q-59 -41 -186 -96.5t-160 -55.5q-6 0 -6 5z" />
<glyph unicode="&#xd5;" horiz-adv-x="1624" d="M500 383q0 184 114.5 374.5t307.5 329.5q139 100 311 162t311 62t221 -66.5t82 -179.5q0 -45 -16 -109q27 -79 27 -157q0 -152 -86 -310.5t-234.5 -284.5t-316.5 -199t-308 -73q-184 0 -298.5 125t-114.5 326zM588 287q0 -147 87 -240.5t226 -93.5q279 0 562.5 287.5 t314.5 603.5q-35 -59 -122 -141t-118 -82q-8 0 -8 8q0 6 16 14q162 90 234 238q0 125 -73 198.5t-198 73.5q-231 0 -476 -248t-245 -483q0 -94 44.5 -152.5t115.5 -58.5q35 0 70 19.5t35 39.5q-2 6 -4 6l-9 -4q-12 -12 -39 -12q-47 0 -47 55q0 33 22.5 56.5t55.5 23.5 q63 0 64 -71q0 -53 -45 -92t-107 -39q-86 0 -143.5 70.5t-57.5 176.5q0 244 254 486.5t510 242.5q109 0 195 -51t117 -135q12 41 12 80q0 102 -70.5 163.5t-187.5 61.5q-229 0 -465 -153q-225 -147 -369 -377q-152 -238 -151 -471zM1493 1511q0 6 50 37t95 31q25 0 123 -23 q88 -20 115 -20q35 0 59 16q8 4 11 4q6 -2 6 -4q0 -14 -57.5 -40.5t-86.5 -26.5q-31 0 -90 14l-20 4q-98 25 -127 25q-27 0 -58 -15q-8 -6 -14 -6t-6 4z" />
<glyph unicode="&#xd6;" horiz-adv-x="1624" d="M500 383q0 184 114.5 374.5t307.5 329.5q139 100 311 162t311 62t221 -66.5t82 -179.5q0 -45 -16 -109q27 -79 27 -157q0 -152 -86 -310.5t-234.5 -284.5t-316.5 -199t-308 -73q-184 0 -298.5 125t-114.5 326zM588 287q0 -147 87 -240.5t226 -93.5q279 0 562.5 287.5 t314.5 603.5q-35 -59 -122 -141t-118 -82q-8 0 -8 8q0 6 16 14q162 90 234 238q0 125 -73 198.5t-198 73.5q-231 0 -476 -248t-245 -483q0 -94 44.5 -152.5t115.5 -58.5q35 0 70 19.5t35 39.5q-2 6 -4 6l-9 -4q-12 -12 -39 -12q-47 0 -47 55q0 33 22.5 56.5t55.5 23.5 q63 0 64 -71q0 -53 -45 -92t-107 -39q-86 0 -143.5 70.5t-57.5 176.5q0 244 254 486.5t510 242.5q109 0 195 -51t117 -135q12 41 12 80q0 102 -70.5 163.5t-187.5 61.5q-229 0 -465 -153q-225 -147 -369 -377q-152 -238 -151 -471zM1554 1511q0 35 31 65t66 30q45 0 45 -43 q0 -39 -29 -69t-63 -30q-49 0 -50 47zM1729 1511q0 35 30.5 65t65.5 30q45 0 45 -43q0 -39 -29 -69t-63 -30q-49 0 -49 47z" />
<glyph unicode="&#xd7;" horiz-adv-x="1599" d="M455 680q0 289 200.5 487.5t491.5 198.5q276 0 475 -201.5t199 -482.5q0 -285 -200 -483.5t-484 -198.5q-283 0 -482.5 198.5t-199.5 481.5z" />
<glyph unicode="&#xd8;" horiz-adv-x="1624" d="M500 383q0 186 113.5 375.5t308.5 328.5q139 100 311 162t311 62q66 0 125 -17l137 193h33l-141 -203q150 -70 149 -217q0 -45 -16 -111q27 -79 27 -157q0 -152 -86 -310.5t-234.5 -284.5t-316.5 -199t-308 -73q-72 0 -147 23l-113 -162h-32l120 172q-242 121 -241 418z M588 287q0 -205 168 -301l149 213q-147 84 -147 268q0 229 253 465.5t496 236.5q20 0 72 -6l82 117q-57 10 -92 10q-227 0 -461 -153q-225 -150 -369 -379q-152 -240 -151 -471zM780 -27q63 -20 121 -20q279 0 562.5 287.5t314.5 603.5q-35 -59 -122 -141t-118 -82 q-8 0 -8 8q0 6 16 14q162 91 234 238q4 209 -183 260l-657 -938q51 -14 88 -15q59 0 111.5 26t52.5 54q0 8 -6 8l-6 -4q-16 -12 -37 -12q-47 0 -47 55q0 80 78 80q61 0 61 -69q0 -63 -59.5 -108.5t-143.5 -45.5q-45 0 -102 16zM803 436q0 -160 112 -221l654 932q-43 6 -58 6 q-225 0 -466.5 -243.5t-241.5 -473.5zM1608 1157q72 -16 130 -65.5t81 -108.5q12 41 12 80q0 143 -143 207z" />
<glyph unicode="&#xd9;" horiz-adv-x="1845" d="M299 547q0 328 344 598q133 104 290 167.5t281 63.5q152 0 236 -82t84 -227q0 -125 -61.5 -235.5t-303.5 -432.5q-106 -141 -139 -201.5t-33 -113.5q0 -49 30 -81t77 -32q152 0 416 302t688 958q53 -4 59 -4q39 0 96 10q-694 -952 -694 -1229q0 -68 44 -111.5t114 -43.5 q119 0 233 127q8 10 15 10q6 0 6 -8q0 -10 -35 -41q-119 -104 -219 -105q-96 0 -158.5 74t-62.5 186q0 193 198 506q-12 -14 -32 -43l-48 -65q-182 -252 -348 -395.5t-276 -143.5q-72 0 -116 52t-44 138q0 90 48 180.5t218 311.5q176 231 224.5 321.5t48.5 192.5 q0 96 -71 151.5t-191 55.5q-305 0 -588 -278.5t-283 -579.5q0 -113 63.5 -181.5t168.5 -68.5q199 0 383 227q193 238 192 434q0 166 -141 166q-35 0 -66 -16.5t-31 -34.5q0 -8 9 -8q4 0 14 4t18 4q51 0 52 -49q0 -33 -23.5 -56.5t-56.5 -23.5q-61 0 -62 66q0 53 44 93 t106 40q72 0 113.5 -50.5t41.5 -134.5q0 -197 -189 -438.5t-404 -241.5q-127 0 -203 86t-76 230zM1876 1675l90 62q-18 -49 -18 -101q0 -109 57 -182l2 -4q6 -6 6 -10q-2 -4 -6 -4q-27 0 -69 75.5t-62 163.5z" />
<glyph unicode="&#xda;" horiz-adv-x="1845" d="M299 547q0 328 344 598q133 104 290 167.5t281 63.5q152 0 236 -82t84 -227q0 -125 -61.5 -235.5t-303.5 -432.5q-106 -141 -139 -201.5t-33 -113.5q0 -49 30 -81t77 -32q152 0 416 302t688 958q53 -4 59 -4q39 0 96 10q-694 -952 -694 -1229q0 -68 44 -111.5t114 -43.5 q119 0 233 127q8 10 15 10q6 0 6 -8q0 -10 -35 -41q-119 -104 -219 -105q-96 0 -158.5 74t-62.5 186q0 193 198 506q-12 -14 -32 -43l-48 -65q-182 -252 -348 -395.5t-276 -143.5q-72 0 -116 52t-44 138q0 90 48 180.5t218 311.5q176 231 224.5 321.5t48.5 192.5 q0 96 -71 151.5t-191 55.5q-305 0 -588 -278.5t-283 -579.5q0 -113 63.5 -181.5t168.5 -68.5q199 0 383 227q193 238 192 434q0 166 -141 166q-35 0 -66 -16.5t-31 -34.5q0 -8 9 -8q4 0 14 4t18 4q51 0 52 -49q0 -33 -23.5 -56.5t-56.5 -23.5q-61 0 -62 66q0 53 44 93 t106 40q72 0 113.5 -50.5t41.5 -134.5q0 -197 -189 -438.5t-404 -241.5q-127 0 -203 86t-76 230zM1952 1473q0 2 12 8q98 47 200.5 119.5t143.5 128.5l43 -68q-96 -72 -256 -141q-117 -51 -137 -52q-6 0 -6 5z" />
<glyph unicode="&#xdb;" horiz-adv-x="1845" d="M299 547q0 328 344 598q133 104 290 167.5t281 63.5q152 0 236 -82t84 -227q0 -125 -61.5 -235.5t-303.5 -432.5q-106 -141 -139 -201.5t-33 -113.5q0 -49 30 -81t77 -32q152 0 416 302t688 958q53 -4 59 -4q39 0 96 10q-694 -952 -694 -1229q0 -68 44 -111.5t114 -43.5 q119 0 233 127q8 10 15 10q6 0 6 -8q0 -10 -35 -41q-119 -104 -219 -105q-96 0 -158.5 74t-62.5 186q0 193 198 506q-12 -14 -32 -43l-48 -65q-182 -252 -348 -395.5t-276 -143.5q-72 0 -116 52t-44 138q0 90 48 180.5t218 311.5q176 231 224.5 321.5t48.5 192.5 q0 96 -71 151.5t-191 55.5q-305 0 -588 -278.5t-283 -579.5q0 -113 63.5 -181.5t168.5 -68.5q199 0 383 227q193 238 192 434q0 166 -141 166q-35 0 -66 -16.5t-31 -34.5q0 -8 9 -8q4 0 14 4t18 4q51 0 52 -49q0 -33 -23.5 -56.5t-56.5 -23.5q-61 0 -62 66q0 53 44 93 t106 40q72 0 113.5 -50.5t41.5 -134.5q0 -197 -189 -438.5t-404 -241.5q-127 0 -203 86t-76 230zM1784 1473q2 2 14 8q111 47 226.5 121t162.5 127q-6 -74 -18 -250q0 -8 -4 -9q-4 2 -4 9q-6 102 -25 141q-59 -41 -186 -96.5t-160 -55.5q-6 0 -6 5z" />
<glyph unicode="&#xdc;" horiz-adv-x="1845" d="M299 547q0 328 344 598q133 104 290 167.5t281 63.5q152 0 236 -82t84 -227q0 -125 -61.5 -235.5t-303.5 -432.5q-106 -141 -139 -201.5t-33 -113.5q0 -49 30 -81t77 -32q152 0 416 302t688 958q53 -4 59 -4q39 0 96 10q-694 -952 -694 -1229q0 -68 44 -111.5t114 -43.5 q119 0 233 127q8 10 15 10q6 0 6 -8q0 -10 -35 -41q-119 -104 -219 -105q-96 0 -158.5 74t-62.5 186q0 193 198 506q-12 -14 -32 -43l-48 -65q-182 -252 -348 -395.5t-276 -143.5q-72 0 -116 52t-44 138q0 90 48 180.5t218 311.5q176 231 224.5 321.5t48.5 192.5 q0 96 -71 151.5t-191 55.5q-305 0 -588 -278.5t-283 -579.5q0 -113 63.5 -181.5t168.5 -68.5q199 0 383 227q193 238 192 434q0 166 -141 166q-35 0 -66 -16.5t-31 -34.5q0 -8 9 -8q4 0 14 4t18 4q51 0 52 -49q0 -33 -23.5 -56.5t-56.5 -23.5q-61 0 -62 66q0 53 44 93 t106 40q72 0 113.5 -50.5t41.5 -134.5q0 -197 -189 -438.5t-404 -241.5q-127 0 -203 86t-76 230zM1851 1511q0 35 31 65t66 30q45 0 45 -43q0 -39 -29 -69t-63 -30q-49 0 -50 47zM2025 1511q0 35 31 65t66 30q45 0 45 -43q0 -39 -29 -69t-63 -30q-49 0 -50 47z" />
<glyph unicode="&#xdd;" horiz-adv-x="1906" d="M301 596q0 299 313 549q156 125 335 197.5t329 72.5q158 0 249 -88t91 -244q0 -123 -56.5 -239.5t-220.5 -329.5q-143 -184 -181 -249.5t-38 -129.5q0 -125 119 -125q111 0 265.5 136.5t408.5 457.5q262 332 526 508l13 8q8 4 10 4q10 0 10 -12q0 -2 -8 -8 q-174 -121 -316.5 -327t-318.5 -578q-150 -319 -407 -511t-529 -192q-135 0 -222 62.5t-87 160.5q0 57 35.5 99.5t87.5 42.5q66 0 65 -62q0 -33 -22.5 -57.5t-53.5 -24.5q-53 0 -53 50q0 8 3 18t3 16t-4 6q-14 0 -27.5 -28.5t-13.5 -59.5q0 -90 80 -148t203 -58 q166 0 316.5 91t244.5 212t285 465q66 121 157 264q-221 -266 -329 -367q-203 -188 -330 -188q-78 0 -126 57t-48 150q0 94 54 192t226 318q221 281 222 458q0 233 -283 234q-315 0 -631 -287q-131 -119 -218 -280.5t-87 -286.5q0 -119 69.5 -190.5t186.5 -71.5 q207 0 397 196q227 236 228 436q0 72 -40 115t-106 43q-145 0 -307 -180t-162 -344q0 -104 101 -105h4q10 0 10 -6q0 -8 -25 -8q-55 0 -90 46t-35 120q0 170 164 332t338 162q76 0 121 -47.5t45 -127.5q0 -180 -184 -397q-215 -254 -457 -254q-135 0 -217 91t-82 241z M2099 1473q0 2 12 8q98 47 201 119.5t144 128.5l43 -68q-96 -72 -256 -141q-117 -51 -138 -52q-6 0 -6 5z" />
<glyph unicode="&#xde;" horiz-adv-x="1531" d="M233 174q0 51 31 87t72 36q61 0 61 -68q0 -80 -71 -79q-51 0 -50 53q0 20 -4 22q-16 0 -16 -53q0 -86 82 -141.5t209 -55.5q248 0 440 203q59 61 113 139q49 72 231 361q131 209 301 387q-76 43 -186 49q8 -33 8 -57q0 -162 -149.5 -325t-296.5 -163q-68 0 -112 44 t-44 114q0 152 174 275.5t391 123.5h13q-45 143 -158 144q-20 0 -49 -9.5t-37 -9.5q-6 0 -6 6q0 8 32.5 17.5t65.5 9.5q115 0 166 -158q119 -6 205 -45q254 254 501 254q127 0 209 -80.5t82 -205.5q0 -59 -10 -109.5t-23 -50.5q-6 2 -6 8l4 16q16 66 17 125q0 127 -76 203 t-201 76q-254 0 -473 -248q178 -104 178 -272q0 -127 -103 -220.5t-247 -93.5q-39 0 -78 9.5t-39 19.5q0 8 9 8h2q47 -20 100 -20q109 0 186.5 94t77.5 227q0 137 -104 226q-78 -100 -131.5 -193.5t-173.5 -349.5q-141 -297 -430 -447q-190 -98 -377 -98q-133 0 -221.5 61.5 t-88.5 153.5zM891 696q0 -115 115 -114q139 0 286.5 163.5t147.5 319.5q0 18 -6 49q-195 0 -369 -134t-174 -284z" />
<glyph unicode="&#xdf;" horiz-adv-x="595" d="M-621 -483q0 10 11 10q14 0 41.5 -5t42.5 -5q156 0 311 164q76 80 127 162.5t246 443.5q74 137 135 241h-111l8 15h109q152 252 298 392t224 140q45 0 45 -49q0 -127 -211 -321q-117 -106 -116 -185q0 -59 61 -141q78 -102 78 -172q0 -90 -85 -158.5t-198 -68.5 q-152 0 -151 141q0 78 49 146.5t104 68.5q51 0 52 -49q0 -49 -92.5 -80t-92.5 -113q0 -41 29 -67.5t72 -26.5q78 0 149.5 95t71.5 202q0 55 -45 156q-31 70 -31 110q0 53 28.5 93t133.5 132q182 162 182 244q0 31 -31 31q-61 0 -159 -113q-121 -139 -304.5 -495.5t-294 -516 t-255.5 -282.5q-186 -156 -361 -156q-70 0 -70 17z" />
<glyph unicode="&#xe0;" horiz-adv-x="704" d="M104 137q0 193 271 340q119 66 192 66q61 0 62 -60q0 -18 -8 -45l51 97q31 -6 53 -7q27 0 70 7l-177 -293q-92 -154 -92 -203q0 -47 39 -47t127 91t180 226q4 10 11 10q6 0 6 -6q0 -20 -146 -194q-119 -141 -186 -142q-45 0 -74.5 34t-29.5 87t32 117 q-100 -139 -153 -188.5t-103 -49.5q-53 0 -89 45.5t-36 114.5zM178 57q0 -66 58 -65q70 0 239 229q139 188 139 258q0 49 -45 49q-92 0 -241.5 -180t-149.5 -291zM555 866l86 60q-16 -49 -16 -97q0 -104 55 -178q8 -8 8 -12q-2 -4 -6 -4q-25 0 -64.5 73.5t-62.5 157.5z" />
<glyph unicode="&#xe1;" horiz-adv-x="704" d="M104 137q0 193 271 340q119 66 192 66q61 0 62 -60q0 -18 -8 -45l51 97q31 -6 53 -7q27 0 70 7l-177 -293q-92 -154 -92 -203q0 -47 39 -47t127 91t180 226q4 10 11 10q6 0 6 -6q0 -20 -146 -194q-119 -141 -186 -142q-45 0 -74.5 34t-29.5 87t32 117 q-100 -139 -153 -188.5t-103 -49.5q-53 0 -89 45.5t-36 114.5zM178 57q0 -66 58 -65q70 0 239 229q139 188 139 258q0 49 -45 49q-92 0 -241.5 -180t-149.5 -291zM614 657q0 2 13 9q233 113 334 241l40 -63q-96 -76 -247 -139q-117 -49 -133 -50q-4 0 -7 2z" />
<glyph unicode="&#xe2;" horiz-adv-x="704" d="M104 137q0 193 271 340q119 66 192 66q61 0 62 -60q0 -18 -8 -45l51 97q31 -6 53 -7q27 0 70 7l-177 -293q-92 -154 -92 -203q0 -47 39 -47t127 91t180 226q4 10 11 10q6 0 6 -6q0 -20 -146 -194q-119 -141 -186 -142q-45 0 -74.5 34t-29.5 87t32 117 q-100 -139 -153 -188.5t-103 -49.5q-53 0 -89 45.5t-36 114.5zM178 57q0 -66 58 -65q70 0 239 229q139 188 139 258q0 49 -45 49q-92 0 -241.5 -180t-149.5 -291zM420 651q2 2 14 8q111 45 222.5 117t154.5 125q-10 -125 -16 -244q0 -8 -4 -8t-7 23q-6 86 -22 123 q-63 -41 -183 -94.5t-153 -53.5q-6 0 -6 4z" />
<glyph unicode="&#xe3;" horiz-adv-x="704" d="M104 137q0 193 271 340q119 66 192 66q61 0 62 -60q0 -18 -8 -45l51 97q31 -6 53 -7q27 0 70 7l-177 -293q-92 -154 -92 -203q0 -47 39 -47t127 91t180 226q4 10 11 10q6 0 6 -6q0 -20 -146 -194q-119 -141 -186 -142q-45 0 -74.5 34t-29.5 87t32 117 q-100 -139 -153 -188.5t-103 -49.5q-53 0 -89 45.5t-36 114.5zM178 57q0 -66 58 -65q70 0 239 229q139 188 139 258q0 49 -45 49q-92 0 -241.5 -180t-149.5 -291zM438 688q0 14 55.5 40t86.5 26q35 0 120 -21l45 -10q43 -10 66 -10q33 0 59 14q8 4 11 4q4 0 4 -4 q0 -14 -55.5 -39.5t-84.5 -25.5q-31 0 -88 14l-20 4q-94 25 -123 25q-23 0 -55 -15q-10 -6 -15 -6q-6 0 -6 4z" />
<glyph unicode="&#xe4;" horiz-adv-x="704" d="M104 137q0 193 271 340q119 66 192 66q61 0 62 -60q0 -18 -8 -45l51 97q31 -6 53 -7q27 0 70 7l-177 -293q-92 -154 -92 -203q0 -47 39 -47t127 91t180 226q4 10 11 10q6 0 6 -6q0 -20 -146 -194q-119 -141 -186 -142q-45 0 -74.5 34t-29.5 87t32 117 q-100 -139 -153 -188.5t-103 -49.5q-53 0 -89 45.5t-36 114.5zM178 57q0 -66 58 -65q70 0 239 229q139 188 139 258q0 49 -45 49q-92 0 -241.5 -180t-149.5 -291zM524 688q0 35 30 62.5t64 27.5q44 0 44 -41q0 -37 -28 -66.5t-61 -29.5q-49 0 -49 47zM694 686q0 35 30 63.5 t64 28.5q43 0 43 -41q0 -37 -27.5 -66.5t-60.5 -29.5q-49 0 -49 45z" />
<glyph unicode="&#xe5;" horiz-adv-x="704" d="M104 137q0 193 271 340q119 66 192 66q61 0 62 -60q0 -18 -8 -45l51 97q31 -6 53 -7q27 0 70 7l-177 -293q-92 -154 -92 -203q0 -47 39 -47t127 91t180 226q4 10 11 10q6 0 6 -6q0 -20 -146 -194q-119 -141 -186 -142q-45 0 -74.5 34t-29.5 87t32 117 q-100 -139 -153 -188.5t-103 -49.5q-53 0 -89 45.5t-36 114.5zM178 57q0 -66 58 -65q70 0 239 229q139 188 139 258q0 49 -45 49q-92 0 -241.5 -180t-149.5 -291zM618 694q0 59 52.5 113.5t109.5 54.5q54 0 54 -55q0 -59 -50.5 -114.5t-107.5 -55.5t-58 57zM641 688 q0 -33 29 -33q41 0 92 55.5t51 100.5q0 33 -31 33q-41 0 -91 -55.5t-50 -100.5z" />
<glyph unicode="&#xe6;" horiz-adv-x="901" d="M106 70q0 160 416 192q72 100 72 180q0 86 -100 86q-154 0 -299 -209q-14 -20 -21 -20q-4 2 -4 6q0 16 102 123q111 115 228 115q63 0 108 -36t56 -93q178 129 294 129q96 0 97 -86q0 -147 -410 -203q-70 -102 -70 -176q0 -86 99 -86q158 0 395 317q8 10 14 10q4 0 4 -4 q0 -14 -110 -139q-176 -199 -309 -199q-125 0 -164 127q-197 -127 -297 -127q-43 0 -72 27t-29 66zM172 29q0 -37 43 -37q53 0 137 72.5t164 185.5q-160 -25 -252 -84.5t-92 -136.5zM651 266q137 29 247 98t110 130q0 33 -45 32q-125 0 -312 -260z" />
<glyph unicode="&#xe7;" horiz-adv-x="495" d="M16 -84q0 6 7 6q6 0 16 -8q57 -39 111 -39q29 0 49 18.5t20 43.5q0 37 -37 71q-74 70 -73 148q0 86 67.5 175t183.5 156q96 55 158 56q74 0 74 -88q0 -70 -46 -138.5t-93 -68.5q-45 0 -45 45q0 53 90 98q74 37 73 92q0 45 -49 45q-84 0 -204.5 -165.5t-120.5 -278.5 q0 -92 88 -92q94 0 217 129q117 121 157 182q10 16 19 16q4 -2 4 -6q0 -16 -141 -168q-158 -168 -262 -168q-31 0 -74 19q76 -49 76 -96q0 -74 -86 -74q-39 0 -109 35t-70 55z" />
<glyph unicode="&#xe8;" horiz-adv-x="503" d="M109 154q0 180 251 317q131 72 215 72q35 0 61 -21.5t26 -52.5q0 -72 -93.5 -122t-314.5 -95q-68 -102 -68 -172q0 -86 93 -86q158 0 387 309q12 16 20 16q4 -2 4 -6t-18 -26l-43 -54q-207 -256 -355 -256q-72 0 -118.5 50.5t-46.5 126.5zM262 266q143 37 243.5 105 t100.5 127q0 33 -35 32q-53 0 -139 -73.5t-170 -190.5zM524 866l86 60q-16 -49 -16 -97q0 -104 55 -178q8 -8 8 -12q-2 -4 -6 -4q-25 0 -64.5 73.5t-62.5 157.5z" />
<glyph unicode="&#xe9;" horiz-adv-x="503" d="M109 154q0 180 251 317q131 72 215 72q35 0 61 -21.5t26 -52.5q0 -72 -93.5 -122t-314.5 -95q-68 -102 -68 -172q0 -86 93 -86q158 0 387 309q12 16 20 16q4 -2 4 -6t-18 -26l-43 -54q-207 -256 -355 -256q-72 0 -118.5 50.5t-46.5 126.5zM262 266q143 37 243.5 105 t100.5 127q0 33 -35 32q-53 0 -139 -73.5t-170 -190.5zM584 657q0 2 12 9q233 113 334 241l41 -63q-96 -76 -248 -139q-117 -49 -133 -50q-4 0 -6 2z" />
<glyph unicode="&#xea;" horiz-adv-x="503" d="M109 154q0 180 251 317q131 72 215 72q35 0 61 -21.5t26 -52.5q0 -72 -93.5 -122t-314.5 -95q-68 -102 -68 -172q0 -86 93 -86q158 0 387 309q12 16 20 16q4 -2 4 -6t-18 -26l-43 -54q-207 -256 -355 -256q-72 0 -118.5 50.5t-46.5 126.5zM262 266q143 37 243.5 105 t100.5 127q0 33 -35 32q-53 0 -139 -73.5t-170 -190.5zM391 651q2 2 15 8q111 45 222 117t154 125q-10 -125 -16 -244q0 -8 -4 -8t-6 23q-6 86 -23 123q-63 -41 -183 -94.5t-153 -53.5q-6 0 -6 4z" />
<glyph unicode="&#xeb;" horiz-adv-x="503" d="M109 154q0 180 251 317q131 72 215 72q35 0 61 -21.5t26 -52.5q0 -72 -93.5 -122t-314.5 -95q-68 -102 -68 -172q0 -86 93 -86q158 0 387 309q12 16 20 16q4 -2 4 -6t-18 -26l-43 -54q-207 -256 -355 -256q-72 0 -118.5 50.5t-46.5 126.5zM262 266q143 37 243.5 105 t100.5 127q0 33 -35 32q-53 0 -139 -73.5t-170 -190.5zM481 688q0 35 30 62.5t64 27.5q43 0 43 -41q0 -37 -27.5 -66.5t-60.5 -29.5q-49 0 -49 47zM651 686q0 35 30 63.5t64 28.5q43 0 43 -41q0 -37 -27.5 -66.5t-60.5 -29.5q-49 0 -49 45z" />
<glyph unicode="&#xec;" horiz-adv-x="344" d="M78 94q0 57 69 176l156 265q31 -6 49 -7q27 0 76 7l-227 -373q-49 -80 -49 -125t47 -45q90 0 313 317q4 10 10 10t6 -6q0 -4 -10 -16l-43 -59q-188 -260 -287 -261q-47 0 -78.5 33t-31.5 84zM328 866l86 60q-16 -49 -17 -97q0 -104 56 -178q8 -8 8 -12q-2 -4 -6 -4 q-25 0 -65 73.5t-62 157.5z" />
<glyph unicode="&#xed;" horiz-adv-x="344" d="M78 94q0 57 69 176l156 265q31 -6 49 -7q27 0 76 7l-227 -373q-49 -80 -49 -125t47 -45q90 0 313 317q4 10 10 10t6 -6q0 -4 -10 -16l-43 -59q-188 -260 -287 -261q-47 0 -78.5 33t-31.5 84zM387 657q0 2 12 9q233 113 334 241l41 -63q-96 -76 -248 -139 q-117 -49 -133 -50q-4 0 -6 2z" />
<glyph unicode="&#xee;" horiz-adv-x="344" d="M78 94q0 57 69 176l156 265q31 -6 49 -7q27 0 76 7l-227 -373q-49 -80 -49 -125t47 -45q90 0 313 317q4 10 10 10t6 -6q0 -4 -10 -16l-43 -59q-188 -260 -287 -261q-47 0 -78.5 33t-31.5 84zM195 651q2 2 14 8q111 45 222.5 117t154.5 125q-10 -125 -17 -244q0 -8 -4 -8 t-6 23q-6 86 -22 123q-63 -41 -183.5 -94.5t-152.5 -53.5q-6 0 -6 4z" />
<glyph unicode="&#xef;" horiz-adv-x="344" d="M78 94q0 57 69 176l156 265q31 -6 49 -7q27 0 76 7l-227 -373q-49 -80 -49 -125t47 -45q90 0 313 317q4 10 10 10t6 -6q0 -4 -10 -16l-43 -59q-188 -260 -287 -261q-47 0 -78.5 33t-31.5 84zM285 688q0 35 29.5 62.5t64.5 27.5q43 0 43 -41q0 -37 -27.5 -66.5 t-60.5 -29.5q-49 0 -49 47zM455 686q0 35 29.5 63.5t64.5 28.5q43 0 43 -41q0 -37 -27.5 -66.5t-60.5 -29.5q-49 0 -49 45z" />
<glyph unicode="&#xf0;" horiz-adv-x="593" d="M109 145q0 158 200 299q141 98 234 99q90 0 90 -92q0 -12 -6 -50q68 176 67 322q0 84 -22 158l-156 -58l-4 15l154 57q-47 133 -160 152q-14 2 -14 8q2 4 8 4q100 0 198 -152l148 54l4 -17l-143 -51q66 -129 65 -277q0 -270 -215 -479q-164 -160 -295 -160 q-66 0 -109.5 48.5t-43.5 119.5zM190 66q0 -72 70 -72q94 0 225 169t131 290q0 78 -75 77q-90 0 -220.5 -173t-130.5 -291z" />
<glyph unicode="&#xf1;" horiz-adv-x="800" d="M127 -14l156 247q133 211 133 265q0 31 -25 30q-51 0 -201 -215q-10 -12 -14 -14q-6 0 -6 6q0 4 4 8l19 25q154 205 206 205q33 0 57.5 -31t24.5 -74q0 -63 -75 -178q119 162 182 222.5t117 60.5q45 0 74.5 -36t29.5 -89q0 -66 -93 -206t-93 -179q0 -41 41 -41 q90 0 307 317q4 10 10 10t6 -6q0 -20 -145 -194q-119 -141 -187 -142q-45 0 -75.5 35t-30.5 86q0 45 18.5 83t98 156t79.5 150q0 41 -43 41q-145 0 -450 -542q-49 4 -59 4q-35 0 -66 -4zM500 688q0 14 55 40t86 26q35 0 121 -21l45 -10q43 -10 65 -10q33 0 60 14q8 4 10 4 q4 0 4 -4q0 -14 -55 -39.5t-84 -25.5q-31 0 -88 14l-21 4q-94 25 -123 25q-23 0 -55 -15q-10 -6 -14 -6q-6 0 -6 4z" />
<glyph unicode="&#xf2;" horiz-adv-x="593" d="M109 145q0 154 202 297q141 100 234 101q86 0 86 -92q0 -115 -121 -277q20 -12 45 -12q45 0 104.5 42t98.5 101q12 14 16 14t4 -4q0 -16 -59 -75q-88 -88 -162 -88q-31 0 -55 12q-131 -186 -248 -187q-59 0 -102 49.5t-43 118.5zM190 63q0 -70 66 -69q109 0 236 178 q-29 31 -29 66q0 49 39 101t76 52q16 0 22 -20q16 35 16 78q0 82 -73 81q-90 0 -221.5 -174t-131.5 -293zM547 866l86 60q-16 -49 -17 -97q0 -104 56 -178q8 -8 8 -12q-2 -4 -6 -4q-25 0 -65 73.5t-62 157.5z" />
<glyph unicode="&#xf3;" horiz-adv-x="593" d="M109 145q0 154 202 297q141 100 234 101q86 0 86 -92q0 -115 -121 -277q20 -12 45 -12q45 0 104.5 42t98.5 101q12 14 16 14t4 -4q0 -16 -59 -75q-88 -88 -162 -88q-31 0 -55 12q-131 -186 -248 -187q-59 0 -102 49.5t-43 118.5zM190 63q0 -70 66 -69q109 0 236 178 q-29 31 -29 66q0 49 39 101t76 52q16 0 22 -20q16 35 16 78q0 82 -73 81q-90 0 -221.5 -174t-131.5 -293zM559 657q0 2 12 9q233 113 334 241l41 -63q-96 -76 -248 -139q-117 -49 -133 -50q-4 0 -6 2z" />
<glyph unicode="&#xf4;" horiz-adv-x="593" d="M109 145q0 154 202 297q141 100 234 101q86 0 86 -92q0 -115 -121 -277q20 -12 45 -12q45 0 104.5 42t98.5 101q12 14 16 14t4 -4q0 -16 -59 -75q-88 -88 -162 -88q-31 0 -55 12q-131 -186 -248 -187q-59 0 -102 49.5t-43 118.5zM190 63q0 -70 66 -69q109 0 236 178 q-29 31 -29 66q0 49 39 101t76 52q16 0 22 -20q16 35 16 78q0 82 -73 81q-90 0 -221.5 -174t-131.5 -293zM389 651q2 2 14 8q111 45 222.5 117t154.5 125q-10 -125 -16 -244q0 -8 -4 -8t-6 23q-6 86 -23 123q-63 -41 -183 -94.5t-153 -53.5q-6 0 -6 4z" />
<glyph unicode="&#xf5;" horiz-adv-x="593" d="M109 145q0 154 202 297q141 100 234 101q86 0 86 -92q0 -115 -121 -277q20 -12 45 -12q45 0 104.5 42t98.5 101q12 14 16 14t4 -4q0 -16 -59 -75q-88 -88 -162 -88q-31 0 -55 12q-131 -186 -248 -187q-59 0 -102 49.5t-43 118.5zM190 63q0 -70 66 -69q109 0 236 178 q-29 31 -29 66q0 49 39 101t76 52q16 0 22 -20q16 35 16 78q0 82 -73 81q-90 0 -221.5 -174t-131.5 -293zM385 688q0 14 55.5 40t85.5 26q35 0 121 -21l45 -10q43 -10 66 -10q33 0 59 14q8 4 10 4q4 0 4 -4q0 -14 -55 -39.5t-84 -25.5q-31 0 -88 14l-20 4q-94 25 -123 25 q-23 0 -55 -15q-10 -6 -15 -6q-6 0 -6 4z" />
<glyph unicode="&#xf6;" horiz-adv-x="593" d="M109 145q0 154 202 297q141 100 234 101q86 0 86 -92q0 -115 -121 -277q20 -12 45 -12q45 0 104.5 42t98.5 101q12 14 16 14t4 -4q0 -16 -59 -75q-88 -88 -162 -88q-31 0 -55 12q-131 -186 -248 -187q-59 0 -102 49.5t-43 118.5zM190 63q0 -70 66 -69q109 0 236 178 q-29 31 -29 66q0 49 39 101t76 52q16 0 22 -20q16 35 16 78q0 82 -73 81q-90 0 -221.5 -174t-131.5 -293zM467 688q0 35 29.5 62.5t64.5 27.5q43 0 43 -41q0 -37 -27.5 -66.5t-60.5 -29.5q-49 0 -49 47zM637 686q0 35 29.5 63.5t64.5 28.5q43 0 43 -41q0 -37 -27.5 -66.5 t-60.5 -29.5q-49 0 -49 45z" />
<glyph unicode="&#xf7;" horiz-adv-x="1366" d="M387 887h483l152 467l152 -467h483l-391 -287l143 -461l-387 285l-387 -285l143 461z" />
<glyph unicode="&#xf8;" horiz-adv-x="593" d="M109 145q0 154 202 299q137 98 230 99q12 0 22 -2l76 118h23l-80 -122q49 -27 49 -86q0 -115 -121 -277q20 -12 45 -12q104 0 201 141q10 16 18 16q4 0 4 -4q0 -16 -59 -77q-84 -86 -162 -86q-31 0 -55 12q-131 -186 -244 -187q-18 0 -31 3l-82 -125h-24l86 131 q-98 47 -98 159zM190 63q0 -31 29 -59l336 524q-6 2 -16 2q-86 0 -217.5 -175t-131.5 -292zM238 -4q10 -2 24 -2q102 0 230 178q-29 31 -29 66q0 49 39 101t76 52q16 0 22 -20q16 35 16 78q0 53 -41 75z" />
<glyph unicode="&#xf9;" horiz-adv-x="641" d="M78 96q0 57 45 133l182 306q35 -6 53 -7q18 0 68 7l-238 -392q-37 -61 -36 -106q0 -45 38 -45q100 0 324 377l98 166q31 -6 52 -7q27 0 71 7l-160 -261q-115 -186 -114 -239q0 -43 41 -43q80 0 260 252l31 43l18 22q4 10 10 10t6 -6q0 -23 -145 -194q-121 -141 -190 -142 q-43 0 -74 35t-31 86q0 39 39 109l-20 -27q-92 -119 -134 -157q-49 -45 -90 -46q-45 0 -74.5 34t-29.5 85zM455 866l86 60q-16 -49 -17 -97q0 -104 56 -178q8 -8 8 -12q-2 -4 -6 -4q-25 0 -65 73.5t-62 157.5z" />
<glyph unicode="&#xfa;" horiz-adv-x="641" d="M78 96q0 57 45 133l182 306q35 -6 53 -7q18 0 68 7l-238 -392q-37 -61 -36 -106q0 -45 38 -45q100 0 324 377l98 166q31 -6 52 -7q27 0 71 7l-160 -261q-115 -186 -114 -239q0 -43 41 -43q80 0 260 252l31 43l18 22q4 10 10 10t6 -6q0 -23 -145 -194q-121 -141 -190 -142 q-43 0 -74 35t-31 86q0 39 39 109l-20 -27q-92 -119 -134 -157q-49 -45 -90 -46q-45 0 -74.5 34t-29.5 85zM537 657q0 2 12 9q233 113 334 241l41 -63q-96 -76 -248 -139q-117 -49 -133 -50q-4 0 -6 2z" />
<glyph unicode="&#xfb;" horiz-adv-x="641" d="M78 96q0 57 45 133l182 306q35 -6 53 -7q18 0 68 7l-238 -392q-37 -61 -36 -106q0 -45 38 -45q100 0 324 377l98 166q31 -6 52 -7q27 0 71 7l-160 -261q-115 -186 -114 -239q0 -43 41 -43q80 0 260 252l31 43l18 22q4 10 10 10t6 -6q0 -23 -145 -194q-121 -141 -190 -142 q-43 0 -74 35t-31 86q0 39 39 109l-20 -27q-92 -119 -134 -157q-49 -45 -90 -46q-45 0 -74.5 34t-29.5 85zM356 651q2 2 15 8q111 45 222.5 117t154.5 125q-10 -125 -17 -244q0 -8 -4 -8t-6 23q-6 86 -23 123q-63 -41 -183 -94.5t-153 -53.5q-6 0 -6 4z" />
<glyph unicode="&#xfc;" horiz-adv-x="641" d="M78 96q0 57 45 133l182 306q35 -6 53 -7q18 0 68 7l-238 -392q-37 -61 -36 -106q0 -45 38 -45q100 0 324 377l98 166q31 -6 52 -7q27 0 71 7l-160 -261q-115 -186 -114 -239q0 -43 41 -43q80 0 260 252l31 43l18 22q4 10 10 10t6 -6q0 -23 -145 -194q-121 -141 -190 -142 q-43 0 -74 35t-31 86q0 39 39 109l-20 -27q-92 -119 -134 -157q-49 -45 -90 -46q-45 0 -74.5 34t-29.5 85zM446 688q0 35 30 62.5t65 27.5q43 0 43 -41q0 -37 -28 -66.5t-60 -29.5q-49 0 -50 47zM616 686q0 35 30 63.5t65 28.5q43 0 43 -41q0 -37 -28 -66.5t-60 -29.5 q-49 0 -50 45z" />
<glyph unicode="&#xfd;" horiz-adv-x="630" d="M-344 -582q0 201 463 416q39 18 114 53l15 9l176 313q-104 -143 -151.5 -187.5t-94.5 -44.5q-41 0 -71.5 35t-30.5 82q0 57 71 178l154 260q23 -4 53 -4q27 0 72 7l-197 -320q-84 -137 -84 -178q0 -45 41 -45q109 0 332 383l92 157q23 -4 56 -4q29 0 67 7 q-125 -197 -336 -578q121 63 205 137t189 207q14 18 18 18q6 0 6 -6q0 -16 -110 -137q-121 -133 -318 -242l-49 -88q-145 -260 -303 -387q-164 -131 -283 -131q-41 0 -68.5 25.5t-27.5 64.5zM-330 -584q0 -76 84 -75q106 0 211 115.5t260 402.5q1 0 13 20q-16 -8 -113 -57 q-455 -225 -455 -406zM530 657q0 2 13 9q233 113 334 241l41 -63q-96 -76 -248 -139q-117 -49 -133 -50q-4 0 -7 2z" />
<glyph unicode="&#xfe;" horiz-adv-x="534" d="M-367 -557l967 1569q27 -8 57 -8q25 0 62 6l-443 -697q106 141 155.5 185.5t96.5 44.5q53 0 89 -46t36 -114q0 -164 -202 -297q-164 -109 -258 -109q-63 0 -64 60q0 18 10 49l-383 -639q-35 8 -57 8q-33 0 -66 -12zM143 43q0 -51 47 -51q92 0 241 179t149 292 q0 66 -58 65q-74 0 -246 -235q-133 -182 -133 -250z" />
<glyph unicode="&#xff;" horiz-adv-x="630" d="M-344 -582q0 201 463 416q39 18 114 53l15 9l176 313q-104 -143 -151.5 -187.5t-94.5 -44.5q-41 0 -71.5 35t-30.5 82q0 57 71 178l154 260q23 -4 53 -4q27 0 72 7l-197 -320q-84 -137 -84 -178q0 -45 41 -45q109 0 332 383l92 157q23 -4 56 -4q29 0 67 7 q-125 -197 -336 -578q121 63 205 137t189 207q14 18 18 18q6 0 6 -6q0 -16 -110 -137q-121 -133 -318 -242l-49 -88q-145 -260 -303 -387q-164 -131 -283 -131q-41 0 -68.5 25.5t-27.5 64.5zM-330 -584q0 -76 84 -75q106 0 211 115.5t260 402.5q1 0 13 20q-16 -8 -113 -57 q-455 -225 -455 -406zM438 688q0 35 30 62.5t64 27.5q43 0 43 -41q0 -37 -27.5 -66.5t-60.5 -29.5q-49 0 -49 47zM608 686q0 35 30 63.5t64 28.5q43 0 43 -41q0 -37 -27.5 -66.5t-60.5 -29.5q-49 0 -49 45z" />
<glyph unicode="&#x152;" horiz-adv-x="2392" d="M502 401q0 174 96 358.5t264 327.5q147 127 326.5 203t331.5 76q98 0 180 -25q76 -23 235 -100q37 -18 129 -57q145 61 308 61q135 0 231 -37t96 -88q0 -68 -123 -67q-98 0 -458 90q-170 -94 -170 -242q0 -74 49 -102q68 8 106 8q104 0 105 -25q0 -16 -58 -16 q-61 0 -149 20q-86 -12 -189 -55q-57 -346 -419 -608q47 -80 133 -113t243 -33q-53 84 -53 185q0 188 156 325q184 164 395 164q113 0 177.5 -55t64.5 -150q0 -182 -212 -328.5t-491 -156.5q96 -117 273 -117q133 0 235 58q6 6 13 6q8 0 8 -8q0 -20 -89 -46t-159 -26 q-178 0 -305 129q-301 -2 -439 131q-246 -154 -434 -154q-178 0 -292.5 131.5t-114.5 335.5zM598 307q0 -158 87 -256t224 -98q195 0 414 158q-63 84 -63 170q0 158 143 289.5t379 191.5q14 74 14 131q0 139 -88 224t-231 85q-219 0 -439 -235q-262 -283 -262 -547 q0 -92 50.5 -147.5t134.5 -55.5q39 0 77.5 19.5t38.5 37.5q0 8 -6 9q-33 -14 -43 -15q-47 0 -47 54q0 80 78 79q61 0 61 -69q0 -57 -47 -95t-117 -38q-94 0 -151 67.5t-57 177.5q0 264 240.5 520.5t488.5 256.5q158 0 252 -99.5t94 -265.5q0 -14 -6 -86q72 16 159 27 q-111 47 -110 147q0 140 178 230q-49 16 -117 49q-246 119 -387 118q-223 0 -446 -157q-215 -150 -353 -387q-143 -246 -143 -490zM1366 242q0 -45 14 -88q137 106 244.5 262t144.5 299q-403 -188 -403 -473zM1759 117q0 -76 37 -137q238 0 464 156.5t226 322.5 q0 76 -55 122t-145 46q-178 0 -352.5 -147.5t-174.5 -362.5zM2140 1157q266 -86 445 -86q94 0 94 51q0 39 -83 69t-190 30q-145 0 -266 -64z" />
<glyph unicode="&#x153;" horiz-adv-x="851" d="M109 141q0 172 217 310q147 92 237 92q72 0 72 -80q0 -18 -4 -37q168 117 274 117q74 0 74 -70q0 -131 -385 -219q-68 -106 -68 -174q0 -88 97 -88q117 0 264 160q84 92 135 159q6 8 8 8q6 0 6 -4q0 -6 -84 -108q-188 -229 -336 -230q-129 0 -161 127 q-109 -127 -207 -127q-61 0 -100 46.5t-39 117.5zM184 68q0 -76 66 -76q98 0 199 147q0 139 151 264q21 41 21 66q0 59 -58 59q-90 0 -234.5 -175t-144.5 -285zM604 268q139 39 235.5 106t96.5 124q0 31 -31 30q-113 0 -301 -260z" />
<glyph unicode="&#x178;" horiz-adv-x="1906" d="M301 596q0 299 313 549q156 125 335 197.5t329 72.5q158 0 249 -88t91 -244q0 -123 -56.5 -239.5t-220.5 -329.5q-143 -184 -181 -249.5t-38 -129.5q0 -125 119 -125q111 0 265.5 136.5t408.5 457.5q262 332 526 508l13 8q8 4 10 4q10 0 10 -12q0 -2 -8 -8 q-174 -121 -316.5 -327t-318.5 -578q-150 -319 -407 -511t-529 -192q-135 0 -222 62.5t-87 160.5q0 57 35.5 99.5t87.5 42.5q66 0 65 -62q0 -33 -22.5 -57.5t-53.5 -24.5q-53 0 -53 50q0 8 3 18t3 16t-4 6q-14 0 -27.5 -28.5t-13.5 -59.5q0 -90 80 -148t203 -58 q166 0 316.5 91t244.5 212t285 465q66 121 157 264q-221 -266 -329 -367q-203 -188 -330 -188q-78 0 -126 57t-48 150q0 94 54 192t226 318q221 281 222 458q0 233 -283 234q-315 0 -631 -287q-131 -119 -218 -280.5t-87 -286.5q0 -119 69.5 -190.5t186.5 -71.5 q207 0 397 196q227 236 228 436q0 72 -40 115t-106 43q-145 0 -307 -180t-162 -344q0 -104 101 -105h4q10 0 10 -6q0 -8 -25 -8q-55 0 -90 46t-35 120q0 170 164 332t338 162q76 0 121 -47.5t45 -127.5q0 -180 -184 -397q-215 -254 -457 -254q-135 0 -217 91t-82 241z M1976 1511q0 35 31 65t66 30q45 0 45 -43q0 -39 -29 -69t-64 -30q-49 0 -49 47zM2150 1511q0 35 31 65t66 30q45 0 45 -43q0 -39 -29 -69t-63 -30q-49 0 -50 47z" />
<glyph unicode="&#x2c6;" horiz-adv-x="1024" d="M582 651q2 2 14 8q111 45 222.5 117t154.5 125q-10 -125 -17 -244q0 -8 -4 -8t-6 23q-6 86 -22 123q-63 -41 -183 -94.5t-153 -53.5q-6 0 -6 4z" />
<glyph unicode="&#x2dc;" horiz-adv-x="1024" d="M635 688q0 14 55 40t86 26q35 0 121 -21l45 -10q43 -10 66 -10q33 0 59 14q8 4 10 4q4 0 4 -4q0 -14 -55 -39.5t-84 -25.5q-31 0 -88 14l-20 4q-94 25 -123 25q-23 0 -56 -15q-10 -6 -14 -6q-6 0 -6 4z" />
<glyph unicode="&#x2000;" horiz-adv-x="868" />
<glyph unicode="&#x2001;" horiz-adv-x="1737" />
<glyph unicode="&#x2002;" horiz-adv-x="868" />
<glyph unicode="&#x2003;" horiz-adv-x="1737" />
<glyph unicode="&#x2004;" horiz-adv-x="579" />
<glyph unicode="&#x2005;" horiz-adv-x="434" />
<glyph unicode="&#x2006;" horiz-adv-x="289" />
<glyph unicode="&#x2007;" horiz-adv-x="289" />
<glyph unicode="&#x2008;" horiz-adv-x="217" />
<glyph unicode="&#x2009;" horiz-adv-x="347" />
<glyph unicode="&#x200a;" horiz-adv-x="96" />
<glyph unicode="&#x2010;" horiz-adv-x="733" d="M274 213q0 12 78 39t113 27q20 0 86 -15q55 -12 80 -12q47 0 88 20q6 4 10 4t4 -4q0 -12 -82 -37.5t-125 -25.5q-41 0 -84 10q-51 12 -77 12q-41 0 -80 -20q-2 -2 -6 -2t-5 4z" />
<glyph unicode="&#x2011;" horiz-adv-x="733" d="M274 213q0 12 78 39t113 27q20 0 86 -15q55 -12 80 -12q47 0 88 20q6 4 10 4t4 -4q0 -12 -82 -37.5t-125 -25.5q-41 0 -84 10q-51 12 -77 12q-41 0 -80 -20q-2 -2 -6 -2t-5 4z" />
<glyph unicode="&#x2012;" horiz-adv-x="733" d="M274 213q0 12 78 39t113 27q20 0 86 -15q55 -12 80 -12q47 0 88 20q6 4 10 4t4 -4q0 -12 -82 -37.5t-125 -25.5q-41 0 -84 10q-51 12 -77 12q-41 0 -80 -20q-2 -2 -6 -2t-5 4z" />
<glyph unicode="&#x2013;" horiz-adv-x="911" d="M274 215q0 20 105.5 55t163.5 35q43 0 131 -26q74 -23 114 -23q49 0 105 23q10 4 12 4q4 0 4 -4q-2 -6 -12 -9l-39 -16q-92 -39 -166 -39q-39 0 -162 25q-61 12 -102 12q-88 0 -141 -37q-4 -4 -8 -4t-5 4z" />
<glyph unicode="&#x2014;" horiz-adv-x="1222" d="M268 215q0 23 133.5 63.5t208.5 40.5q61 0 228 -38q131 -31 200 -31q63 0 160 29q12 4 19 4q6 0 6 -4t-62 -29q-123 -47 -203 -47q-68 0 -184 24q-184 39 -268 39q-133 0 -219 -51q-6 -4 -13 -4q-6 2 -6 4z" />
<glyph unicode="&#x2018;" horiz-adv-x="428" d="M522 803q0 57 81 147t132 90q6 0 6 -6q0 -4 -18 -12q-37 -14 -67.5 -41t-30.5 -45q0 -6 10 -6q45 0 45 -43q0 -39 -41 -83t-76 -44q-41 0 -41 43z" />
<glyph unicode="&#x2019;" horiz-adv-x="428" d="M514 766q0 6 8 8q109 41 109 90q0 6 -10 6q-45 0 -46 43q0 39 41 83t76 44q41 0 41 -43q0 -68 -74 -147q-29 -31 -74.5 -60.5t-64.5 -29.5q-6 0 -6 6z" />
<glyph unicode="&#x201a;" horiz-adv-x="428" d="M78 -111q0 6 8 9q41 14 75 41.5t34 48.5q0 6 -11 6q-45 0 -45 43q0 39 41 83t76 44q41 0 41 -43q0 -68 -74 -148q-29 -31 -75 -60.5t-64 -29.5q-6 0 -6 6z" />
<glyph unicode="&#x201c;" horiz-adv-x="616" d="M522 803q0 57 81 147t132 90q6 0 6 -6q0 -4 -18 -12q-37 -14 -67.5 -41t-30.5 -45q0 -6 10 -6q45 0 45 -43q0 -39 -41 -83t-76 -44q-41 0 -41 43zM711 803q0 57 80.5 147t132.5 90q6 0 6 -6t-8 -8q-109 -41 -109 -90q0 -6 10 -6q45 0 45 -43q0 -39 -41 -83t-75 -44 q-41 0 -41 43z" />
<glyph unicode="&#x201d;" horiz-adv-x="616" d="M510 766q0 6 8 8q109 41 109 90q0 6 -11 6q-45 0 -45 43q0 39 41 83t76 44q41 0 41 -43q0 -68 -74 -147q-29 -31 -74.5 -60.5t-64.5 -29.5q-6 0 -6 6zM705 766q0 4 20 12q35 12 65.5 40t30.5 46q0 6 -10 6q-43 0 -43 41t40 85t77 44q41 0 41 -43q0 -94 -111 -182 q-70 -55 -104 -55q-6 0 -6 6z" />
<glyph unicode="&#x201e;" horiz-adv-x="616" d="M74 -111q0 6 8 9q41 14 74.5 41.5t33.5 48.5q0 6 -10 6q-45 0 -45 43q0 39 41 83t76 44q41 0 41 -43q0 -68 -74 -148q-29 -31 -75 -60.5t-64 -29.5q-6 0 -6 6zM268 -111q0 4 8 9q109 41 109 90q0 6 -4 6h-10q-39 0 -39 41t40 85t77 44q40 0 40 -43q0 -94 -110 -182 q-70 -55 -105 -56q-6 0 -6 6z" />
<glyph unicode="&#x2022;" horiz-adv-x="1370" d="M741 721q0 125 86 210t213 85q119 0 205 -87t86 -208q0 -123 -86 -209t-209 -86t-209 86t-86 209z" />
<glyph unicode="&#x2026;" horiz-adv-x="1368" d="M229 35q0 41 43 82t86 41q39 0 39 -41q0 -45 -41 -86t-84 -41t-43 45zM686 33q0 43 42 84t87 41q39 0 39 -41q0 -45 -41 -86t-84 -41t-43 43zM1141 33q0 43 43 84t86 41q39 0 39 -41q0 -43 -41 -85t-84 -42t-43 43z" />
<glyph unicode="&#x202f;" horiz-adv-x="347" />
<glyph unicode="&#x2039;" horiz-adv-x="509" d="M207 238q164 29 407 198q4 4 9 4l2 -2q0 -8 -104.5 -88t-207.5 -125l15 -12l41 -33l41 -35l30 -24q10 -6 19 -15q0 -4 -4 -4q-6 0 -64 33q-27 16 -59 33q-45 25 -125 70z" />
<glyph unicode="&#x203a;" horiz-adv-x="509" d="M113 88q0 16 128 92t189 94q-92 82 -151 127q-4 4 -5 7l2 2q6 -2 81 -44.5t186 -103.5q-176 -33 -408 -166q-18 -10 -20 -10z" />
<glyph unicode="&#x205f;" horiz-adv-x="434" />
<glyph unicode="&#x2122;" horiz-adv-x="1587" d="M385 760q0 61 53 61q37 0 37 -37q0 -41 -39 -41q-23 0 -26 25q-2 6 -2 10q-6 -6 -7 -16q0 -41 41 -68.5t105 -27.5q109 0 184.5 61t186.5 244q117 190 272 268q-215 43 -270 43q-133 0 -251 -98.5t-118 -208.5q0 -80 78 -80q57 0 123 51q6 6 12 6t8 -6q0 -14 -55 -39.5 t-88 -25.5q-39 0 -65.5 27.5t-26.5 68.5q0 70 61 152.5t152 130.5q111 59 251 59q35 0 97 -12q111 -23 149 -29l13 -2l10 4q127 47 217 47q115 0 115 -45q0 -31 -55.5 -51.5t-139.5 -20.5q-72 0 -197 25q-113 -55 -221 -268q-57 -111 -87 -151t-79 -75q-129 -92 -266 -92 q-76 0 -124 31t-48 80zM913 756q0 63 56 63q35 0 35 -35q0 -41 -37 -41q-25 0 -29 35q-6 -12 -6 -18q0 -96 145 -96q131 0 260 133q68 70 228 329q45 72 102 132.5t82 60.5q6 0 6 -6q0 -2 -6 -10q-43 -55 -78 -187q-55 -203 -102 -291t-129 -139q72 39 128 99.5t185 232.5 q137 182 232.5 252.5t209.5 70.5q90 0 146.5 -48t56.5 -126q0 -57 -16 -57q-6 0 -6 6q0 2 2 4q6 16 6 47q0 63 -53.5 107.5t-128.5 44.5q-125 0 -256 -119q-82 -76 -234 -268q-176 -227 -297 -268l-10 -2q-2 -2 -6 -3q-6 0 -6 5q0 4 12 12q76 53 141 254q92 283 172 358 q-84 -72 -194.5 -279.5t-224 -283.5t-222.5 -76q-72 0 -118 30t-46 77zM1288 1272q131 -27 205 -27q96 0 96 35q0 33 -98 33q-86 0 -203 -41zM1495 662q0 16 39 16q20 0 63 -6q90 31 179 196q104 195 166.5 277t148.5 137q41 27 55 27q6 0 6 -6q0 -4 -14 -13 q-104 -55 -207 -266q-84 -172 -145.5 -244.5t-161.5 -111.5q37 -4 55 -4q78 0 133.5 37.5t126.5 138.5q6 8 11 8q6 -2 6 -6q0 -8 -60 -78q-96 -113 -210 -113q-37 0 -91 8q-33 -10 -67 -10q-33 0 -33 13z" />
<glyph unicode="&#x25fc;" horiz-adv-x="542" d="M0 0v543h543v-543h-543z" />
</font>
</defs>
</svg>
